<svg width="150" height="50" viewBox="0 0 150 50" fill="none" xmlns="http://www.w3.org/2000/svg">
<g id="apple-11 1" clip-path="url(#clip0_429_14575)">
<path id="Vector" d="M35.1419 26.5682C35.0804 20.2413 40.4128 17.2015 40.6527 17.0567C37.6513 12.7563 32.9892 12.1653 31.3286 12.0989C27.3615 11.7009 23.5851 14.3908 21.5678 14.3908C19.5504 14.3908 16.4445 12.1532 13.154 12.2196C8.82402 12.2799 4.83237 14.6864 2.59975 18.4861C-1.89009 26.1218 1.45576 37.4608 5.84105 43.6671C7.98756 46.7009 10.5339 50.1206 13.892 49.994C17.1272 49.8673 18.3449 47.9433 22.2443 47.9433C26.1437 47.9433 27.2447 49.994 30.6582 49.9337C34.1332 49.8673 36.3351 46.8335 38.4631 43.7877C40.911 40.2594 41.9258 36.8516 41.9874 36.6707C41.9074 36.6405 35.2157 34.1255 35.1419 26.5682Z" fill="black"/>
<path id="Vector_2" d="M28.727 7.98552C30.5106 5.86852 31.7099 2.93124 31.384 0C28.8192 0.102533 25.7132 1.67672 23.8742 3.79373C22.2259 5.66345 20.7806 8.65501 21.1742 11.5259C24.0218 11.7431 26.9495 10.0965 28.727 7.98552ZM57.6342 32.7865L54.6819 41.5621H50.8871L60.5495 13.6731H64.9778L74.6771 41.5621H70.7531L67.7148 32.7865H57.6342ZM66.9583 29.9698L64.1783 21.9421C63.5448 20.1206 63.1265 18.468 62.7021 16.8516H62.6222C62.1978 18.5042 61.7365 20.199 61.1891 21.8999L58.4091 29.9638L66.9583 29.9698ZM77.5555 28.07C77.5555 25.5066 77.4756 23.4318 77.3833 21.532H80.7169L80.8891 24.9698H80.969C82.4882 22.5271 84.893 21.0796 88.2266 21.0796C93.1654 21.0796 96.8742 25.1749 96.8742 31.2606C96.8742 38.462 92.4028 42.0145 87.5931 42.0145C84.893 42.0145 82.5313 40.8565 81.3073 38.8721H81.2274V49.7527H77.5555V28.07ZM81.2212 33.4077C81.2212 33.9505 81.3012 34.4391 81.3934 34.8975C82.07 37.4186 84.3026 39.1616 86.9657 39.1616C90.8897 39.1616 93.1716 36.0193 93.1716 31.4234C93.1716 27.4065 91.0189 23.9807 87.0949 23.9807C84.5671 23.9807 82.2053 25.76 81.4795 28.4922C81.3504 28.9445 81.2274 29.4873 81.2274 29.9819L81.2212 33.4077ZM100.712 28.07C100.712 25.5066 100.632 23.4318 100.54 21.532H103.873L104.046 24.9698H104.126C105.645 22.5271 108.05 21.0796 111.383 21.0796C116.322 21.0796 120.031 25.1749 120.031 31.2606C120.031 38.462 115.559 42.0145 110.75 42.0145C108.05 42.0145 105.688 40.8565 104.464 38.8721H104.384V49.7527H100.712V28.07ZM104.384 33.4077C104.384 33.9505 104.464 34.4391 104.556 34.8975C105.233 37.4186 107.465 39.1616 110.128 39.1616C114.052 39.1616 116.334 36.0193 116.334 31.4234C116.334 27.4065 114.182 23.9807 110.258 23.9807C107.73 23.9807 105.368 25.76 104.642 28.4922C104.513 28.9445 104.39 29.4873 104.39 29.9819L104.384 33.4077ZM123.875 12.1834H127.59V41.5561H123.875V12.1834ZM135.056 32.2075C135.136 37.1291 138.347 39.1616 142.055 39.1616C144.712 39.1616 146.318 38.7093 147.708 38.1303L148.341 40.7358C147.037 41.3148 144.799 41.9783 141.551 41.9783C135.265 41.9783 131.507 37.9252 131.507 31.8818C131.507 25.8384 135.136 21.0796 141.084 21.0796C147.751 21.0796 149.522 26.8275 149.522 30.5127C149.522 31.2606 149.442 31.8335 149.393 32.2075H135.056ZM145.943 29.6019C145.986 27.2859 144.971 23.6852 140.795 23.6852C137.037 23.6852 135.395 27.0808 135.099 29.6019H145.943Z" fill="black"/>
</g>
<defs>
<clipPath id="clip0_429_14575">
<rect width="149.057" height="50" fill="white" transform="translate(0.47168)"/>
</clipPath>
</defs>
</svg>
