<svg width="18" height="13" viewBox="0 0 18 13" fill="none" xmlns="http://www.w3.org/2000/svg">
<g id="Layer_1" clip-path="url(#clip0_2212_3828)">
<path id="Vector" d="M-5.82822e-05 6.14315C0.159616 5.70501 0.489766 5.56306 0.953761 5.56397C6.34794 5.57125 11.7421 5.56852 17.1363 5.56897C17.5735 5.56897 17.8605 5.75051 17.9647 6.09083C18.1028 6.54034 17.7783 6.99122 17.2913 7.02488C17.2213 7.02989 17.1509 7.02671 17.0804 7.02671C11.698 7.02671 6.31553 7.02398 0.932628 7.03171C0.470981 7.03216 0.15492 6.87929 -0.000997543 6.45071V6.14406L-5.82822e-05 6.14315Z" fill="#293133"/>
<path id="Vector_2" d="M0 0.557109C0.0854728 0.431992 0.148873 0.280941 0.263463 0.189036C0.377583 0.0975871 0.540545 0.0593694 0.6866 0.0102324C0.744365 -0.00933141 0.814339 0.00386279 0.878679 0.00386279C6.29117 0.00386279 11.7037 0.00386279 17.1162 0.00522771C17.2434 0.00522771 17.3768 0.0106874 17.4966 0.0475401C17.8328 0.150819 18.0399 0.486133 17.993 0.820538C17.9446 1.16586 17.6515 1.42929 17.2918 1.44794C17.2157 1.45204 17.1396 1.45067 17.0636 1.45067C11.698 1.45067 6.3325 1.44703 0.966969 1.45704C0.502505 1.45795 0.173763 1.3251 0 0.897428C0 0.783685 0 0.670397 0 0.556654L0 0.557109Z" fill="#293133"/>
<path id="Vector_3" d="M0 11.7284C0.146525 11.2939 0.458829 11.1392 0.924233 11.1401C6.34142 11.1479 11.7586 11.1451 17.1763 11.1456C17.5933 11.1456 17.8723 11.3349 17.9704 11.6816C18.0911 12.106 17.7901 12.5383 17.3388 12.5847C17.2401 12.5947 17.1401 12.5942 17.0405 12.5942C11.6821 12.5942 6.32311 12.5915 0.964621 12.6001C0.500626 12.6011 0.170946 12.4655 0.00046963 12.0346V11.728L0 11.7284Z" fill="#293133"/>
</g>
<defs>
<clipPath id="clip0_2212_3828">
<rect width="18" height="12.6" fill="white"/>
</clipPath>
</defs>
</svg>
