<svg width="11" height="12" viewBox="0 0 11 12" fill="none" xmlns="http://www.w3.org/2000/svg">
<path d="M1.94336 11.1719C0.71875 11.1719 0.103516 10.5684 0.103516 9.35547V2.20117C0.103516 0.988281 0.71875 0.384766 1.94336 0.384766H9.05078C10.2812 0.384766 10.8906 0.994141 10.8906 2.20117V9.35547C10.8906 10.5625 10.2812 11.1719 9.05078 11.1719H1.94336ZM4.84375 8.63477C5.04297 8.63477 5.21289 8.54102 5.33594 8.34766L8.08984 4.01172C8.16602 3.88867 8.23633 3.75391 8.23633 3.625C8.23633 3.34961 7.99609 3.17383 7.74414 3.17383C7.58594 3.17383 7.43359 3.26758 7.32227 3.44336L4.82031 7.46289L3.63086 5.92773C3.48438 5.73438 3.35547 5.68164 3.19141 5.68164C2.92188 5.68164 2.7168 5.89844 2.7168 6.16211C2.7168 6.29688 2.76953 6.42578 2.85742 6.54297L4.32812 8.34766C4.48047 8.55273 4.64453 8.63477 4.84375 8.63477Z" fill="#293133"/>
</svg>
