<svg width="15" height="15" viewBox="0 0 15 15" fill="none" xmlns="http://www.w3.org/2000/svg">
<path d="M0.928955 0.758788C1.22778 0.451171 1.73755 0.45996 2.03638 0.758788L7.67017 6.38379L13.2952 0.758789C13.594 0.459961 14.095 0.459961 14.4026 0.758789C14.719 1.05762 14.7102 1.57617 14.4026 1.875L8.77759 7.5L14.4026 13.125C14.7102 13.4238 14.7102 13.9336 14.4026 14.2412C14.1038 14.5488 13.594 14.54 13.2952 14.2412L7.67017 8.61621L2.03638 14.2412C1.73755 14.54 1.23657 14.54 0.928954 14.2412C0.621337 13.9424 0.630126 13.4238 0.928954 13.125L6.55395 7.5L0.928955 1.875C0.630127 1.57617 0.630127 1.06641 0.928955 0.758788Z" fill="#505050" />
</svg>
