<svg width="235" height="77" viewBox="0 0 235 77" fill="none" xmlns="http://www.w3.org/2000/svg">
<g clip-path="url(#clip0_747_3465)">
<path d="M219 44.7055C218.88 45.0435 218.802 45.4042 218.633 45.7154C218.052 46.781 217.155 47.3766 215.919 47.3766C208.076 47.3807 200.236 47.3787 192.394 47.3766C192.25 47.3766 192.105 47.3622 191.938 47.3539V44.4437H214.406C214.406 43.4874 214.41 42.5743 214.396 41.6634C214.396 41.6015 214.245 41.5108 214.152 41.4923C214.01 41.4634 213.858 41.482 213.709 41.482C207.549 41.482 201.386 41.482 195.226 41.482C193.175 41.482 191.911 40.2124 191.911 38.1513C191.911 37.5598 191.911 36.9662 191.911 36.3747C191.911 34.4022 193.208 33.0893 195.182 33.079C197.225 33.0687 199.267 33.077 201.31 33.077C207.044 33.077 212.776 33.077 218.509 33.077C218.672 33.077 218.837 33.0605 219 33.0522V36.016C218.755 36.0284 218.507 36.0511 218.262 36.0511C211.246 36.0511 204.228 36.0511 197.213 36.0511H196.563V38.547C196.809 38.547 197.019 38.547 197.231 38.547C203.408 38.547 209.583 38.547 215.76 38.547C217.392 38.547 218.499 39.4065 218.911 40.9832C218.928 41.043 218.971 41.0945 219.002 41.1501V44.7055H219Z" fill="#293133"/>
<path d="M39.8877 61.6045C40.8646 60.879 41.7859 60.1968 42.7072 59.5126C46.0544 57.0331 49.3995 54.5495 52.7528 52.0804C53.0599 51.8557 53.1939 51.6228 53.1918 51.2292C53.1733 45.8312 53.1671 40.4333 53.1753 35.0354C53.1753 34.6459 53.0434 34.4088 52.7384 34.1801C48.6163 31.0885 44.5003 27.9845 40.3865 24.8847C40.2834 24.8084 40.1886 24.7219 40.0505 24.6064C40.8976 24.12 41.6994 23.6398 42.5238 23.2008C42.6433 23.1369 42.8927 23.2379 43.0432 23.3245C46.5222 25.3278 49.9972 27.3394 53.4721 29.3489C55.4095 30.4702 57.3428 31.5955 59.2864 32.7064C59.5585 32.8631 59.678 33.0279 59.6759 33.3577C59.6677 39.8748 59.6698 46.3918 59.6821 52.9089C59.6821 53.2222 59.5997 53.4056 59.3152 53.5685C53.9647 56.6415 48.6163 59.7207 43.2781 62.8144C42.8742 63.0473 42.565 63.0803 42.1569 62.8329C41.4438 62.4022 40.6936 62.0332 39.8898 61.6004L39.8877 61.6045Z" fill="#F8283B"/>
<path d="M18.7309 28.9961C18.902 30.4718 19.0648 31.8568 19.2256 33.2439C19.4791 35.4307 19.7326 37.6154 19.9861 39.8022C20.1901 41.5644 20.388 43.3266 20.6106 45.0868C20.6333 45.262 20.7734 45.4866 20.9259 45.5732C25.7117 48.3391 30.5078 51.0865 35.2936 53.8504C35.5698 54.0091 35.7717 53.9473 36.0232 53.8401C40.7451 51.8368 45.467 49.8396 50.1909 47.8404C50.3373 47.7785 50.4877 47.727 50.7144 47.6404C50.7144 48.6545 50.7309 49.5861 50.6959 50.5177C50.6918 50.6496 50.4527 50.8 50.2919 50.8928C45.9864 53.3723 41.6787 55.8476 37.3711 58.3209C36.2726 58.9515 35.1699 59.576 34.0796 60.2191C33.822 60.3716 33.6282 60.3778 33.3644 60.2253C27.7212 56.9709 22.0719 53.7247 16.4184 50.4888C16.1051 50.3136 16 50.1158 16 49.7592C16.0124 43.5554 16.0124 37.3516 16 31.1499C16 30.7892 16.1113 30.5872 16.4205 30.4079C17.1727 29.9751 17.9065 29.5052 18.7309 28.9961Z" fill="#F8283B"/>
<path d="M25.2604 45.2583C24.4194 44.7739 23.6197 44.3246 22.8386 43.8485C22.7335 43.7846 22.6758 43.5682 22.6758 43.4219C22.6799 39.0792 22.6943 34.7345 22.7046 30.3918C22.7088 28.4668 22.717 26.5418 22.6985 24.6168C22.6943 24.2581 22.8098 24.0644 23.123 23.8851C28.7559 20.6389 34.3805 17.3845 40.0011 14.1218C40.2772 13.9611 40.473 13.959 40.7513 14.1218C46.1327 17.2382 51.5224 20.3421 56.9038 23.4605C57.0872 23.5677 57.3078 23.8026 57.316 23.9881C57.3572 24.9218 57.3346 25.8575 57.3346 26.8386C57.215 26.7974 57.0646 26.7541 56.9244 26.6922C52.1881 24.6415 47.4497 22.5907 42.7175 20.5297C42.3816 20.3833 42.1301 20.3916 41.8065 20.5791C37.1568 23.2853 32.5009 25.9812 27.8367 28.6626C27.441 28.8893 27.2658 29.1346 27.2122 29.6066C26.8577 32.6734 26.4537 35.7341 26.0745 38.7989C25.8271 40.7878 25.5942 42.7768 25.3531 44.7657C25.3366 44.91 25.3016 45.0501 25.2624 45.2603L25.2604 45.2583Z" fill="#F8283B"/>
<path d="M157.859 47.3787C156.463 47.3787 155.066 47.321 153.675 47.3972C152.615 47.457 151.754 47.1767 150.89 46.5625C149.161 45.3341 147.37 44.1902 145.585 43.0381C145.315 42.8629 144.954 42.7516 144.633 42.7496C142.211 42.7269 139.789 42.7372 137.366 42.7372C137.186 42.7372 137.005 42.7372 136.786 42.7372V39.8187H153.306V36.0944H135.418V47.3416H130.853C130.853 47.1334 130.853 46.9397 130.853 46.748C130.853 43.2916 130.853 39.8373 130.853 36.3809C130.853 34.3734 132.145 33.0811 134.163 33.0791C140.968 33.0749 147.774 33.0894 154.577 33.0708C156.709 33.0646 158.028 34.7052 157.906 36.4159C157.828 37.5289 157.898 38.6522 157.89 39.7713C157.879 41.3851 156.554 42.7166 154.932 42.7372C153.73 42.7537 152.527 42.7496 151.325 42.7557C151.315 42.7557 151.307 42.7763 151.253 42.8402C153.464 44.3221 155.672 45.7979 157.877 47.2756C157.871 47.3107 157.863 47.3457 157.857 47.3808L157.859 47.3787Z" fill="#293133"/>
<path d="M174.897 47.3787C171.437 47.3787 167.976 47.3787 164.516 47.3787C162.719 47.3787 161.375 46.0823 161.36 44.2871C161.34 41.6057 161.342 38.9222 161.36 36.2387C161.371 34.4187 162.684 33.0873 164.524 33.0832C171.445 33.0667 178.366 33.0667 185.287 33.0832C187.183 33.0873 188.451 34.4249 188.453 36.3211C188.453 38.9551 188.455 41.5871 188.453 44.2211C188.453 46.0885 187.155 47.3787 185.281 47.3787C181.821 47.3787 178.36 47.3787 174.9 47.3787H174.897ZM183.882 36.1809C183.717 36.1686 183.587 36.15 183.459 36.15C177.777 36.15 172.094 36.1541 166.41 36.1397C165.992 36.1397 165.926 36.2964 165.928 36.657C165.94 39.0417 165.934 41.4284 165.934 43.813C165.934 43.9738 165.948 44.1325 165.954 44.3015H183.88V36.1809H183.882Z" fill="#293133"/>
<path d="M113.847 47.3791C110.386 47.3791 106.926 47.3791 103.465 47.3791C101.703 47.3791 100.372 46.2064 100.33 44.4462C100.266 41.6494 100.264 38.8504 100.33 36.0556C100.372 34.2481 101.724 33.0836 103.601 33.0815C107.919 33.0753 112.237 33.0795 116.553 33.0795C119.024 33.0795 121.497 33.0795 123.969 33.0795C126.143 33.0795 127.404 34.3408 127.404 36.5111C127.404 39.0627 127.404 41.6123 127.404 44.1639C127.404 46.0848 126.104 47.3812 124.179 47.3812C120.735 47.3812 117.291 47.3812 113.847 47.3812V47.3791ZM122.845 44.3143V43.7702C122.845 41.3855 122.833 38.9988 122.856 36.6142C122.86 36.1566 122.726 36.0392 122.277 36.0392C116.66 36.0536 111.044 36.0495 105.425 36.0495C105.252 36.0495 105.077 36.0659 104.91 36.0742V44.3123H122.845V44.3143Z" fill="#293133"/>
<path d="M74.7547 44.4355H96.8369V47.3787C96.6534 47.3787 96.4803 47.3787 96.3051 47.3787C88.5267 47.3787 80.7482 47.3787 72.9698 47.3787C71.1128 47.3787 69.7916 46.07 69.7875 44.215C69.7813 41.5975 69.7854 38.982 69.7875 36.3644C69.7875 34.4002 71.0963 33.0832 73.0708 33.077C76.2345 33.0688 79.3982 33.075 82.564 33.075C87.1128 33.075 91.6615 33.075 96.2082 33.075H96.8307V36.0388H74.7547V44.4355Z" fill="#293133"/>
</g>
<defs>
<clipPath id="clip0_747_3465">
<rect width="203" height="49.0079" fill="white" transform="translate(16 14)"/>
</clipPath>
</defs>
</svg>
