<svg width="22" height="24" viewBox="0 0 22 24" fill="none" xmlns="http://www.w3.org/2000/svg">
<path d="M20.2721 4.93691L12.4408 0.388857C12.0023 0.134113 11.5049 0 10.9986 0C10.4923 0 9.99498 0.134113 9.55651 0.388857L1.72777 4.93691C1.28911 5.19147 0.924855 5.55784 0.67168 5.99914C0.418505 6.44044 0.28536 6.94109 0.285645 7.45065V16.5493C0.28536 17.0589 0.418505 17.5596 0.67168 18.0009C0.924855 18.4422 1.28911 18.8085 1.72777 19.0631L9.55651 23.6111C9.99498 23.8659 10.4923 24 10.9986 24C11.5049 24 12.0023 23.8659 12.4408 23.6111L14.6632 22.3154L20.2721 19.0579C20.7104 18.8029 21.0744 18.4365 21.3275 17.9953C21.5806 17.5541 21.714 17.0536 21.7142 16.5442V7.45065C21.714 6.94119 21.5806 6.44075 21.3275 5.99954C21.0744 5.55833 20.7104 5.19187 20.2721 4.93691Z" fill="#FDF5E1"/>
<path d="M20.0146 16.1682C18.8463 14.6387 17.6448 14.0906 15.4954 14.4518L15.23 14.5141C15.23 14.5141 14.5404 12.8002 14.5617 12.7703C14.583 12.7404 14.5167 12.5387 14.8485 12.7703C15.1055 12.9437 15.3796 13.0873 15.666 13.1988L15.7964 13.3582C15.7964 13.3582 15.7253 13.5251 15.3224 13.57C14.9195 13.6148 15.2442 14.1504 15.8532 13.7892C15.9865 13.7181 16.1162 13.6399 16.2419 13.555C16.4002 13.5626 16.5588 13.5551 16.7158 13.5326C16.7263 13.4853 16.7311 13.4367 16.7301 13.3881C16.7301 13.3881 16.858 13.4255 16.8817 13.3881C16.9097 13.3323 16.922 13.2692 16.9173 13.2063C16.9031 13.1764 17.0594 13.2362 17.0808 13.1839C17.1055 13.1481 17.12 13.1056 17.1225 13.0615C17.125 13.0173 17.1155 12.9734 17.095 12.9347C17.095 12.9347 17.2253 12.9347 17.2396 12.8824C17.2492 12.7769 17.2323 12.6706 17.1908 12.574C17.1492 12.4774 17.0843 12.394 17.0026 12.3319C17.0026 12.3319 16.9315 12.0379 16.8959 11.9533C16.9981 11.9083 17.0908 11.8425 17.1685 11.7595C17.2462 11.6765 17.3074 11.5781 17.3486 11.47C17.4129 11.2881 17.4536 11.0979 17.4694 10.9045C17.4694 10.9045 17.441 10.7451 17.3036 10.7376C17.302 10.7057 17.2936 10.6745 17.2789 10.6466C17.2641 10.6186 17.2435 10.5946 17.2186 10.5763C17.1937 10.558 17.165 10.546 17.135 10.5411C17.1049 10.5363 17.0742 10.5387 17.0452 10.5483C16.8082 10.618 17.1471 11.1312 16.2134 11.1536C16.0538 11.1016 15.8859 11.0834 15.7196 11.1001C15.5532 11.1167 15.3916 11.168 15.2442 11.2508C15.0716 11.3187 14.888 11.35 14.7039 11.3429C14.7039 11.3429 13.756 10.4138 13.2465 10.1422C13.2308 9.59277 13.1005 9.05363 12.8649 8.56287L12.9028 8.51803C12.8816 8.1283 12.8357 7.7405 12.7654 7.35718C12.7654 7.35718 12.9739 7.17533 13.0877 7.27248C13.2014 7.36963 13.2109 7.66607 13.2322 7.67355C13.2536 7.68102 13.391 7.71091 13.4266 7.62123C13.4411 7.43441 13.4363 7.24648 13.4123 7.06074C13.4123 7.06074 13.7488 7.25753 13.8128 7.40949C13.8128 7.40949 13.9716 7.4618 14.0356 7.40949C14.0996 7.35718 14.1091 7.12301 14.102 7.0981C14.0949 7.07319 14.2157 7.0981 14.2441 7.07568C14.2726 7.05326 14.2797 6.92622 14.2797 6.92622H14.4456C14.4635 6.86157 14.4778 6.79586 14.4882 6.72942C14.5025 6.63227 14.6968 6.72942 14.6968 6.72942C14.6968 6.72942 14.8058 6.75931 14.8342 6.707C14.8382 6.50702 14.8263 6.30704 14.7987 6.10914L14.9266 5.87497V5.73298C14.9266 5.73298 15.1921 5.91483 15.3224 5.74793C15.4528 5.58102 15.538 4.83369 15.2655 4.36537C14.993 3.89704 14.4171 3.36893 13.2322 3.39882C13.0693 3.42465 12.9031 3.41447 12.7441 3.36893C12.7136 3.42993 12.7007 3.49897 12.707 3.56757C12.7133 3.63616 12.7385 3.70133 12.7796 3.75505L12.436 3.7401C12.436 3.7401 12.4052 3.91448 12.5213 3.96679C12.4864 3.96981 12.4526 3.98091 12.4223 3.99931C12.3919 4.0177 12.3659 4.04293 12.3459 4.07319C12.326 4.10344 12.3127 4.13796 12.307 4.17426C12.3012 4.21057 12.3032 4.24776 12.3128 4.28316C12.3696 4.56964 12.5853 4.48743 12.6208 4.53227C12.6564 4.57711 12.5782 4.78138 12.5782 4.78138C12.6015 4.82634 12.6339 4.86544 12.673 4.89597C12.7227 4.92586 12.3839 5.25718 12.3839 5.25718V5.40914C12.3839 5.40914 12.1895 5.25718 12.0758 5.27213C11.962 5.28707 11.8862 5.48885 11.8862 5.48885C11.8862 5.48885 8.82208 3.89704 5.96175 6.83654C5.96175 6.83654 5.96173 6.96358 5.99727 6.99098C5.99727 6.99098 4.65125 8.59774 5.06596 10.0849L4.592 10.1273C4.62389 10.2512 4.67939 10.367 4.75516 10.4676C4.83093 10.5682 4.9254 10.6516 5.03278 10.7127C5.38588 10.8995 5.92381 10.4636 6.35749 11.2433C6.79116 12.023 7.32201 13.8415 7.32201 13.8415L6.5281 15.1369C6.5281 15.1369 4.79343 14.0906 3.07533 14.7408C1.35724 15.391 0.589424 16.7013 0.347706 17.9095C0.0822897 19.2397 0.584696 22.2191 3.49954 22.934C6.41438 23.649 7.86706 21.2176 8.21068 20.5376C8.3671 20.7554 8.57627 20.9251 8.81637 21.029C9.05648 21.1328 9.31871 21.167 9.57568 21.128C10.4525 20.976 10.8127 19.9048 10.6113 19.2547C10.8023 19.1084 11.0229 19.0103 11.2558 18.9682C11.5165 18.9682 11.7606 18.8461 11.6161 18.7191C11.6161 18.7191 12.1469 18.7938 12.2488 18.612C12.3507 18.4301 12.564 18.0689 11.917 17.9344C11.917 17.9344 11.5236 17.8198 11.443 17.5707L14.3318 14.1504L14.6115 14.7856C14.6115 14.7856 12.1161 16.1059 12.4313 19.0205C12.7464 21.9351 15.4267 23.9006 18.396 22.6301C21.3654 21.3596 21.1829 17.6977 20.0146 16.1682ZM16.3461 12.0379C16.1971 12.0798 16.043 12.0983 15.8888 12.0928C15.7706 12.0513 15.6656 11.9763 15.5855 11.876C15.9741 11.6693 16.3461 12.0379 16.3461 12.0379ZM9.73918 8.44828C9.73918 8.44828 10.4762 8.82941 10.6681 8.65005C10.8535 8.52187 11.0627 8.43692 11.2819 8.40095C11.2819 8.71233 12.1327 10.5134 12.1327 10.5134L12.3436 11.1287C12.3436 11.1287 13.7512 12.023 13.8294 12.3369C13.9076 12.6508 11.872 12.6657 11.872 12.6657C12.0115 12.3732 12.1212 12.0659 12.199 11.749C12.2258 11.6564 12.2265 11.5577 12.2008 11.4648C12.1751 11.3719 12.1243 11.2889 12.0545 11.2259C11.4906 10.7206 10.8917 10.2602 10.2629 9.84827L10.1966 9.77603C9.99513 9.58422 8.79838 9.0287 8.79838 9.0287C8.79127 8.67995 9.73918 8.44828 9.73918 8.44828ZM7.27696 12.2945C7.27696 12.2945 8.05189 13.0643 8.22488 13.1689C8.22488 13.1689 7.61347 13.3134 7.54238 13.1689C7.44285 12.8823 7.35743 12.5904 7.28645 12.2945H7.27696ZM7.14427 17.1646C6.98428 17.485 6.80541 17.7944 6.6087 18.0913C6.3584 18.2498 6.16063 18.4855 6.04231 18.7664C5.73167 18.7594 5.42485 18.6927 5.13704 18.5696C5.12282 18.5945 5.12284 18.5696 5.12284 18.5696H5.13704C5.1606 18.5126 5.17888 18.4534 5.19157 18.3927C5.25792 18.1312 4.98065 18.171 4.98065 18.171L6.22479 16.1184C6.54945 16.1682 7.19165 17.065 7.15373 17.1646H7.14427ZM7.33384 20.3283C7.19386 20.6996 6.97838 21.0342 6.70248 21.3087C6.42658 21.5833 6.09692 21.7911 5.7366 21.9176C3.21752 22.8842 1.89755 21.0806 1.5326 20.423C1.04205 19.5262 0.776639 16.7486 2.7483 15.8319C4.71997 14.9152 5.90959 15.9714 5.90959 15.9714L4.38583 18.318C4.27668 18.2765 4.15757 18.2737 4.04677 18.3101C3.93596 18.3465 3.83955 18.4201 3.77233 18.5196C3.70511 18.6191 3.67078 18.739 3.67458 18.861C3.67838 18.9829 3.72012 19.1002 3.79339 19.1949C4.06117 19.5063 4.32895 19.3742 4.64413 19.3443C4.95931 19.3144 7.20114 19.718 7.20114 19.718C7.3931 19.7927 7.34333 20.3283 7.34333 20.3283H7.33384ZM7.55661 16.2031C7.35056 15.863 7.0784 15.5727 6.75799 15.3511C6.75799 15.3511 7.3836 14.3771 7.41915 14.3696C7.57409 14.6941 7.7133 15.0267 7.83623 15.3661C7.83623 15.3661 7.70115 16.1059 7.56607 16.2031H7.55661ZM8.123 14.7931C8.123 14.7931 7.84334 14.1604 7.92391 13.9113C8.00449 13.6621 8.59221 13.5874 8.59221 13.5874L8.82919 13.971C8.57227 14.2208 8.33893 14.4961 8.13245 14.7931H8.123ZM9.04247 17.1621C8.91048 16.9489 8.8292 16.7054 8.8055 16.4522L9.78893 14.8903C9.7632 15.0554 9.2099 17.3381 9.04247 17.1621ZM10.1563 12.9497L9.50931 11.7863C9.50931 11.7863 10.8672 12.0355 10.6444 12.2098C10.4478 12.4276 10.2861 12.6774 10.1658 12.9497H10.1563ZM14.019 13.3607C14.019 13.3607 10.9549 16.9529 10.7937 17.0451C10.6326 17.1372 10.5046 16.9429 10.5046 16.9429C10.5046 16.9429 10.2273 16.4821 10.8506 15.1992C11.1843 14.5431 11.4596 13.8559 11.6729 13.1465C11.6729 13.1465 13.5403 13.0568 13.8579 13.0668C14.1754 13.0767 14.0285 13.3607 14.0285 13.3607H14.019ZM19.0193 21.2824C17.8605 22.4806 14.2797 22.7023 13.3981 19.9248C12.5166 17.1472 14.8532 15.6899 14.8532 15.6899L16.2608 18.5796C16.0689 18.8112 16.5191 19.3269 16.7964 18.9831C17.1614 18.5472 16.576 18.2781 16.576 18.2781C16.5002 18.0564 15.467 15.4383 15.467 15.4383C16.3959 14.9401 18.5477 15.2365 19.4008 16.8383C20.2539 18.4401 20.1662 20.1041 19.0287 21.2824H19.0193Z" fill="url(#paint0_linear_2267_6408)"/>
<defs>
<linearGradient id="paint0_linear_2267_6408" x1="4.73566" y1="9.32913" x2="18.6172" y2="20.7326" gradientUnits="userSpaceOnUse">
<stop stop-color="#DDAE82"/>
<stop offset="1" stop-color="#9A6D38"/>
</linearGradient>
</defs>
</svg>
