<svg width="101" height="68" viewBox="0 0 101 68" fill="none" xmlns="http://www.w3.org/2000/svg">
<path d="M83.5286 33.9998C83.5286 52.2409 68.7412 67.0283 50.5 67.0283C32.2588 67.0283 17.4714 52.2409 17.4714 33.9998C17.4714 15.7586 32.2588 0.971191 50.5 0.971191C68.7412 0.971191 83.5286 15.7586 83.5286 33.9998ZM19.4531 33.9998C19.4531 51.1465 33.3533 65.0466 50.5 65.0466C67.6467 65.0466 81.5469 51.1465 81.5469 33.9998C81.5469 16.8531 67.6467 2.95291 50.5 2.95291C33.3533 2.95291 19.4531 16.8531 19.4531 33.9998Z" fill="#F8F8F8"/>
<path d="M18.37 34C17.3372 34 16.4946 34.8379 16.5514 35.8691C16.8854 41.9372 18.8411 47.8174 22.23 52.8894C25.966 58.4807 31.2761 62.8385 37.4888 65.4119C43.7015 67.9853 50.5377 68.6586 57.1331 67.3467C63.7284 66.0348 69.7866 62.7966 74.5416 58.0416C79.2966 53.2866 82.5348 47.2284 83.8467 40.6331C85.1586 34.0377 84.4853 27.2014 81.9119 20.9888C79.3385 14.7761 74.9807 9.466 69.3894 5.73003C64.3174 2.34104 58.4371 0.385424 52.3691 0.0513944C51.3379 -0.00536819 50.5 0.837222 50.5 1.87C50.5 2.90277 51.3381 3.73397 52.3689 3.79776C57.6967 4.12739 62.8547 5.86179 67.3116 8.83973C72.2878 12.1647 76.1663 16.8907 78.4566 22.42C80.7469 27.9493 81.3461 34.0336 80.1786 39.9034C79.011 45.7733 76.129 51.1651 71.8971 55.3971C67.6651 59.629 62.2733 62.511 56.4034 63.6786C50.5336 64.8462 44.4493 64.2469 38.92 61.9566C33.3907 59.6663 28.6647 55.7878 25.3397 50.8116C22.3618 46.3548 20.6274 41.1967 20.2978 35.8689C20.234 34.8381 19.4028 34 18.37 34Z" fill="url(#paint0_linear_2267_6126)"/>
<path d="M49.0515 31.563V33.543H39.7635V31.977L44.7675 27.225C45.3315 26.685 45.7095 26.217 45.9015 25.821C46.1055 25.413 46.2075 25.011 46.2075 24.615C46.2075 24.027 46.0095 23.577 45.6135 23.265C45.2175 22.953 44.6355 22.797 43.8675 22.797C42.5835 22.797 41.5995 23.235 40.9155 24.111L39.2775 22.851C39.7695 22.191 40.4295 21.681 41.2575 21.321C42.0975 20.949 43.0335 20.763 44.0655 20.763C45.4335 20.763 46.5255 21.087 47.3415 21.735C48.1575 22.383 48.5655 23.265 48.5655 24.381C48.5655 25.065 48.4215 25.707 48.1335 26.307C47.8455 26.907 47.2935 27.591 46.4775 28.359L43.1115 31.563H49.0515ZM54.6501 20.763C56.3781 20.763 57.7161 21.303 58.6641 22.383C59.6241 23.463 60.1041 25.011 60.1041 27.027C60.1041 28.443 59.8461 29.655 59.3301 30.663C58.8141 31.659 58.0881 32.421 57.1521 32.949C56.2281 33.465 55.1541 33.723 53.9301 33.723C53.2821 33.723 52.6701 33.657 52.0941 33.525C51.5301 33.381 51.0381 33.177 50.6181 32.913L51.4821 31.149C52.1061 31.557 52.9041 31.761 53.8761 31.761C55.0881 31.761 56.0361 31.389 56.7201 30.645C57.4041 29.901 57.7461 28.827 57.7461 27.423V27.405C57.3741 27.837 56.9001 28.167 56.3241 28.395C55.7481 28.611 55.1001 28.719 54.3801 28.719C53.5521 28.719 52.8081 28.563 52.1481 28.251C51.4881 27.927 50.9721 27.471 50.6001 26.883C50.2281 26.295 50.0421 25.617 50.0421 24.849C50.0421 24.033 50.2461 23.319 50.6541 22.707C51.0621 22.083 51.6141 21.603 52.3101 21.267C53.0061 20.931 53.7861 20.763 54.6501 20.763ZM54.8301 26.883C55.5861 26.883 56.1981 26.679 56.6661 26.271C57.1461 25.863 57.3861 25.347 57.3861 24.723C57.3861 24.111 57.1521 23.607 56.6841 23.211C56.2281 22.803 55.5921 22.599 54.7761 22.599C54.0441 22.599 53.4501 22.797 52.9941 23.193C52.5381 23.577 52.3101 24.093 52.3101 24.741C52.3101 25.401 52.5381 25.923 52.9941 26.307C53.4501 26.691 54.0621 26.883 54.8301 26.883Z" fill="#505050"/>
<path d="M43.2631 39.0672V47.9712H42.4471V46.7232C42.1911 47.1472 41.8511 47.4712 41.4271 47.6952C41.0111 47.9192 40.5391 48.0312 40.0111 48.0312C39.4191 48.0312 38.8831 47.8952 38.4031 47.6232C37.9231 47.3512 37.5471 46.9712 37.2751 46.4832C37.0031 45.9952 36.8671 45.4392 36.8671 44.8152C36.8671 44.1912 37.0031 43.6352 37.2751 43.1472C37.5471 42.6592 37.9231 42.2832 38.4031 42.0192C38.8831 41.7472 39.4191 41.6112 40.0111 41.6112C40.5231 41.6112 40.9831 41.7192 41.3911 41.9352C41.8071 42.1432 42.1471 42.4512 42.4111 42.8592V39.0672H43.2631ZM40.0831 47.2752C40.5231 47.2752 40.9191 47.1752 41.2711 46.9752C41.6311 46.7672 41.9111 46.4752 42.1111 46.0992C42.3191 45.7232 42.4231 45.2952 42.4231 44.8152C42.4231 44.3352 42.3191 43.9072 42.1111 43.5312C41.9111 43.1552 41.6311 42.8672 41.2711 42.6672C40.9191 42.4592 40.5231 42.3552 40.0831 42.3552C39.6351 42.3552 39.2311 42.4592 38.8711 42.6672C38.5191 42.8672 38.2391 43.1552 38.0311 43.5312C37.8311 43.9072 37.7311 44.3352 37.7311 44.8152C37.7311 45.2952 37.8311 45.7232 38.0311 46.0992C38.2391 46.4752 38.5191 46.7672 38.8711 46.9752C39.2311 47.1752 39.6351 47.2752 40.0831 47.2752ZM47.8439 41.6112C48.6679 41.6112 49.2999 41.8192 49.7399 42.2352C50.1799 42.6432 50.3999 43.2512 50.3999 44.0592V47.9712H49.5839V46.9872C49.3919 47.3152 49.1079 47.5712 48.7319 47.7552C48.3639 47.9392 47.9239 48.0312 47.4119 48.0312C46.7079 48.0312 46.1479 47.8632 45.7319 47.5272C45.3159 47.1912 45.1079 46.7472 45.1079 46.1952C45.1079 45.6592 45.2999 45.2272 45.6839 44.8992C46.0759 44.5712 46.6959 44.4072 47.5439 44.4072H49.5479V44.0232C49.5479 43.4792 49.3959 43.0672 49.0919 42.7872C48.7879 42.4992 48.3439 42.3552 47.7599 42.3552C47.3599 42.3552 46.9759 42.4232 46.6079 42.5592C46.2399 42.6872 45.9239 42.8672 45.6599 43.0992L45.2759 42.4632C45.5959 42.1912 45.9799 41.9832 46.4279 41.8392C46.8759 41.6872 47.3479 41.6112 47.8439 41.6112ZM47.5439 47.3592C48.0239 47.3592 48.4359 47.2512 48.7799 47.0352C49.1239 46.8112 49.3799 46.4912 49.5479 46.0752V45.0432H47.5679C46.4879 45.0432 45.9479 45.4192 45.9479 46.1712C45.9479 46.5392 46.0879 46.8312 46.3679 47.0472C46.6479 47.2552 47.0399 47.3592 47.5439 47.3592ZM57.9009 41.6592L54.7449 48.7272C54.4889 49.3192 54.1929 49.7392 53.8569 49.9872C53.5209 50.2352 53.1169 50.3592 52.6449 50.3592C52.3409 50.3592 52.0569 50.3112 51.7929 50.2152C51.5289 50.1192 51.3009 49.9752 51.1089 49.7832L51.5049 49.1472C51.8249 49.4672 52.2089 49.6272 52.6569 49.6272C52.9449 49.6272 53.1889 49.5472 53.3889 49.3872C53.5969 49.2272 53.7889 48.9552 53.9649 48.5712L54.2409 47.9592L51.4209 41.6592H52.3089L54.6849 47.0232L57.0609 41.6592H57.9009ZM60.7225 48.0312C60.2105 48.0312 59.7185 47.9592 59.2465 47.8152C58.7825 47.6632 58.4185 47.4752 58.1545 47.2512L58.5385 46.5792C58.8025 46.7872 59.1345 46.9592 59.5345 47.0952C59.9345 47.2232 60.3505 47.2872 60.7825 47.2872C61.3585 47.2872 61.7825 47.1992 62.0545 47.0232C62.3345 46.8392 62.4745 46.5832 62.4745 46.2552C62.4745 46.0232 62.3985 45.8432 62.2465 45.7152C62.0945 45.5792 61.9025 45.4792 61.6705 45.4152C61.4385 45.3432 61.1305 45.2752 60.7465 45.2112C60.2345 45.1152 59.8225 45.0192 59.5105 44.9232C59.1985 44.8192 58.9305 44.6472 58.7065 44.4072C58.4905 44.1672 58.3825 43.8352 58.3825 43.4112C58.3825 42.8832 58.6025 42.4512 59.0425 42.1152C59.4825 41.7792 60.0945 41.6112 60.8785 41.6112C61.2865 41.6112 61.6945 41.6672 62.1025 41.7792C62.5105 41.8832 62.8465 42.0232 63.1105 42.1992L62.7385 42.8832C62.2185 42.5232 61.5985 42.3432 60.8785 42.3432C60.3345 42.3432 59.9225 42.4392 59.6425 42.6312C59.3705 42.8232 59.2345 43.0752 59.2345 43.3872C59.2345 43.6272 59.3105 43.8192 59.4625 43.9632C59.6225 44.1072 59.8185 44.2152 60.0505 44.2872C60.2825 44.3512 60.6025 44.4192 61.0105 44.4912C61.5145 44.5872 61.9185 44.6832 62.2225 44.7792C62.5265 44.8752 62.7865 45.0392 63.0025 45.2712C63.2185 45.5032 63.3265 45.8232 63.3265 46.2312C63.3265 46.7832 63.0945 47.2232 62.6305 47.5512C62.1745 47.8712 61.5385 48.0312 60.7225 48.0312Z" fill="#505050"/>
<defs>
<linearGradient id="paint0_linear_2267_6126" x1="50.5" y1="68" x2="50.5" y2="-4.65702e-06" gradientUnits="userSpaceOnUse">
<stop stop-color="#93C1FA"/>
<stop offset="1" stop-color="#A499F8"/>
</linearGradient>
</defs>
</svg>
