<svg width="68" height="68" viewBox="0 0 68 68" fill="none" xmlns="http://www.w3.org/2000/svg">
<path d="M67.0286 33.9998C67.0286 52.2409 52.2412 67.0283 34 67.0283C15.7588 67.0283 0.971436 52.2409 0.971436 33.9998C0.971436 15.7586 15.7588 0.971191 34 0.971191C52.2412 0.971191 67.0286 15.7586 67.0286 33.9998ZM2.95315 33.9998C2.95315 51.1465 16.8533 65.0466 34 65.0466C51.1467 65.0466 65.0469 51.1465 65.0469 33.9998C65.0469 16.8531 51.1467 2.95291 34 2.95291C16.8533 2.95291 2.95315 16.8531 2.95315 33.9998Z" fill="#F8F8F8"/>
<path d="M1.87001 34C0.837232 34 -0.00535873 34.8379 0.0514041 35.8691C0.385435 41.9372 2.34106 47.8174 5.73004 52.8894C9.46601 58.4807 14.7761 62.8385 20.9888 65.4119C27.2015 67.9853 34.0377 68.6586 40.6331 67.3467C47.2284 66.0348 53.2866 62.7966 58.0416 58.0416C62.7966 53.2866 66.0348 47.2284 67.3467 40.6331C68.6586 34.0377 67.9853 27.2014 65.4119 20.9888C62.8385 14.7761 58.4807 9.466 52.8894 5.73003C47.8174 2.34104 41.9371 0.385424 35.8691 0.0513944C34.8379 -0.00536819 34 0.837222 34 1.87C34 2.90277 34.8381 3.73397 35.8689 3.79776C41.1967 4.12739 46.3547 5.86179 50.8116 8.83973C55.7878 12.1647 59.6663 16.8907 61.9566 22.42C64.2469 27.9493 64.8461 34.0336 63.6786 39.9034C62.511 45.7733 59.629 51.1651 55.3971 55.3971C51.1651 59.629 45.7733 62.511 39.9034 63.6786C34.0336 64.8462 27.9493 64.2469 22.42 61.9566C16.8907 59.6663 12.1647 55.7878 8.83974 50.8116C5.8618 46.3548 4.12739 41.1967 3.79776 35.8689C3.73398 34.8381 2.90278 34 1.87001 34Z" fill="url(#paint0_linear_2267_6139)"/>
<path d="M32.5515 31.563V33.543H23.2635V31.977L28.2675 27.225C28.8315 26.685 29.2095 26.217 29.4015 25.821C29.6055 25.413 29.7075 25.011 29.7075 24.615C29.7075 24.027 29.5095 23.577 29.1135 23.265C28.7175 22.953 28.1355 22.797 27.3675 22.797C26.0835 22.797 25.0995 23.235 24.4155 24.111L22.7775 22.851C23.2695 22.191 23.9295 21.681 24.7575 21.321C25.5975 20.949 26.5335 20.763 27.5655 20.763C28.9335 20.763 30.0255 21.087 30.8415 21.735C31.6575 22.383 32.0655 23.265 32.0655 24.381C32.0655 25.065 31.9215 25.707 31.6335 26.307C31.3455 26.907 30.7935 27.591 29.9775 28.359L26.6115 31.563H32.5515ZM38.1501 20.763C39.8781 20.763 41.2161 21.303 42.1641 22.383C43.1241 23.463 43.6041 25.011 43.6041 27.027C43.6041 28.443 43.3461 29.655 42.8301 30.663C42.3141 31.659 41.5881 32.421 40.6521 32.949C39.7281 33.465 38.6541 33.723 37.4301 33.723C36.7821 33.723 36.1701 33.657 35.5941 33.525C35.0301 33.381 34.5381 33.177 34.1181 32.913L34.9821 31.149C35.6061 31.557 36.4041 31.761 37.3761 31.761C38.5881 31.761 39.5361 31.389 40.2201 30.645C40.9041 29.901 41.2461 28.827 41.2461 27.423V27.405C40.8741 27.837 40.4001 28.167 39.8241 28.395C39.2481 28.611 38.6001 28.719 37.8801 28.719C37.0521 28.719 36.3081 28.563 35.6481 28.251C34.9881 27.927 34.4721 27.471 34.1001 26.883C33.7281 26.295 33.5421 25.617 33.5421 24.849C33.5421 24.033 33.7461 23.319 34.1541 22.707C34.5621 22.083 35.1141 21.603 35.8101 21.267C36.5061 20.931 37.2861 20.763 38.1501 20.763ZM38.3301 26.883C39.0861 26.883 39.6981 26.679 40.1661 26.271C40.6461 25.863 40.8861 25.347 40.8861 24.723C40.8861 24.111 40.6521 23.607 40.1841 23.211C39.7281 22.803 39.0921 22.599 38.2761 22.599C37.5441 22.599 36.9501 22.797 36.4941 23.193C36.0381 23.577 35.8101 24.093 35.8101 24.741C35.8101 25.401 36.0381 25.923 36.4941 26.307C36.9501 26.691 37.5621 26.883 38.3301 26.883Z" fill="#505050"/>
<path d="M26.7631 39.0672V47.9712H25.9471V46.7232C25.6911 47.1472 25.3511 47.4712 24.9271 47.6952C24.5111 47.9192 24.0391 48.0312 23.5111 48.0312C22.9191 48.0312 22.3831 47.8952 21.9031 47.6232C21.4231 47.3512 21.0471 46.9712 20.7751 46.4832C20.5031 45.9952 20.3671 45.4392 20.3671 44.8152C20.3671 44.1912 20.5031 43.6352 20.7751 43.1472C21.0471 42.6592 21.4231 42.2832 21.9031 42.0192C22.3831 41.7472 22.9191 41.6112 23.5111 41.6112C24.0231 41.6112 24.4831 41.7192 24.8911 41.9352C25.3071 42.1432 25.6471 42.4512 25.9111 42.8592V39.0672H26.7631ZM23.5831 47.2752C24.0231 47.2752 24.4191 47.1752 24.7711 46.9752C25.1311 46.7672 25.4111 46.4752 25.6111 46.0992C25.8191 45.7232 25.9231 45.2952 25.9231 44.8152C25.9231 44.3352 25.8191 43.9072 25.6111 43.5312C25.4111 43.1552 25.1311 42.8672 24.7711 42.6672C24.4191 42.4592 24.0231 42.3552 23.5831 42.3552C23.1351 42.3552 22.7311 42.4592 22.3711 42.6672C22.0191 42.8672 21.7391 43.1552 21.5311 43.5312C21.3311 43.9072 21.2311 44.3352 21.2311 44.8152C21.2311 45.2952 21.3311 45.7232 21.5311 46.0992C21.7391 46.4752 22.0191 46.7672 22.3711 46.9752C22.7311 47.1752 23.1351 47.2752 23.5831 47.2752ZM31.3439 41.6112C32.1679 41.6112 32.7999 41.8192 33.2399 42.2352C33.6799 42.6432 33.8999 43.2512 33.8999 44.0592V47.9712H33.0839V46.9872C32.8919 47.3152 32.6079 47.5712 32.2319 47.7552C31.8639 47.9392 31.4239 48.0312 30.9119 48.0312C30.2079 48.0312 29.6479 47.8632 29.2319 47.5272C28.8159 47.1912 28.6079 46.7472 28.6079 46.1952C28.6079 45.6592 28.7999 45.2272 29.1839 44.8992C29.5759 44.5712 30.1959 44.4072 31.0439 44.4072H33.0479V44.0232C33.0479 43.4792 32.8959 43.0672 32.5919 42.7872C32.2879 42.4992 31.8439 42.3552 31.2599 42.3552C30.8599 42.3552 30.4759 42.4232 30.1079 42.5592C29.7399 42.6872 29.4239 42.8672 29.1599 43.0992L28.7759 42.4632C29.0959 42.1912 29.4799 41.9832 29.9279 41.8392C30.3759 41.6872 30.8479 41.6112 31.3439 41.6112ZM31.0439 47.3592C31.5239 47.3592 31.9359 47.2512 32.2799 47.0352C32.6239 46.8112 32.8799 46.4912 33.0479 46.0752V45.0432H31.0679C29.9879 45.0432 29.4479 45.4192 29.4479 46.1712C29.4479 46.5392 29.5879 46.8312 29.8679 47.0472C30.1479 47.2552 30.5399 47.3592 31.0439 47.3592ZM41.4009 41.6592L38.2449 48.7272C37.9889 49.3192 37.6929 49.7392 37.3569 49.9872C37.0209 50.2352 36.6169 50.3592 36.1449 50.3592C35.8409 50.3592 35.5569 50.3112 35.2929 50.2152C35.0289 50.1192 34.8009 49.9752 34.6089 49.7832L35.0049 49.1472C35.3249 49.4672 35.7089 49.6272 36.1569 49.6272C36.4449 49.6272 36.6889 49.5472 36.8889 49.3872C37.0969 49.2272 37.2889 48.9552 37.4649 48.5712L37.7409 47.9592L34.9209 41.6592H35.8089L38.1849 47.0232L40.5609 41.6592H41.4009ZM44.2225 48.0312C43.7105 48.0312 43.2185 47.9592 42.7465 47.8152C42.2825 47.6632 41.9185 47.4752 41.6545 47.2512L42.0385 46.5792C42.3025 46.7872 42.6345 46.9592 43.0345 47.0952C43.4345 47.2232 43.8505 47.2872 44.2825 47.2872C44.8585 47.2872 45.2825 47.1992 45.5545 47.0232C45.8345 46.8392 45.9745 46.5832 45.9745 46.2552C45.9745 46.0232 45.8985 45.8432 45.7465 45.7152C45.5945 45.5792 45.4025 45.4792 45.1705 45.4152C44.9385 45.3432 44.6305 45.2752 44.2465 45.2112C43.7345 45.1152 43.3225 45.0192 43.0105 44.9232C42.6985 44.8192 42.4305 44.6472 42.2065 44.4072C41.9905 44.1672 41.8825 43.8352 41.8825 43.4112C41.8825 42.8832 42.1025 42.4512 42.5425 42.1152C42.9825 41.7792 43.5945 41.6112 44.3785 41.6112C44.7865 41.6112 45.1945 41.6672 45.6025 41.7792C46.0105 41.8832 46.3465 42.0232 46.6105 42.1992L46.2385 42.8832C45.7185 42.5232 45.0985 42.3432 44.3785 42.3432C43.8345 42.3432 43.4225 42.4392 43.1425 42.6312C42.8705 42.8232 42.7345 43.0752 42.7345 43.3872C42.7345 43.6272 42.8105 43.8192 42.9625 43.9632C43.1225 44.1072 43.3185 44.2152 43.5505 44.2872C43.7825 44.3512 44.1025 44.4192 44.5105 44.4912C45.0145 44.5872 45.4185 44.6832 45.7225 44.7792C46.0265 44.8752 46.2865 45.0392 46.5025 45.2712C46.7185 45.5032 46.8265 45.8232 46.8265 46.2312C46.8265 46.7832 46.5945 47.2232 46.1305 47.5512C45.6745 47.8712 45.0385 48.0312 44.2225 48.0312Z" fill="#505050"/>
<defs>
<linearGradient id="paint0_linear_2267_6139" x1="34" y1="68" x2="34" y2="-4.65702e-06" gradientUnits="userSpaceOnUse">
<stop stop-color="#93C1FA"/>
<stop offset="1" stop-color="#A499F8"/>
</linearGradient>
</defs>
</svg>
