<svg width="16" height="16" viewBox="0 0 16 16" fill="none" xmlns="http://www.w3.org/2000/svg">
<rect width="16" height="16" rx="8" fill="#BFFF00"/>
<path d="M6.87066 9.47834C7.26521 9.04807 7.65254 8.63171 8.03422 8.20875C8.80072 7.35969 9.56472 6.5082 10.3281 5.65566C10.4389 5.53194 10.5647 5.47007 10.7195 5.51421C11.0054 5.59588 11.0952 5.97506 10.8833 6.21626C10.5833 6.5579 10.2779 6.89397 9.97433 7.23214C9.05277 8.25845 8.13121 9.2851 7.20934 10.3111C6.98366 10.5623 6.79219 10.5627 6.56368 10.3138C6.0894 9.79704 5.61544 9.28024 5.14179 8.76274C4.96664 8.57159 4.95252 8.31197 5.10632 8.13993C5.25981 7.96824 5.49365 7.98145 5.66943 8.1726C6.04609 8.58271 6.42275 8.99316 6.79941 9.40327C6.8242 9.43038 6.84963 9.45644 6.87066 9.47834Z" fill="#293133"/>
</svg>
