<svg width="220" height="82" viewBox="0 0 220 82" fill="none" xmlns="http://www.w3.org/2000/svg">
<g clip-path="url(#clip0_429_14558)">
<path d="M65.3175 41.2883C65.009 40.6692 64.1876 40.1636 63.4922 40.1636H62.08C61.3862 40.1636 60.5743 40.675 60.2743 41.2988L49.0744 64.6294C48.7632 65.2465 49.1015 65.6885 49.7966 65.6885H52.3848C53.4067 65.6885 53.8749 65.2251 54.1514 64.6575C54.4287 64.0899 55.0459 62.8556 55.1642 62.604C55.3237 62.2635 55.8161 62.0548 56.5099 62.0555L68.5604 62.0617C69.2549 62.0631 69.7012 62.1947 69.9067 62.604C70.0408 62.8705 70.6566 63.9806 70.9593 64.5863C71.2647 65.1919 71.7774 65.6885 72.7729 65.6885H76.5282C77.2227 65.6885 77.527 65.1629 77.277 64.6747C77.0255 64.1856 65.3173 41.2883 65.3173 41.2883H65.3175ZM58.2418 58.4522C57.548 58.4522 57.2211 57.9368 57.5131 57.3107L61.9263 47.8832C62.2201 47.2553 62.6951 47.2597 62.9814 47.8874L67.2783 57.3147C67.5646 57.9435 67.2317 58.4587 66.5386 58.4587L58.2418 58.4522ZM151.86 41.4687V64.6143C151.86 65.2516 152.428 65.6885 153.123 65.6885H156.183C156.877 65.6885 157.445 65.2465 157.445 64.554V41.422C157.445 40.7289 156.997 40.1643 156.303 40.1643H153.123C152.428 40.1636 151.86 40.5896 151.86 41.4687ZM100.572 55.9664C100.173 55.3997 100.392 54.7741 101.056 54.5763C101.056 54.5763 103.701 53.787 104.967 52.6554C106.233 51.5202 106.87 49.8817 106.87 47.746C106.87 46.3495 106.625 45.1755 106.137 44.2203C105.65 43.2676 104.951 42.4878 104.041 41.8912C103.132 41.2913 102.043 40.8512 100.775 40.5756C99.5057 40.3013 97.7926 40.2212 97.7926 40.2212C96.9524 40.1863 96.1115 40.1672 95.2705 40.1638H82.5607C81.8674 40.1638 81.2993 40.7284 81.2993 41.4216V64.5542C81.2993 65.2472 81.8669 65.6887 82.5607 65.6887H85.5684C86.2627 65.6887 86.8303 65.2467 86.8303 64.5542C86.8303 64.5542 86.8324 55.3533 86.838 55.3533C86.8431 55.3533 86.8464 55.3484 86.8464 55.3419C86.8464 55.3343 92.548 55.3278 92.548 55.3278C93.2413 55.3278 94.1367 55.7902 94.5381 56.3566L100.457 64.6666C101.007 65.4025 101.53 65.6885 102.224 65.6885H106.156C106.85 65.6885 106.959 65.0357 106.719 64.6968C106.481 64.3597 100.572 55.9664 100.572 55.9664ZM98.1789 51.2681C97.3999 51.4468 96.5233 51.4826 96.5233 51.4826C95.683 51.516 94.8422 51.5343 94.0012 51.5374H88.1096C87.4151 51.5374 86.8475 50.9707 86.8475 50.2789V45.592C86.8475 44.8997 87.4151 44.3338 88.1094 44.3338H94.001C94.6955 44.3338 95.8298 44.3586 96.5231 44.3876C96.5231 44.3876 97.3999 44.422 98.1786 44.6014C98.9574 44.7807 99.5755 45.0307 100.027 45.3533C100.481 45.6783 100.805 46.0593 101.002 46.4976C101.195 46.9359 101.293 47.4127 101.293 47.9338C101.293 48.4522 101.195 48.9323 101.002 49.3696C100.805 49.8079 100.482 50.1886 100.027 50.5136C99.5755 50.8386 98.9576 51.0919 98.1789 51.2681ZM189.437 40.1636C188.743 40.1636 188.182 40.6195 188.182 41.2865L188.189 56.0832C188.189 56.7768 187.796 56.9342 187.315 56.4358L172.456 41.068C171.973 40.5696 171.267 40.1636 170.316 40.1636H167.522C166.643 40.1636 166.259 40.6311 166.259 41.1047V64.7662C166.259 65.2383 166.71 65.6887 167.405 65.6887H170.204C170.896 65.6887 171.382 65.3124 171.382 64.6749C171.382 64.3553 171.396 49.0871 171.396 49.0871C171.396 48.3953 171.789 48.2375 172.269 48.737L187.763 64.7973C188.255 65.2885 188.853 65.6889 189.916 65.6889H192.018C192.714 65.6889 193.281 65.123 193.281 64.4305V41.4225C193.281 40.7293 192.714 40.1648 192.019 40.1648H189.437V40.1636ZM128.855 54.5916C128.518 55.1961 127.963 55.1943 127.631 54.5884L120.368 41.2883C120.059 40.6711 119.426 40.1636 118.543 40.1636H114.604C113.91 40.1636 113.341 40.7282 113.341 41.4213V64.5245C113.341 65.2156 113.797 65.6885 114.604 65.6885H117.053C117.748 65.6885 118.249 65.2516 118.249 64.5842C118.249 64.2643 118.259 47.7808 118.285 47.7808C118.312 47.7808 127.351 64.5795 127.351 64.5795C127.678 65.1891 128.481 65.1919 128.815 64.5846C128.815 64.5846 137.928 47.8287 137.955 47.8287C137.983 47.8287 137.973 64.1027 137.973 64.5839C137.973 65.252 138.508 65.6882 139.203 65.6882H142.024C142.718 65.6882 143.285 65.3433 143.285 64.4298V41.4218C143.284 41.0884 143.151 40.7688 142.915 40.5331C142.678 40.2973 142.358 40.1646 142.024 40.1641H138.247C137.283 40.1641 136.704 40.6541 136.359 41.2558L128.855 54.5916H128.855ZM16.8743 52.9035C16.8743 65.3679 29.6605 66 32.224 66C40.7089 66 44.2945 63.7139 44.4433 63.6152C44.9739 63.3158 45.6202 62.712 45.6202 61.5807V52.9773C45.6196 52.596 45.4674 52.2305 45.197 51.9609C44.9265 51.6913 44.5598 51.5396 44.1774 51.5392H33.5177C32.7208 51.5392 32.1977 52.1848 32.1977 52.9773V53.8683C32.1977 54.6622 32.7208 55.3097 33.5177 55.3097H39.6832C39.9692 55.3097 40.2435 55.423 40.4459 55.6246C40.6482 55.8262 40.762 56.0997 40.7623 56.3849C40.7623 56.3849 40.7564 60.1561 40.7564 60.3949C39.5383 60.8908 33.9904 62.507 29.5329 61.447C23.0664 59.9047 22.5624 54.5854 22.5624 52.992C22.5624 51.6546 22.9647 44.9552 30.9063 44.2776C37.3343 43.7291 41.5678 46.3167 41.6097 46.3423C42.3652 46.7327 43.1472 46.4544 43.5686 45.6568C43.5705 45.6505 44.3707 44.0364 44.3707 44.0364C44.7036 43.3723 44.5914 42.6835 43.7786 42.1338C43.7244 42.1029 39.218 39.6666 32.2256 39.6666C17.3043 39.6673 16.8743 51.5487 16.8743 52.9035ZM197.291 62.5109H196.192V62.1158H198.866V62.5109H197.762V65.7154H197.291L197.291 62.5109ZM202.578 64.1347C202.551 63.6324 202.519 63.0235 202.519 62.5803H202.508C202.368 63.04 202.217 63.496 202.053 63.9479L201.415 65.6938H201.062L200.472 63.9801C200.301 63.4676 200.163 63.0077 200.06 62.5806H200.049C200.034 63.1114 200.011 63.642 199.979 64.1721L199.883 65.7149H199.439L199.691 62.1153H200.285L200.902 63.8564C201.038 64.2561 201.159 64.6605 201.266 65.0689H201.277C201.372 64.7058 201.501 64.3107 201.662 63.8564L202.305 62.1153H202.9L203.126 65.7149H202.664L202.578 64.1347Z" fill="black"/>
<path d="M188.024 33.7848L171.28 33.7841C170.666 33.7841 170.139 33.4795 169.833 32.9498C169.526 32.4198 169.526 31.8135 169.833 31.2835L178.206 16.8325C178.513 16.3032 179.039 16 179.653 16C180.266 16 180.793 16.3032 181.1 16.8325L189.471 31.2842C189.779 31.8142 189.779 32.421 189.472 32.951C189.165 33.4802 188.638 33.7848 188.024 33.7848Z" fill="#007CC2"/>
</g>
<defs>
<clipPath id="clip0_429_14558">
<rect width="186.275" height="50" fill="white" transform="translate(16.8627 16)"/>
</clipPath>
</defs>
</svg>
