<svg width="22" height="24" viewBox="0 0 22 24" fill="none" xmlns="http://www.w3.org/2000/svg">
<path d="M20.2721 4.93691L12.4408 0.388857C12.0023 0.134113 11.5049 0 10.9986 0C10.4923 0 9.99498 0.134113 9.55651 0.388857L1.72777 4.93691C1.28911 5.19147 0.924855 5.55784 0.67168 5.99914C0.418505 6.44044 0.28536 6.94109 0.285645 7.45065V16.5493C0.28536 17.0589 0.418505 17.5596 0.67168 18.0009C0.924855 18.4422 1.28911 18.8085 1.72777 19.0631L9.55651 23.6111C9.99498 23.8659 10.4923 24 10.9986 24C11.5049 24 12.0023 23.8659 12.4408 23.6111L14.6632 22.3154L20.2721 19.0579C20.7104 18.8029 21.0744 18.4365 21.3275 17.9953C21.5806 17.5541 21.714 17.0536 21.7142 16.5442V7.45065C21.714 6.94119 21.5806 6.44075 21.3275 5.99954C21.0744 5.55833 20.7104 5.19187 20.2721 4.93691Z" fill="#F9EBEB"/>
<path fill-rule="evenodd" clip-rule="evenodd" d="M14.9498 1.75418C14.9424 1.745 14.9307 1.73233 14.9239 1.72604C14.917 1.71975 14.91 1.71454 14.9083 1.71445C14.9066 1.71436 14.9003 1.72586 14.8944 1.73999L14.8836 1.76571L14.8592 1.73999C14.8458 1.72586 14.8329 1.71429 14.8305 1.71429C14.8282 1.71429 14.8233 1.72292 14.8197 1.73347C14.8161 1.74402 14.8102 1.75759 14.8065 1.76365C14.7999 1.77446 14.7994 1.77422 14.7753 1.74958C14.7619 1.73579 14.7486 1.72452 14.7456 1.72452C14.7427 1.72452 14.739 1.73092 14.7373 1.73875C14.7356 1.74658 14.729 1.76191 14.7226 1.77282L14.7109 1.79265L14.7018 1.77776C14.6888 1.75654 14.6697 1.73286 14.6619 1.7282C14.6572 1.72539 14.652 1.73068 14.6445 1.7461C14.6264 1.78302 14.6257 1.78327 14.6051 1.76041C14.595 1.74911 14.5843 1.73986 14.5813 1.73986C14.5784 1.73986 14.5713 1.74766 14.5655 1.75719C14.5467 1.78853 14.5417 1.78998 14.5249 1.76902C14.5041 1.74314 14.4887 1.74016 14.4024 1.74528C14.3182 1.75028 14.3016 1.75214 14.219 1.76588C13.9747 1.80651 13.7456 1.88671 13.5814 1.98915C13.3695 2.12127 13.232 2.28434 13.155 2.49498C13.1198 2.5911 13.1037 2.6818 13.0947 2.83441C13.0916 2.88648 13.0892 2.96362 13.0892 3.00581C13.0894 3.15206 13.1031 3.20603 13.1972 3.43212C13.2802 3.63137 13.3057 3.69692 13.3431 3.80631C13.4238 4.04275 13.4643 4.25128 13.4643 4.4303C13.4643 4.46981 13.4699 4.52151 13.4758 4.57571C13.4868 4.6765 13.4987 4.78592 13.477 4.84161L13.4642 4.87452L13.3963 4.84714C13.3863 4.84542 13.3743 4.84294 13.3696 4.84161C13.363 4.83974 13.3264 4.89272 13.2413 5.07642C13.1412 5.23092 13.1126 5.33436 13.1162 5.33663C13.1193 5.33858 13.1286 5.33741 13.1372 5.33633C13.1458 5.33524 13.1537 5.33425 13.1537 5.33663C13.2697 5.33663 13.2227 5.40121 13.1564 5.47646C13.0441 5.55203 12.8779 5.70549 12.5614 6.01084C12.4144 6.13515 12.2984 6.40323 12.1904 6.75175C12.1696 6.81874 12.1413 6.92693 12.1162 7.02262C12.0953 7.10206 12.0768 7.17287 12.0667 7.20435C11.984 7.46224 11.841 8.05364 11.9141 8.53986C11.9754 8.94852 11.979 9.14807 11.9343 9.6887C11.9314 9.7234 11.8859 9.83527 11.8331 9.93726C11.7417 10.1141 11.6956 10.1881 11.572 10.3074C11.4483 10.5461 11.2009 10.7848 11.0822 10.88C11.0347 10.9894 10.9767 11.0406 10.8571 11.0785C10.5816 11.1661 10.3526 11.4118 10.1455 11.8422C10.042 12.0572 9.90739 12.3372 9.84627 12.4644C9.72804 12.7107 9.28592 13.1556 8.73213 13.5857C8.56925 13.7122 8.38968 13.8855 8.3331 13.9707C8.22177 14.1383 7.59423 14.7365 7.34619 14.9115C7.06582 15.1092 6.42884 15.3517 6.05729 15.4022C5.78968 15.4386 5.60386 15.499 5.26459 15.6598C4.79766 15.8811 4.02371 16.3906 3.54568 16.7914C3.2713 17.0215 2.90053 17.2934 2.66966 17.4339C2.60876 17.4709 2.47113 17.5119 2.36382 17.5249C1.59948 17.6176 1.32444 17.7141 1.20844 17.93C1.13093 18.0743 1.11918 18.5413 1.1886 18.7176C1.21421 18.7827 1.27437 18.8762 1.32226 18.9254C1.42668 19.0328 1.55068 19.6463 1.51262 19.8675C1.46356 20.1528 1.7496 20.4126 2.186 20.4792C2.42918 20.5163 3.04628 20.4342 3.18601 20.3461C3.27344 20.2909 3.28742 20.2561 3.26518 20.1491C3.23765 20.0167 3.1262 19.8663 3.05555 19.8663C2.95208 19.8663 2.80497 19.6286 2.80366 19.4591C2.80248 19.3122 2.82315 19.2689 2.92915 19.1963C2.99897 19.1485 3.07066 19.1093 3.08849 19.1093C3.15206 19.1093 3.50133 18.8083 3.50133 18.7535C3.50133 18.6713 3.39416 18.646 3.23368 18.6903C3.06581 18.7366 3.04655 18.7251 3.08696 18.6025C3.14494 18.4266 3.6006 18.0427 3.9455 17.8792C4.12844 17.7924 4.28979 17.7214 4.30403 17.7214C4.31832 17.7214 4.73828 17.5483 5.23733 17.3366C6.16036 16.9451 6.50674 16.8284 6.97481 16.7515C7.32539 16.6938 7.4718 16.6476 7.93603 16.4483C8.86242 16.0506 9.39978 15.7654 9.87274 15.4202C9.99818 15.3286 10.1105 15.2822 10.2065 15.2822C10.368 15.2822 11.1494 15.0958 11.2944 15.0227C11.3457 14.9968 11.477 14.8867 11.5861 14.7781C11.7657 14.5993 11.8334 14.5657 12.2996 14.4244C12.7893 14.2759 12.8268 14.2707 13.0624 14.3175C13.3067 14.3661 13.6958 14.5296 13.7434 14.6036C13.7568 14.6245 13.8546 14.6542 13.9607 14.6695C14.1131 14.6915 14.2114 14.6748 14.4276 14.5902C14.6676 14.4964 14.7653 14.4831 15.2179 14.4831C15.6018 14.4831 15.8831 14.4545 16.3136 14.3717C16.8881 14.2611 17.7821 14.2107 17.8589 14.2845C17.8776 14.3025 17.8694 14.4267 17.8406 14.5604C17.7586 14.9432 17.7758 15.6301 17.8767 15.9971C17.9971 16.4347 18.0821 17.0957 18.1407 18.0499C18.1873 18.8093 18.1855 18.8673 18.1126 18.9449C18.0042 19.0601 17.8757 19.8007 17.9243 20.0295C17.9674 20.2322 18.1596 20.4051 18.3739 20.4339C18.613 20.466 20.1056 20.5454 20.8687 20.5664C21.5808 20.5861 21.6907 20.5559 21.7129 20.3346C21.727 20.1933 21.6281 20.0345 21.5258 20.0345C21.4982 20.0345 21.4097 19.9878 21.3292 19.9306C21.2487 19.8735 21.0862 19.7958 20.968 19.758C20.8499 19.7203 20.7432 19.6639 20.7308 19.6329C20.7087 19.5776 20.0931 19.1187 19.9898 19.0806C19.9127 19.0521 19.8521 18.8691 19.8259 18.5861C19.7974 18.2771 19.6924 18.1262 19.4928 18.1074C19.3488 18.0937 19.3488 18.0937 19.3749 17.6027C19.3892 17.3326 19.4301 16.9318 19.4658 16.7121C19.6074 15.8392 19.6725 15.0856 19.6806 14.2257C19.6908 13.1398 19.6735 13.0872 19.2093 12.7982C19.0526 12.7007 18.9245 12.6069 18.9245 12.5899C18.9245 12.5728 18.954 12.5353 18.99 12.5065C19.0866 12.4293 19.0698 12.244 18.9508 12.0753C18.8932 11.9936 18.8324 11.8632 18.8158 11.7855C18.7991 11.7079 18.7589 11.5666 18.7265 11.4717C18.6942 11.3768 18.6148 11.0551 18.5502 10.7568C18.4855 10.4585 18.3947 10.1198 18.3482 10.0041C18.2551 9.7724 17.8721 9.03696 17.724 8.80552C17.6722 8.72457 17.5839 8.53855 17.5277 8.39211C17.4047 8.0711 17.1841 7.73751 16.8666 7.39243C16.7369 7.25134 16.5056 6.96304 16.3528 6.75175C15.8395 6.04213 15.7169 5.94338 15.0863 5.73129C15.058 5.72176 15.0191 5.71332 14.9721 5.70559C14.9539 5.68235 14.9346 5.65888 14.9141 5.63491C14.8762 5.59064 14.8557 5.5614 14.8404 5.53005C14.8181 5.48441 14.7993 5.41888 14.7993 5.38655C14.7993 5.35999 14.8166 5.30529 14.8325 5.28145C14.8398 5.27048 14.8579 5.23527 14.8727 5.20321C14.9285 5.08214 14.9667 5.04579 15.0676 5.01738C15.1225 5.0019 15.263 5.00226 15.3996 5.01822C15.5827 5.03963 15.6242 5.03074 15.6951 4.95499C15.7456 4.90092 15.761 4.86944 15.7644 4.81272C15.7674 4.76401 15.7563 4.70978 15.7278 4.63414C15.7185 4.60947 15.7109 4.58118 15.7109 4.57126C15.7109 4.54872 15.7288 4.52707 15.7632 4.50804C15.7872 4.4948 15.7882 4.49335 15.7897 4.47006C15.7911 4.44685 15.7814 4.41687 15.7649 4.39364C15.7596 4.38627 15.7639 4.38022 15.7953 4.35016C15.8514 4.2965 15.8564 4.27479 15.8279 4.20788C15.8184 4.18541 15.8106 4.16124 15.8107 4.15417C15.8109 4.13133 15.8347 4.0702 15.8481 4.05822C15.8594 4.0481 15.8665 4.04669 15.9067 4.0466C15.9595 4.04647 15.9848 4.0375 16.0063 4.01124C16.0238 3.98986 16.0265 3.97728 16.0236 3.93101C16.0215 3.8959 16.0182 3.88647 15.9834 3.81502C15.9287 3.70246 15.8556 3.5807 15.7356 3.40228C15.7114 3.36623 15.71 3.36254 15.7126 3.33985C15.7141 3.32658 15.7187 3.31045 15.7228 3.30399C15.7333 3.2872 15.7697 3.16233 15.7751 3.12461C15.783 3.06902 15.7788 2.85856 15.7688 2.80949C15.7484 2.709 15.6997 2.57361 15.6534 2.48837C15.6439 2.47103 15.6362 2.45474 15.6362 2.45216C15.6362 2.44957 15.6454 2.43729 15.6566 2.42486C15.6819 2.39672 15.7167 2.34252 15.7272 2.31487C15.7424 2.2748 15.7515 2.21524 15.748 2.17987C15.7414 2.11563 15.7047 2.01302 15.6647 1.9476L15.6526 1.92772L15.6492 1.94248C15.6474 1.9506 15.6433 1.96371 15.6403 1.9716C15.6349 1.98573 15.6344 1.98523 15.6126 1.93964C15.5915 1.89556 15.5814 1.88325 15.5814 1.90167C15.5814 1.91343 15.5705 1.94958 15.5669 1.94955C15.5653 1.94954 15.5599 1.93931 15.5549 1.92681C15.5454 1.90311 15.5124 1.86099 15.4964 1.85223C15.4884 1.84781 15.4865 1.84989 15.4817 1.86799L15.4763 1.88883L15.4437 1.85271C15.4258 1.83284 15.4093 1.81659 15.4072 1.81659C15.405 1.81659 15.4016 1.8252 15.3997 1.83573C15.3945 1.86418 15.3926 1.86482 15.3773 1.84321C15.3697 1.83232 15.3547 1.81608 15.3441 1.80712C15.3225 1.78881 15.3211 1.78987 15.3148 1.82931L15.3115 1.8497L15.3011 1.83442C15.2954 1.82602 15.2793 1.80765 15.2655 1.79361L15.2402 1.76809L15.2366 1.79821C15.2345 1.81478 15.2321 1.82915 15.2312 1.83013C15.2302 1.83112 15.2221 1.8204 15.2133 1.80631C15.1976 1.78148 15.1699 1.75521 15.1594 1.75521C15.1565 1.75521 15.1517 1.76556 15.1486 1.77822C15.1454 1.79088 15.1413 1.80112 15.1392 1.80096C15.1372 1.80081 15.1289 1.7902 15.1206 1.77739C15.1124 1.76458 15.0985 1.74957 15.0897 1.74404L15.0737 1.73398L15.0705 1.74843C15.0688 1.75638 15.0652 1.7718 15.0625 1.78271L15.0576 1.80255L15.0411 1.77736C15.0263 1.75484 14.9904 1.72064 14.9864 1.72528C14.9856 1.72626 14.98 1.73693 14.9741 1.74898L14.9634 1.77088L14.9498 1.75418ZM16.7238 9.3197C16.6308 9.2104 16.4551 8.98376 16.3334 8.81604C16.2117 8.64832 16.0956 8.51113 16.0754 8.51113C16.0095 8.51113 15.9482 8.73352 15.8761 9.23471C15.8313 9.5466 15.8148 9.66087 15.8533 9.75404C15.8755 9.80792 15.9161 9.85474 15.9801 9.92863C16.0763 10.0395 16.2494 10.3006 16.3649 10.5088C16.4804 10.717 16.6042 10.9194 16.6401 10.9586C16.676 10.9978 16.7684 11.1492 16.8454 11.295C16.9224 11.4409 17.0629 11.6602 17.1576 11.7823C17.3531 12.0347 17.4122 12.041 17.7113 11.8414C17.8719 11.7342 17.8796 11.719 17.8611 11.544C17.8429 11.372 17.6952 11.0562 17.0963 9.90849C16.9844 9.69396 16.8167 9.42901 16.7238 9.3197ZM15.6957 11.7705C15.5814 11.678 15.4341 11.5313 15.3683 11.4446C15.3025 11.3578 15.2195 11.2868 15.1838 11.2868C15.0234 11.2868 14.9103 11.9625 15.0613 12.0183C15.217 12.0758 15.9146 12.0318 15.9066 11.965C15.9048 11.9505 15.8099 11.863 15.6957 11.7705Z" fill="url(#paint0_linear_2267_5355)"/>
<defs>
<linearGradient id="paint0_linear_2267_5355" x1="6.83234" y1="5.77215" x2="19.5697" y2="24.1057" gradientUnits="userSpaceOnUse">
<stop stop-color="#BA7F77"/>
<stop offset="0.994792" stop-color="#68271E"/>
</linearGradient>
</defs>
</svg>
