<svg width="17" height="19" viewBox="0 0 17 19" fill="none" xmlns="http://www.w3.org/2000/svg">
<path d="M0.112396 14.4883C0.112396 13.6094 1.00009 12.8184 1.76474 12.0361C2.34482 11.4297 2.50302 10.1816 2.57333 9.1709C2.63486 5.70801 3.53134 3.47559 5.86923 2.63184C6.15927 1.48047 7.10849 0.575195 8.40048 0.575195C9.70126 0.575195 10.6417 1.48047 10.9405 2.63184C13.2784 3.47559 14.1749 5.70801 14.2364 9.1709C14.3067 10.1816 14.4649 11.4297 15.045 12.0361C15.8009 12.8184 16.6974 13.6094 16.6974 14.4883C16.6974 15.1299 16.1964 15.5518 15.3702 15.5518H11.6612C11.5909 17.2568 10.2638 18.7334 8.40048 18.7334C6.54599 18.7334 5.21884 17.248 5.14853 15.5518H1.43954C0.604584 15.5518 0.112396 15.1299 0.112396 14.4883ZM1.81747 14.2246H14.9835V14.1191C14.8253 13.8643 14.3067 13.3457 13.8409 12.8359C13.2169 12.1328 12.9181 10.999 12.839 9.28516C12.7686 5.44434 11.6261 4.22266 10.1143 3.80957C9.89462 3.75684 9.78036 3.65137 9.77158 3.42285C9.73642 2.50879 9.21786 1.86719 8.40048 1.86719C7.59189 1.86719 7.06454 2.50879 7.03818 3.42285C7.02939 3.65137 6.90634 3.75684 6.68661 3.80957C5.18369 4.22266 4.04111 5.44434 3.97079 9.28516C3.89169 10.999 3.59286 12.1328 2.96005 12.8359C2.50302 13.3457 1.97568 13.8643 1.81747 14.1191V14.2246ZM6.51962 15.5518C6.58115 16.7471 7.34579 17.4941 8.40048 17.4941C9.46396 17.4941 10.2198 16.7471 10.2901 15.5518H6.51962Z" fill="#293133"/>
</svg>
