<svg width="222" height="64" viewBox="0 0 222 64" fill="none" xmlns="http://www.w3.org/2000/svg">
<path d="M200.236 42.9065V41.4635H201.377C201.864 41.4635 202.374 41.5642 202.374 42.1866C202.374 42.809 201.864 42.9065 201.377 42.9065H200.236ZM202.902 42.1248C202.861 41.265 202.181 41.1101 201.488 41.1101H199.746V45.1723H200.236V43.2999H201.132L202.271 45.1723H202.855L201.651 43.2936C202.409 43.2618 202.94 42.9907 202.902 42.1248ZM201.076 46.3053C199.373 46.3053 198.081 44.8418 198.081 43.1479C198.081 41.4501 199.374 39.9855 201.076 39.9855C202.776 39.9855 204.069 41.4501 204.069 43.1479C204.069 44.8415 202.776 46.3053 201.076 46.3053ZM201.076 39.5059C199.104 39.5059 197.507 41.1348 197.507 43.1482C197.507 45.1573 199.104 46.7852 201.076 46.7852C201.545 46.7853 202.009 46.6912 202.441 46.5085C202.874 46.3257 203.268 46.0578 203.599 45.7201C203.93 45.3823 204.193 44.9814 204.372 44.5401C204.552 44.0988 204.644 43.6258 204.644 43.1482C204.644 41.1351 203.048 39.5059 201.076 39.5059Z" fill="#231F20"/>
<path d="M88.8025 29.7491C89.5228 39.1338 81.9677 47.4073 72.8177 47.695C63.1469 48 56.1489 39.3949 58.059 29.7491H88.8022M87.8425 25.4589C85.5837 19.5416 79.989 16 73.8586 16.1633C67.8056 16.3224 62.2836 20.0109 59.5392 25.4589H87.8425Z" fill="#E71933"/>
<path d="M27.0762 29.7491H43.6008C44.7424 29.7491 45.7338 28.804 45.8395 27.6434C45.9484 26.4326 45.0537 25.4586 43.8608 25.4586H24.0821L26.5937 18.0057C26.8093 17.3699 27.4118 16.9169 28.0777 16.9169H45.4901C51.419 16.9169 55.8711 21.8902 55.322 27.9103C54.7982 33.6756 49.8705 38.2577 44.1964 38.2595L33.3185 38.2637C32.307 38.2648 31.4355 38.9129 31.1263 39.8301L29.1506 45.6942C28.936 46.3311 28.3356 46.7849 27.6707 46.7849H19.6521C18.2326 46.7849 17.3562 45.4087 17.8124 44.0548L21.1733 34.0866C22.0306 31.5413 24.4163 29.7491 27.0762 29.7491ZM180.423 46.7849L178.569 39.7152C178.335 38.8217 177.597 38.2629 176.699 38.2629L174.13 38.264C173.119 38.265 172.247 38.9132 171.938 39.8303L169.963 45.6942C169.748 46.3311 169.147 46.7849 168.483 46.7849H160.464C159.044 46.7849 158.168 45.4087 158.625 44.0548L161.985 34.0866C162.842 31.5413 165.228 29.7491 167.888 29.7491H184.413C185.554 29.7491 186.546 28.804 186.651 27.6434C186.761 26.4326 185.865 25.4586 184.673 25.4586H164.894L167.406 18.0057C167.621 17.3699 168.224 16.9169 168.89 16.9169H186.303C192.231 16.9169 196.683 21.8902 196.134 27.9103C195.764 31.9767 193.204 35.4526 189.738 37.1504L192.27 46.7849H180.423ZM107.696 25.4589L109.935 18.8174C110.252 17.8766 109.632 16.9171 108.644 16.9171H99.8506C99.1856 16.9171 98.5821 17.3702 98.3675 18.006L95.8549 25.4589H107.696ZM115.006 46.7849H91.425C90.0054 46.7849 89.1301 45.4087 89.5863 44.0548L94.408 29.7491H106.249L104.597 34.6506C104.14 36.0042 105.036 37.3807 106.453 37.3807H116.5C117.921 37.3807 118.825 38.7541 118.37 40.1056L116.485 45.6942C116.27 46.3311 115.671 46.7849 115.006 46.7849M142.239 17.4893L135.724 25.4589H153.273L152.616 18.1674C152.55 17.433 151.959 16.9174 151.239 16.9174H143.437C142.972 16.9174 142.534 17.128 142.239 17.4896M144.61 46.7849H153.482C154.373 46.7849 155.12 45.9572 155.039 45.045L153.66 29.7491H132.217L121.122 43.3204C119.998 44.6966 120.784 46.7849 122.588 46.7849H129.635C130.101 46.7849 130.541 46.5507 130.834 46.1891L136.658 39.0681C137.083 38.5482 137.717 38.2619 138.384 38.2619H140.764C141.798 38.2619 142.647 38.9921 142.743 40.0502L143.235 45.5083C143.264 45.8586 143.422 46.1847 143.677 46.4215C143.931 46.6582 144.265 46.788 144.609 46.7849" fill="#231F20"/>
</svg>
