<svg width="66" height="72" viewBox="0 0 66 72" fill="none" xmlns="http://www.w3.org/2000/svg">
<path d="M61.3247 14.8119L37.683 1.16801C36.3594 0.40379 34.8579 0.00146484 33.3294 0.00146484C31.801 0.00146484 30.2995 0.40379 28.9758 1.16801L5.34192 14.8119C4.01767 15.5756 2.91802 16.6747 2.15372 17.9986C1.38942 19.3224 0.987423 20.8243 0.988283 22.353V49.6486C0.987423 51.1773 1.38942 52.6792 2.15372 54.003C2.91802 55.3269 4.01767 56.426 5.34192 57.1897L28.9758 70.8336C30.2995 71.5978 31.801 72.0001 33.3294 72.0001C34.8579 72.0001 36.3594 71.5978 37.683 70.8336L44.4 66.9464L61.3247 57.1897C62.6479 56.4248 63.7467 55.3254 64.5108 54.0018C65.275 52.6782 65.6776 51.1769 65.6783 49.6486V22.353C65.6776 20.8247 65.275 19.3234 64.5108 17.9998C63.7467 16.6762 62.6479 15.5768 61.3247 14.8119Z" fill="#E3FFE9"/>
<mask id="mask0_2501_1028" style="mask-type:alpha" maskUnits="userSpaceOnUse" x="0" y="0" width="66" height="72">
<path d="M61.3247 14.8103L50.4678 5.52355e-05C39.6803 0.000629091 14.0448 3.62924e-05 3.94288 0C2.61863 0.763648 2.91802 16.673 2.15372 17.9969C1.38942 19.3208 0.987423 20.8227 0.988283 22.3513V49.6469C0.987423 51.1756 1.38942 52.6775 2.15372 54.0014C2.91802 55.3253 4.01767 56.4244 5.34192 57.188L28.9758 70.8319C30.2995 71.5962 31.801 71.9985 33.3294 71.9985C34.8579 71.9985 36.3594 71.5962 37.683 70.8319L44.4 66.9448L61.3247 57.188C62.6479 56.4232 63.7467 55.3238 64.5108 54.0002C65.275 52.6766 65.6776 51.1753 65.6783 49.6469V22.3513C65.6776 20.823 65.275 19.3217 64.5108 17.9981C63.7467 16.6745 62.6479 15.5751 61.3247 14.8103Z" fill="#BCF1C8"/>
</mask>
<g mask="url(#mask0_2501_1028)">
<path d="M44.8326 123.21C44.8326 123.138 44.8452 123.061 44.823 122.996C44.4672 121.947 44.4611 120.86 44.4637 119.771C44.4666 118.611 44.4634 117.452 44.4541 116.294C44.4506 115.882 44.6455 115.57 44.9327 115.313C45.0197 115.237 45.1694 115.212 45.2933 115.203C45.9272 115.153 46.5624 115.116 47.2263 115.072C47.4003 114.724 47.3755 114.332 47.3277 113.949C47.2467 113.305 47.1972 112.651 46.9361 112.041C46.8817 111.914 46.8787 111.758 46.8804 111.616C46.8983 110.224 46.9265 108.835 46.9426 107.445C46.9526 106.604 46.937 105.764 46.9505 104.922C46.9705 103.678 46.5859 102.525 46.1809 101.376C46.0825 101.098 45.996 100.83 46.0308 100.532C46.0455 100.431 46.0393 100.329 46.0125 100.231C45.6914 99.2246 45.7197 98.1744 45.6162 97.142C45.4948 95.9317 45.4051 94.7174 45.2572 93.5106C45.2106 93.1584 45.1839 92.8038 45.1772 92.4486C45.1772 92.205 45.1337 91.9613 45.1145 91.7173C45.1006 91.6164 45.0982 91.5142 45.1076 91.4127C45.2742 90.3408 45.1837 89.271 45.0641 88.2051C44.9862 87.5151 44.8596 86.8307 44.7595 86.1438C44.7386 86.0006 44.7334 85.8553 44.726 85.7087C44.7212 85.6217 44.7552 85.5212 44.7221 85.4503C44.5115 85 44.7156 84.6402 44.8692 84.2147C45.1428 83.4547 45.155 82.6577 44.5646 81.9785C44.4506 81.848 44.3527 81.7027 44.2518 81.5613C43.9655 81.1602 43.8498 80.7282 43.8603 80.2205C43.879 79.2799 43.8259 78.3375 43.7828 77.3969C43.7746 77.3278 43.7526 77.261 43.7182 77.2005C43.6837 77.1399 43.6375 77.0869 43.5823 77.0445C43.3734 76.8988 43.3212 76.7161 43.3299 76.4842C43.3434 76.0539 43.3225 75.6315 43.4644 75.2025C43.5744 74.8701 43.5514 74.4903 43.5662 74.1305C43.5944 73.4109 43.6871 72.6901 43.5414 71.9713C43.5261 71.8969 43.5701 71.8078 43.5962 71.7286C43.6597 71.5367 43.745 71.3505 43.7928 71.1547C43.9938 70.326 44.1844 69.4946 44.3767 68.6632C44.4022 68.55 44.4129 68.4341 44.4084 68.3182C44.3523 67.0086 44.753 65.8074 45.2603 64.6267C45.5513 63.9493 45.8063 63.2571 46.0747 62.5706C46.1117 62.4767 46.1543 62.3766 46.1556 62.2791C46.1613 61.8645 46.391 61.5791 46.6742 61.3168C46.8604 61.1428 47.0727 60.9866 47.2141 60.7812C47.4421 60.451 47.6274 60.0908 47.8188 59.7371C48.0799 59.2529 48.3318 58.763 48.5885 58.2762C48.6777 58.1069 48.7594 57.9503 48.6285 57.7515C48.5763 57.6723 48.5776 57.5248 48.6111 57.4278C48.8621 56.7034 49.1175 55.9799 49.3964 55.266C49.446 55.1385 49.5965 55.0276 49.727 54.9615C49.878 54.8845 49.9911 54.8031 50.0507 54.6387C50.3487 53.8203 50.6163 52.9946 50.7107 52.1232C50.7494 51.7595 50.6585 51.4928 50.3518 51.2187C49.8514 50.7714 49.5652 50.1497 49.3603 49.5085C49.3241 49.3958 49.3703 49.2531 49.3903 49.1261C49.5295 48.2398 49.6887 47.3563 49.8097 46.4674C50.0185 44.9325 50.1916 43.3929 50.4074 41.8589C50.467 41.4329 50.625 41.0205 50.7376 40.6029C50.7838 40.4349 50.8247 40.2653 50.8834 40.1021C51.2036 39.2163 50.9421 38.4028 50.5941 37.5923C49.6082 35.2956 47.9463 33.4953 46.287 31.6929C45.079 30.3816 43.8753 29.066 42.676 27.746C42.1618 27.1766 41.6798 26.5775 41.1803 25.9949C41.0011 25.7861 40.8131 25.5851 40.5904 25.3376C40.6104 25.2897 40.653 25.1709 40.7078 25.0583C40.8819 24.7072 41.0402 24.3487 41.236 24.0106C41.4692 23.6082 41.4901 23.1893 41.41 22.749C41.3665 22.5066 41.3069 22.2665 41.2795 22.0224C41.2182 21.5078 40.9523 21.0749 40.7248 20.6303C40.529 20.2491 40.2341 20.1678 39.8151 20.3022C39.5397 20.3892 39.2582 20.461 38.9859 20.5563C38.8683 20.6031 38.7589 20.6683 38.6618 20.7495C38.5047 20.8713 38.3572 21.0075 38.1471 21.191C38.1119 20.9261 38.0662 20.7334 38.0644 20.5385C38.0592 20.0316 38.0614 19.5243 38.0857 19.0184C38.0949 18.8391 38.0823 18.7077 37.9091 18.6229C37.736 18.5381 37.719 18.3854 37.7233 18.2166C37.729 18.0029 37.7233 17.7893 37.7233 17.5287C37.1917 17.4652 36.7066 17.4078 36.2215 17.3491C35.9193 17.3125 35.6174 17.2751 35.3157 17.2368C34.9394 17.1898 34.6571 17.0058 34.5326 16.6412C34.4051 16.2887 34.3022 15.9277 34.2246 15.561C34.1654 15.2503 34.1811 14.9262 34.1541 14.6086C34.1132 14.1205 34.0671 13.6337 34.0188 13.1351C34.4539 12.8971 34.4678 12.8675 34.2707 12.3994L34.9368 11.5728C36.2885 12.6731 37.7238 12.4755 38.0305 11.1404C37.7864 11.0164 37.5402 11.0307 37.2909 11.1373C37.1847 11.183 37.0838 11.2413 36.9807 11.2939C36.7993 11.3862 36.6248 11.4292 36.4778 11.2335C36.3473 11.0568 36.3677 10.9193 36.6009 10.7114C36.7647 10.5691 36.9393 10.4397 37.123 10.3242C37.5 10.0823 37.8824 9.84664 38.2702 9.61722C38.9455 9.21672 39.5314 8.6817 39.9913 8.04535C41.0554 6.58748 41.9982 5.0613 42.6016 3.35153C42.7687 2.87775 42.8475 2.37135 42.9427 1.87538C42.9775 1.69483 42.9584 1.49905 42.9366 1.31328C42.8496 0.573685 42.4146 0.126451 41.6802 0.0346535C40.8131 -0.0741108 39.973 0.0825115 39.1616 0.373565C38.9741 0.440563 38.8258 0.634598 38.6766 0.785563C38.5774 0.886496 38.5091 1.01745 38.4655 1.07923C35.9644 1.04399 33.5176 0.994825 31.0696 0.981338C29.998 0.975247 28.9243 1.01179 27.8563 1.09228C27.472 1.12433 27.0852 1.07997 26.7181 0.961763C26.0977 0.765552 25.4669 0.601535 24.8365 0.439694C24.6387 0.394613 24.4364 0.372712 24.2335 0.374436C23.2899 0.359209 22.6725 0.90694 22.6673 1.84797C22.6714 2.33937 22.747 2.82756 22.8918 3.29715C23.3099 4.70586 24.0804 5.93315 24.9666 7.08954C25.8528 8.24592 26.8774 9.26482 28.1799 9.97135C28.5449 10.1697 28.8651 10.4538 29.1914 10.7162C29.2684 10.778 29.3511 10.9633 29.322 11.0016C29.2823 11.0475 29.2336 11.0847 29.1788 11.1109C29.1241 11.1371 29.0646 11.1517 29.0039 11.1538C28.7751 11.1404 28.5489 11.0781 28.3235 11.0268C28.129 10.9833 27.9372 10.9246 27.7344 10.8702C27.5674 11.1151 27.6553 11.3083 27.794 11.4814C28.2352 12.0292 29.4277 12.1706 29.9693 11.7268C30.1377 11.588 30.2552 11.387 30.4235 11.1812L31.4572 12.3368C31.3837 12.6178 31.4089 12.8923 31.6913 12.9989C31.6913 13.7081 31.7039 14.3724 31.6865 15.0363C31.6763 15.3982 31.6383 15.7587 31.5729 16.1148C31.4563 16.7539 31.0639 17.1546 30.4192 17.2507C29.8614 17.3334 29.2967 17.3682 28.7342 17.4161C28.5645 17.4304 28.3922 17.4182 28.2082 17.4182C28.1164 17.6849 28.0412 17.9172 27.9559 18.1456C27.9085 18.2718 27.8375 18.3858 27.6718 18.3571C27.506 18.3284 27.4825 18.1965 27.4812 18.0608C27.4786 17.8146 27.4712 17.5679 27.4856 17.3212C27.5047 16.9897 27.3425 16.7874 27.0114 16.6134C26.8809 16.951 26.7799 17.2773 26.6303 17.5792C26.3257 18.1957 26.3953 18.8783 26.2648 19.5248C26.227 19.7119 26.2909 19.9289 26.3436 20.1225C26.5045 20.7173 26.5319 21.2807 26.1626 21.8284C26.0516 21.9933 26.0268 22.2443 26.0321 22.4545C26.0508 23.1588 25.922 23.8379 25.7488 24.5136C25.7135 24.6392 25.6899 24.7678 25.6784 24.8977C25.6536 25.2493 25.52 25.5364 25.2433 25.7622C25.1396 25.8419 25.0578 25.9467 25.0058 26.0667C24.7726 26.6723 24.368 27.1679 23.986 27.6764C23.3946 28.4639 22.7948 29.245 22.1866 30.0197C21.6671 30.6796 21.0989 31.3039 20.6078 31.9831C20.0422 32.7662 19.5723 33.6267 18.9863 34.3968C18.3159 35.2778 17.8347 36.2701 17.2174 37.1811C17.0059 37.4926 16.8228 37.8228 16.6218 38.1413C16.1732 38.8517 15.8978 39.6175 15.863 40.4632C15.8572 40.5936 15.8397 40.7231 15.8108 40.8504C15.7428 41.1629 15.7567 41.4877 15.8513 41.7932C16.1262 42.7385 16.4286 43.6796 16.6379 44.6402C16.7558 45.1823 16.7327 45.7605 16.7271 46.3217C16.7271 46.4866 16.5965 46.6754 16.4756 46.8089C15.9596 47.3828 15.7186 48.0628 15.6398 48.8707C16.3094 49.2487 16.4634 49.974 16.7136 50.6522C16.918 51.2074 17.1743 51.7434 17.4014 52.2902C17.4531 52.4093 17.489 52.5346 17.508 52.6631C17.615 53.521 17.9208 54.3202 18.2611 55.102C18.4351 55.504 18.7166 55.859 18.931 56.2453C18.9889 56.3497 18.9837 56.4903 19.0015 56.6151C19.0316 56.8257 19.0381 57.0419 19.0885 57.2477C19.1903 57.6697 19.3431 58.0808 19.424 58.5063C19.6093 59.4848 20.0052 60.3827 20.4033 61.2842C20.5398 61.6017 20.6419 61.9329 20.7078 62.2722C20.8771 63.1092 21.0124 63.9528 21.1751 64.7916C21.266 65.2606 21.3926 65.7178 21.6375 66.1403C21.7276 66.2969 21.7607 66.4944 21.7872 66.6784C21.9995 68.142 22.1474 69.6116 22.1788 71.0921C22.1909 71.6237 22.1548 72.1632 22.3858 72.6744C22.432 72.7762 22.361 72.9594 22.2949 73.0781C22.1374 73.3609 22.1292 73.6489 22.1644 73.9604C22.2753 74.9684 22.3632 75.9791 22.4737 76.9871C22.5104 77.3175 22.5702 77.6449 22.653 77.9669C22.7104 78.1905 22.7052 78.3923 22.6095 78.5986C22.5316 78.77 22.4598 78.9466 22.3845 79.1167C22.254 79.4165 22.167 79.7084 22.3576 80.0273C22.4172 80.1252 22.3963 80.2779 22.3932 80.4054C22.3885 80.5916 22.3523 80.7778 22.3554 80.9635C22.3589 81.2085 22.2353 81.389 22.0613 81.5187C21.6902 81.7954 21.5627 82.1913 21.397 82.5989C21.1755 83.1432 21.1472 83.6431 21.3413 84.1908C21.4144 84.3974 21.403 84.6511 21.3709 84.8747C21.0124 87.3545 20.6487 89.8344 20.1092 92.2829C19.9573 92.9715 19.9482 93.6916 19.8756 94.3977C19.8181 94.9598 19.7585 95.5214 19.7094 96.0844C19.6585 96.6752 19.6163 97.259 19.658 97.8607C19.745 99.0902 19.4757 100.283 19.1225 101.453C18.9637 101.977 18.7053 102.473 18.5569 103C18.3529 103.722 18.1958 104.46 18.0479 105.197C17.9839 105.515 17.9483 105.835 18.0235 106.179C18.0853 106.46 17.9752 106.778 17.947 107.08C17.8038 108.61 17.6798 110.142 17.3348 111.643C17.2043 112.205 17.0159 112.752 16.8589 113.307C16.8315 113.403 16.8323 113.506 16.8154 113.605C16.7545 113.946 16.6905 114.286 16.6187 114.674C16.7719 114.861 17.0368 114.837 17.2944 114.848C17.8578 114.874 18.4212 114.902 18.9841 114.938C19.1242 114.948 19.2621 114.993 19.4492 115.032C19.3435 115.249 19.2565 115.428 19.1708 115.607C18.8997 116.172 18.6631 116.741 18.7035 117.39C18.7131 117.539 18.6409 117.702 18.576 117.845C18.438 118.149 18.3782 118.483 18.402 118.817C18.4699 120.003 18.5325 121.19 18.5956 122.377C18.6108 122.652 18.6283 122.926 18.6444 123.2H25.255C25.2694 122.97 25.2616 122.736 25.3025 122.511C25.5404 121.195 25.9146 119.922 26.4697 118.7C26.7194 118.15 26.9609 117.591 27.0405 116.965C27.0982 116.928 27.1592 116.898 27.2228 116.874C27.4586 116.804 27.6966 116.743 27.9341 116.678C28.2182 116.601 28.4723 116.559 28.739 116.794C28.9648 116.993 29.3811 116.883 29.5073 116.663C29.7398 116.263 29.8644 115.809 29.8688 115.346C29.8754 114.791 29.9519 114.249 30.1734 113.736C30.2604 113.531 30.3039 113.317 30.2051 113.105C30.055 112.785 30.1029 112.462 30.139 112.127C30.1774 111.71 30.192 111.292 30.1825 110.873C30.1825 110.601 30.1029 110.327 30.1229 110.059C30.1555 109.614 30.2534 109.174 30.2969 108.729C30.3643 108.049 30.4675 107.381 30.7046 106.735C30.9586 106.042 31.2484 105.357 31.4272 104.646C31.7056 103.538 31.9123 102.411 32.1329 101.289C32.2751 100.565 32.3465 99.825 32.6419 99.1385C32.725 98.9458 32.8355 98.7648 32.9673 98.5146C33.1827 99.0132 33.2718 99.4426 33.137 99.8881C33.0269 100.258 33.0678 100.606 33.224 100.946C33.8331 102.282 33.9201 103.717 33.9779 105.146C34.061 107.216 34.0719 109.288 34.1293 111.359C34.1728 112.932 34.5248 114.455 34.9351 115.965C34.962 116.064 35.0508 116.203 35.1326 116.221C35.3971 116.276 35.6768 116.331 35.9409 116.301C36.4195 116.245 36.5296 116.275 36.6675 116.73C36.8228 117.242 36.9633 117.759 37.1025 118.277C37.2828 118.948 37.4072 119.632 37.4745 120.324C37.5685 121.288 37.7355 122.245 37.8734 123.205L44.8326 123.21ZM23.0362 44.5754C22.5233 44.4953 22.3602 44.3883 22.3232 43.9136C22.2862 43.439 22.1157 43.0509 21.8725 42.6681C21.8007 42.5425 21.7385 42.4116 21.6867 42.2765C21.5318 41.9211 21.5375 41.5839 21.7563 41.2446C22.3175 40.3745 22.7087 39.4265 23.0706 38.4602C23.5283 37.2399 23.9912 36.0213 24.4776 34.8127C25.2561 32.8778 26.0473 30.9491 26.8513 29.0264C27.1602 28.2899 27.7018 27.7112 28.3339 27.2427C28.7951 26.8994 29.3128 26.6336 29.6391 26.1307C29.6926 26.048 29.8271 26.0002 29.9336 25.9728C30.1847 25.904 30.4444 25.8666 30.6946 25.7961C30.8754 25.7488 31.0495 25.6787 31.2127 25.5877C31.4838 25.4281 31.7348 25.2323 32.0028 25.0696C32.1126 25.0017 32.2379 24.963 32.3669 24.9573C33.1639 24.9499 33.9614 24.9552 34.7597 24.9621C34.8654 24.9682 34.9705 24.9818 35.0743 25.003C35.0743 25.2901 34.999 25.5629 35.0882 25.7613C35.3632 26.3704 35.8056 26.8429 36.4673 27.0639C36.5604 27.0948 36.677 27.1226 36.731 27.1922C36.982 27.515 37.3357 27.6847 37.6829 27.8622C37.9487 27.9975 38.1732 28.1698 38.3207 28.4317C38.7536 29.2009 39.2286 29.9496 39.608 30.744C40.4472 32.5025 41.4683 34.1484 42.5586 35.7563C43.3797 36.9669 44.1999 38.1781 45.0193 39.3899C45.1153 39.5262 45.1833 39.6803 45.2193 39.8431C45.2553 40.0059 45.2586 40.1742 45.229 40.3383C45.1519 40.8169 45.0188 41.2685 44.7739 41.687C44.4155 42.2998 44.1313 42.9531 43.9273 43.633C43.7902 44.0872 43.5931 44.5232 43.4282 44.9547L42.7256 45.0274C42.6212 45.3219 42.5212 45.5773 42.4415 45.8388C42.4046 45.9606 42.3711 46.0998 42.398 46.2212C42.4642 46.5257 42.3872 46.7994 42.261 47.0626C42.0417 47.5194 41.8139 47.9718 41.5775 48.42C41.2456 49.0473 40.8906 49.6625 40.5669 50.2942C40.2567 50.8993 39.9817 51.521 40.0187 52.1871C39.3809 52.5826 38.6204 52.6809 38.1554 53.2939C38.0941 53.2778 38.0338 53.2581 37.9748 53.2352C37.5833 53.0524 37.5062 53.0611 37.2061 53.3383C37.119 53.417 37.0468 53.5071 36.9633 53.5876C36.8736 53.6809 36.7639 53.7528 36.6426 53.798C36.5213 53.8432 36.3913 53.8605 36.2624 53.8486C36.252 53.6872 36.242 53.5388 36.2328 53.3975L36.6379 53.3513C36.7401 52.8484 37.0429 52.6487 37.6333 52.6552C37.8352 52.3316 38.0853 52.037 38.2119 51.6981C38.3208 51.3993 38.5137 51.1384 38.7675 50.9468C38.8383 50.8965 38.8975 50.8317 38.9411 50.7566C38.9848 50.6816 39.0119 50.5981 39.0207 50.5117C39.0359 50.3703 39.0846 50.232 39.1181 50.0932L39.2839 50.1271C39.4744 49.8852 39.6206 49.6451 39.8186 49.4602C40.1732 49.1291 40.2628 48.7358 40.2145 48.2764C40.1728 47.9315 40.1532 47.5844 40.1557 47.237C40.1662 46.802 40.164 46.3721 40.0352 45.9506C40.0019 45.8259 39.977 45.6992 39.9608 45.5712C39.8978 45.1879 39.8704 44.7959 39.769 44.4235C39.6106 43.8423 39.4453 43.2654 39.3235 42.6746C39.2682 42.4044 39.1155 42.1438 38.9637 41.9067C38.7966 41.6457 38.5343 41.4408 38.3951 41.1671C38.2211 40.8273 37.9709 40.5546 37.7238 40.2848C37.5005 40.0394 37.2353 39.8357 36.9407 39.6831C36.5896 39.5065 36.1741 39.4743 35.8826 39.1524C35.7895 39.0497 35.5937 39.028 35.4393 38.9962C35.1891 38.9453 34.9716 38.9897 34.7889 39.2081C34.4508 39.6122 34.2733 39.6057 33.9553 39.2455C33.5868 39.2168 33.2379 39.2124 32.8981 39.1554C32.6844 39.1154 32.4635 39.16 32.2821 39.2799C32.1369 39.3737 31.9787 39.4458 31.8127 39.4939C31.4498 39.5887 31.0813 39.6679 30.7115 39.7327C30.4701 39.7762 30.32 39.8976 30.2543 40.1321C30.2321 40.2096 30.2003 40.3231 30.1433 40.3457C29.6069 40.558 29.4816 41.0853 29.2328 41.5152C29.1876 41.5899 29.1705 41.6783 29.1845 41.7645C29.2036 41.8415 29.2867 41.9028 29.3246 41.9494C29.1162 42.3962 28.6742 42.6559 28.4953 43.1506L28.7564 43.1327C28.6467 43.5025 28.521 43.8675 28.4336 44.2417C28.3696 44.5131 28.3861 44.8046 28.3135 45.0726C28.2082 45.4598 28.1991 45.8453 28.233 46.2364C28.2957 46.9577 28.3627 47.6788 28.434 48.3995C28.4453 48.5105 28.4619 48.6758 28.5328 48.7167C28.7938 48.8672 28.8243 49.1352 28.9221 49.3693C29.0614 49.7034 29.1923 50.0414 29.3411 50.3699C29.4116 50.5252 29.5586 50.6557 29.5956 50.8145C29.6815 51.2083 29.7421 51.6072 29.777 52.0087C29.7918 52.1736 29.7213 52.3464 29.6874 52.5152C29.6535 52.684 29.6182 52.8401 29.5856 52.9937C30.3078 53.2874 30.3078 53.2874 30.2008 53.6963C29.9671 53.7103 29.7583 53.6859 29.5717 53.4966C29.4011 53.3226 29.1853 53.1956 28.9917 53.0455C28.8408 52.9285 28.6872 52.8832 28.5132 53.002C28.431 53.0488 28.3456 53.0899 28.2578 53.1251C27.9968 52.8675 27.6679 52.8454 27.3294 52.8667C27.061 52.8832 26.8626 52.8036 26.7238 52.5504C26.4856 52.1189 26.1851 51.7248 25.8319 51.381C25.7575 51.3083 25.7158 51.1865 25.694 51.0799C25.6044 50.6448 25.5578 50.1946 25.4386 49.7665C25.3229 49.3514 25.1898 48.9251 24.9718 48.5583C24.5729 47.887 24.0987 47.261 23.6714 46.6058C23.5256 46.3915 23.4121 46.157 23.3347 45.9097C23.2103 45.4812 23.135 45.0396 23.0341 44.5754H23.0362ZM29.3154 9.62244L29.2502 9.67856C28.8991 9.42492 28.5541 9.15911 28.196 8.91982C27.3694 8.37165 26.7425 7.6451 26.2152 6.81893C25.7367 6.07281 25.3186 5.29406 25.0271 4.45918C24.8144 3.84536 24.6446 3.21752 24.5189 2.58017C24.4589 2.28085 24.5067 1.94542 24.5724 1.64088C24.6381 1.33634 24.8539 1.20147 25.1585 1.24933C25.4099 1.28761 25.6514 1.39768 25.8928 1.48861C26.0669 1.55387 26.1204 1.69353 26.0969 1.87408C26.0673 2.0449 26.0528 2.21799 26.0534 2.39135C26.0634 2.61628 26.2048 2.71938 26.4049 2.62759C26.5723 2.54549 26.7222 2.43156 26.8461 2.29216C27.3098 1.7888 27.3029 1.78793 27.8902 2.06332C28.0903 2.15729 28.1769 2.30348 28.1412 2.51404C28.1111 2.68472 28.0712 2.85351 28.0216 3.01957C27.9346 3.32411 27.8232 3.62474 27.7457 3.93319C27.4634 5.06173 27.4795 6.17026 28.0198 7.23093C28.3157 7.81042 28.6193 8.38557 28.9261 8.95941C29.0444 9.18433 29.1827 9.40099 29.3133 9.62244H29.3154ZM39.2265 1.5169C39.4421 1.28186 39.7274 1.12219 40.0405 1.06138C40.7901 0.910852 41.2826 1.27891 41.2586 2.04462C41.2385 2.49161 41.16 2.93405 41.025 3.36066C40.693 4.44221 40.1927 5.45502 39.672 6.45783C39.1361 7.4908 38.3562 8.37742 37.4001 9.04077C37.086 9.26221 36.7636 9.47278 36.443 9.68813C36.434 9.64969 36.4332 9.60978 36.4407 9.57102C36.4482 9.53226 36.4638 9.49552 36.4865 9.46321C36.9872 8.64878 37.4497 7.81522 37.7951 6.9203C38.2241 5.80917 38.3899 4.69237 37.9826 3.53077C37.8843 3.25015 37.8717 2.93605 37.8469 2.63499C37.8282 2.40833 37.927 2.21212 38.1032 2.06115C38.3289 1.86842 38.5043 1.87059 38.7096 2.07899C38.7905 2.16121 38.8506 2.26345 38.9311 2.34611C39.1081 2.52927 39.2299 2.52317 39.4022 2.33392C39.5745 2.14467 39.5789 2.0259 39.4188 1.80141C39.3622 1.72136 39.3074 1.63915 39.2243 1.5169H39.2265ZM36.1428 24.9834H37.086C36.751 25.4215 36.5478 25.4185 36.1428 24.9834ZM37.1434 40.2074L37.2095 40.1421L37.7099 40.6746C37.3353 40.6268 37.2939 40.3605 37.1425 40.2056L37.1434 40.2074ZM35.3075 39.4112C35.3162 39.433 35.3244 39.4547 35.3327 39.4765L35.056 39.587L35.0286 39.5139L35.3075 39.4112Z" fill="url(#paint0_linear_2501_1028)"/>
</g>
<defs>
<linearGradient id="paint0_linear_2501_1028" x1="33.3341" y1="0" x2="33.3341" y2="123.21" gradientUnits="userSpaceOnUse">
<stop stop-color="#376752"/>
<stop offset="1" stop-color="#91BFB2"/>
</linearGradient>
</defs>
</svg>
