<svg width="28" height="28" viewBox="0 0 28 28" fill="none" xmlns="http://www.w3.org/2000/svg">
<path d="M24.8857 5.75971L15.6915 0.453663C15.1768 0.156462 14.5929 0 13.9985 0C13.4041 0 12.8201 0.156462 12.3053 0.453663L3.11425 5.75971C2.59926 6.05669 2.17161 6.48413 1.87437 6.99898C1.57714 7.51383 1.42081 8.09791 1.42114 8.6924V19.3075C1.42081 19.902 1.57714 20.4861 1.87437 21.0009C2.17161 21.5158 2.59926 21.9432 3.11425 22.2402L12.3053 27.5463C12.8201 27.8435 13.4041 27.9999 13.9985 27.9999C14.5929 27.9999 15.1768 27.8435 15.6915 27.5463L18.3038 26.0346L24.8857 22.2402C25.4003 21.9428 25.8276 21.5152 26.1248 21.0005C26.4219 20.4857 26.5785 19.9019 26.5788 19.3075V8.6924C26.5785 8.09803 26.4219 7.51419 26.1248 6.99945C25.8276 6.4847 25.4003 6.05716 24.8857 5.75971Z" fill="#FFF0E2"/>
<path fill-rule="evenodd" clip-rule="evenodd" d="M25.1504 8.34454C25.5337 8.80102 25.9429 9.23526 26.376 9.64513C26.4492 9.72638 26.517 9.81238 26.5789 9.90255C26.3719 9.79329 26.3429 9.86316 26.2891 9.99271L26.2852 10.002C26.1978 10.2263 26.0772 10.4224 25.7468 10.4118C25.0606 10.3884 24.4485 10.6754 23.8459 10.958L23.8301 10.9654C23.3921 11.1711 23.2551 11.1728 22.9168 10.8193C22.7697 10.6624 22.6146 10.6343 22.4455 10.7186C21.9923 10.9457 21.5751 10.8777 21.1111 10.6967C20.3816 10.4129 19.5946 10.364 18.8161 10.3235C18.5943 10.3161 18.375 10.2744 18.1661 10.1999C18.0319 10.1498 17.9434 10.1673 17.9519 10.3359C17.9527 10.3452 17.9527 10.3546 17.9519 10.364C17.9468 10.3924 17.7301 11.3075 17.4423 12.5194C18.034 12.5314 18.6188 12.5918 19.1779 12.8353C19.2878 12.883 19.319 12.8308 19.3638 12.7558L19.3673 12.7499C19.519 12.4987 19.6723 12.2485 19.8341 12.0046C20.0664 11.6567 20.377 11.4229 20.7993 11.3864L20.7981 11.383C21.137 11.3493 21.5744 11.4454 21.7435 11.5016C21.7608 11.5075 21.7828 11.5093 21.8037 11.5111C21.8349 11.5138 21.8639 11.5163 21.8726 11.5314C21.9229 11.6215 21.9952 11.6984 22.0674 11.7754C22.2012 11.9177 22.3347 12.06 22.3282 12.2851C22.3225 12.488 22.3879 12.5521 22.6134 12.5234C23.0458 12.4677 23.2798 12.6858 23.2955 13.1304C23.2987 13.175 23.3116 13.2134 23.3244 13.2513C23.3366 13.2875 23.3486 13.3233 23.3519 13.3637C23.379 13.6762 23.3226 13.9499 23.0407 14.1314C23.09 14.2038 23.148 14.2086 23.2046 14.2132C23.2407 14.2161 23.2763 14.219 23.3085 14.2393L23.3269 14.2509C23.7184 14.4961 23.7188 14.4963 23.4889 14.9762C22.7147 16.5926 21.941 18.2091 21.168 19.8256C21.16 19.8501 21.1553 19.8756 21.1539 19.9014C21.1985 19.9411 21.2561 19.9346 21.3118 19.9284C21.3791 19.9209 21.4434 19.9137 21.478 19.9891C21.4942 20.0278 21.5017 20.0694 21.5 20.1113C21.4984 20.1531 21.4876 20.1941 21.4684 20.2314C21.4121 20.31 21.2841 20.2915 21.2108 20.2538C21.0096 20.1499 20.9408 20.251 20.8635 20.4151C20.5941 20.9873 20.324 21.5606 20.0275 22.1193C19.9433 22.2782 20.0078 22.3728 20.0751 22.4715C20.079 22.4772 20.0828 22.4829 20.0867 22.4885C21.1281 24.0173 22.1697 25.5461 23.2116 27.0749C23.2242 27.0937 23.2406 27.1125 23.2571 27.1316C23.3054 27.1872 23.3553 27.2448 23.3209 27.3093C23.2924 27.3626 23.2329 27.3557 23.1715 27.3487C23.1332 27.3443 23.0943 27.3398 23.0616 27.3497C22.7087 27.4576 22.4939 27.3003 22.3439 26.9979C22.3235 26.9567 22.2941 26.9201 22.2648 26.8834C22.2417 26.8545 22.2185 26.8256 22.1996 26.7944C21.951 26.3864 21.6426 26.1329 21.1161 26.0868C20.6686 26.0475 20.2276 25.9475 19.7868 25.8475C19.5911 25.8032 19.3955 25.7588 19.1994 25.7198C19.156 25.716 19.1125 25.716 19.0691 25.7198C19.2473 25.9867 19.4051 26.2239 19.5607 26.4583C19.5534 26.4662 19.5477 26.4734 19.5427 26.4796C19.534 26.4905 19.5278 26.4984 19.5196 26.5016C18.9416 26.7316 18.678 26.3642 18.3909 25.9642L18.3768 25.9446C17.9146 25.3007 17.4341 24.6694 16.9536 24.0383C16.7791 23.8089 16.6045 23.5796 16.4308 23.3496C16.4236 23.34 16.4104 23.3353 16.3984 23.3309C16.3934 23.3291 16.3887 23.3274 16.3846 23.3254C15.9174 24.3652 15.4493 25.4043 14.9803 26.4426C14.7966 26.8489 14.6095 27.2536 14.4224 27.6584C14.3947 27.7183 14.367 27.7782 14.3393 27.8381C14.3332 27.8517 14.3314 27.8695 14.3296 27.8875C14.3255 27.9291 14.3213 27.9714 14.2626 27.9624C14.1495 27.9447 14.0358 27.9611 13.9224 27.9774C13.7612 28.0007 13.6007 28.0238 13.4435 27.9489C13.7731 27.2167 14.1027 26.4851 14.4323 25.7541C13.8489 25.6392 13.2816 25.5243 12.7173 25.4101C12.5885 25.384 12.4599 25.358 12.3312 25.332C12.0691 25.2786 12.02 25.3404 12.0803 25.5984C12.1711 25.9873 12.2173 26.3628 11.8075 26.6393C11.6346 26.7557 11.5393 26.9375 11.4437 27.1196C11.3963 27.2102 11.3487 27.3008 11.2916 27.3834C11.0419 27.7448 10.9376 27.7589 10.4945 27.7409C10.3422 27.7349 10.1886 27.7393 10.0345 27.7438C9.84509 27.7493 9.65495 27.7549 9.46567 27.7409C9.43756 27.7388 9.40689 27.7416 9.37592 27.7445C9.27771 27.7536 9.17648 27.763 9.14433 27.6139C9.11598 27.4873 9.19754 27.4557 9.27932 27.4241C9.30648 27.4136 9.33367 27.4031 9.35686 27.3891C9.96966 27.0164 10.2831 26.4218 10.5492 25.7917C10.5749 25.7311 10.5989 25.6694 10.623 25.6076C10.6855 25.4469 10.7481 25.286 10.8401 25.1448C11.0887 24.7632 11.0182 24.372 10.8666 24.0095C10.8406 23.9473 10.8133 23.8858 10.7859 23.8245C10.6465 23.5111 10.5078 23.1996 10.561 22.8067C10.0768 23.3496 10.0142 23.3547 9.40591 22.9921C9.35487 22.9616 9.3021 22.934 9.24935 22.9064C9.13199 22.8449 9.01477 22.7836 8.91714 22.6909C8.854 22.6313 8.80721 22.6375 8.72264 22.6718C8.43457 22.7892 8.28236 23.0056 8.18201 23.2867C7.952 23.9274 7.67746 24.5485 7.10638 24.9649C6.48682 25.4168 5.92702 25.9328 5.37003 26.4555C5.13439 26.6769 5.06223 26.9164 5.08478 27.2238C5.11804 27.6723 5.12367 27.814 4.59093 27.8033C4.54989 27.8025 4.50884 27.8016 4.46778 27.8008C3.97579 27.7906 3.48228 27.7805 2.99214 27.81C2.82501 27.8199 2.65788 27.8268 2.49075 27.8338C2.34218 27.84 2.19361 27.8462 2.04504 27.8544C2.02789 27.8554 2.00884 27.8585 1.98928 27.8617C1.9285 27.8715 1.86291 27.8821 1.83476 27.832C1.79308 27.7578 1.71704 27.7107 1.64141 27.6639C1.51759 27.5872 1.39489 27.5112 1.42604 27.3182C1.43845 27.2356 1.45254 27.1524 1.57544 27.1232C2.69166 26.8579 3.73009 26.4296 4.46916 25.509C4.74378 25.1663 4.98906 24.8007 5.23454 24.4348C5.36952 24.2336 5.50457 24.0323 5.64458 23.8347C5.81971 23.5743 6.01061 23.3249 6.21622 23.0877C6.5345 22.7387 6.72063 22.32 6.90647 21.902C6.97145 21.7558 7.0364 21.6097 7.10694 21.4667C7.23508 21.1822 7.45495 20.9486 7.73158 20.803C8.09251 20.6113 8.42313 20.3751 8.75416 20.1386C8.81143 20.0977 8.86871 20.0568 8.92616 20.0161C9.29429 19.7553 9.67651 19.5204 10.1309 19.4226C10.3144 19.3832 10.4926 19.324 10.671 19.2647C10.9102 19.1853 11.1498 19.1057 11.4033 19.0735C11.5019 19.0612 11.6017 19.019 11.5679 18.8746C11.5442 18.7734 11.6169 18.7279 11.697 18.7622C11.824 18.8168 11.9563 18.821 12.0887 18.8252C12.1702 18.8278 12.2518 18.8304 12.3323 18.8448C12.4624 18.8718 12.5972 18.8667 12.7249 18.8301C12.8526 18.7935 12.9694 18.7264 13.0652 18.6346C13.1354 18.5666 13.2245 18.5238 13.3102 18.4825C13.3895 18.4444 13.466 18.4076 13.5218 18.3535C13.7307 18.1519 13.9087 18.2038 14.1138 18.2636C14.1534 18.2751 14.1941 18.287 14.2361 18.2973C14.5259 18.3687 15.2604 17.8657 15.4025 17.5723C15.43 17.524 15.4657 17.4809 15.5079 17.4447C15.8009 17.1627 16.0519 16.8472 16.2933 16.5238C16.4173 15.9952 16.5552 15.4077 16.695 14.8125C16.5183 14.4248 16.4371 13.999 16.355 13.5688C16.3513 13.5495 16.3477 13.5302 16.344 13.5109C16.2718 13.1349 16.3271 12.8617 16.6179 12.6212C16.6825 12.5572 16.7693 12.5204 16.8604 12.5183C16.9852 12.5173 17.11 12.5164 17.2346 12.5169C17.5092 11.3495 17.7144 10.4781 17.7185 10.4618C17.7574 10.3067 17.8092 10.0981 17.5319 10.0684C17.4344 10.0554 17.396 9.98236 17.3673 9.89974C17.2979 9.70133 17.1435 9.71033 17.0223 9.80812C16.7049 10.0627 16.4123 9.96775 16.096 9.80812C15.6121 9.5645 15.0866 9.46207 14.5628 9.35994C14.3409 9.31669 14.1194 9.2735 13.9013 9.21966C13.7109 9.17265 13.5176 9.13986 13.3242 9.10706C13.0482 9.06024 12.772 9.01339 12.5038 8.92514C12.2372 8.8369 12.0088 8.73686 12.0962 8.39963C12.0192 8.36346 11.9936 8.39825 11.9682 8.43283C11.9612 8.44232 11.9543 8.45178 11.9463 8.45977C11.7681 8.63962 11.6244 8.5969 11.4744 8.40805C11.2441 8.10804 10.9275 7.88528 10.5668 7.76957C10.4477 7.73306 10.3443 7.67308 10.2417 7.6136C10.1817 7.57876 10.1219 7.54409 10.0594 7.5144C9.96214 7.46867 9.97856 7.35578 9.99491 7.24337C10.0019 7.19549 10.0088 7.1477 10.007 7.10522C10.0063 7.08816 10.007 7.06978 10.0077 7.05139C10.0116 6.95166 10.0155 6.8518 9.79274 6.9619C9.94796 6.79928 10.1385 6.67431 10.3497 6.59657C10.8266 6.43368 11.272 6.20469 11.7178 5.97548C12.0119 5.82427 12.3062 5.67296 12.6098 5.54048C13.2773 5.25142 13.9822 5.09938 14.6872 4.9473C14.7759 4.92816 14.8647 4.90903 14.9533 4.88962C15.1216 4.84544 15.2868 4.79005 15.4477 4.72381C16.1625 4.4619 16.887 4.5389 17.6148 4.65131C17.7663 4.67446 17.9197 4.68593 18.073 4.69741C18.1804 4.70544 18.2877 4.71347 18.3944 4.7255C18.5416 4.7418 18.6475 4.71089 18.6695 4.54733C18.6825 4.4501 18.7417 4.4411 18.8257 4.4411C18.8422 4.44053 18.8586 4.44382 18.8736 4.45073C18.8886 4.45764 18.9018 4.46796 18.912 4.48087C18.9223 4.49378 18.9293 4.50891 18.9327 4.52504C18.936 4.54117 18.9354 4.55786 18.9311 4.57375C18.9007 4.71196 18.9717 4.73814 19.0648 4.7725C19.0788 4.77768 19.0933 4.78305 19.1081 4.78901C19.6179 4.99932 20.1497 5.12376 20.6815 5.24821C20.8148 5.27942 20.9482 5.31063 21.0812 5.3432C22.0374 5.57869 22.8108 6.14131 23.5522 6.74832C23.817 6.96521 24.0728 7.19415 24.3283 7.4229C24.5661 7.63579 24.8038 7.8485 25.0483 8.05115C25.1138 8.10552 25.1147 8.16319 25.1155 8.21866C25.1162 8.26296 25.1168 8.30586 25.1504 8.34454ZM16.8347 15.0758C16.7489 15.4363 16.6646 15.7909 16.5844 16.1282C16.6072 16.0972 16.63 16.0661 16.6529 16.0351C16.7285 15.9313 16.8319 15.8492 16.9352 15.7672C16.9868 15.7262 17.0384 15.6853 17.0864 15.6416L17.0868 15.6413C17.1487 15.5852 17.2063 15.533 17.1157 15.4399C17.0053 15.325 16.9129 15.2031 16.8347 15.0758ZM13.3203 18.6208C13.4233 18.6078 13.5366 18.5935 13.6182 18.4491C13.5521 18.4511 13.4872 18.468 13.4286 18.4987C13.37 18.5294 13.3192 18.573 13.28 18.6261C13.2932 18.6242 13.3066 18.6225 13.3203 18.6208ZM15.4365 23.5269C15.4862 23.4144 15.5359 23.3019 15.5857 23.1894C15.7227 22.8786 15.7131 22.8674 15.358 22.8533C14.807 22.8383 14.2562 22.8196 13.7056 22.7971C13.6895 22.7964 13.6725 22.7968 13.6553 22.7972C13.5638 22.7992 13.4668 22.8013 13.4767 22.6414C13.4774 22.6297 13.4793 22.6166 13.4813 22.603C13.4911 22.5369 13.5026 22.4591 13.3786 22.4633C13.3185 22.4654 13.2546 22.4455 13.1915 22.4258C13.076 22.3897 12.963 22.3544 12.8792 22.4565C12.7495 22.6144 12.6396 22.8359 12.63 23.0343C12.608 23.507 12.4868 23.9527 12.3481 24.3961C12.345 24.4063 12.3418 24.4163 12.3388 24.426C12.2903 24.5792 12.2608 24.6725 12.5026 24.6614C12.5897 24.6574 12.678 24.682 12.7666 24.7067C12.8128 24.7195 12.859 24.7324 12.9051 24.7412C13.2874 24.8116 13.6697 24.8837 14.0678 24.9588C14.2614 24.9953 14.4588 25.0325 14.6617 25.0706C14.7561 25.114 14.7827 25.0292 14.8076 24.95C14.8149 24.9265 14.8221 24.9036 14.8309 24.8846C15.0359 24.4334 15.2362 23.9801 15.4365 23.5269ZM19.124 13.7033C18.7603 13.6826 18.3918 13.6617 18.0595 13.8723C17.9986 13.9105 17.998 13.9341 18.0262 13.9982C18.0396 14.0263 18.0525 14.0546 18.0654 14.0828C18.1527 14.2736 18.2377 14.4594 18.4558 14.5603L18.4568 14.5607C18.5642 14.6106 18.6877 14.668 18.7523 14.7924C18.9354 14.5158 19.0895 14.2213 19.2123 13.9133C19.2484 13.8268 19.2738 13.7121 19.1306 13.7037L19.124 13.7033ZM20.6365 25.4253C20.8199 25.469 21.0085 25.5139 21.2164 25.4792L21.2181 25.4815L21.198 25.4535C20.6697 24.7188 20.1608 24.0112 19.6475 23.3069C19.585 23.2286 19.4945 23.1774 19.395 23.1641C19.2325 23.128 19.0687 23.127 18.9045 23.1261C18.7621 23.1252 18.6193 23.1244 18.4766 23.1006C18.2009 23.0542 17.9173 23.047 17.6188 23.0395C17.4871 23.0362 17.3525 23.0328 17.2144 23.0259C17.3502 23.2229 17.4836 23.4166 17.6153 23.6078C17.9317 24.0672 18.2384 24.5126 18.5465 24.9571C18.5899 25.0195 18.6553 25.0374 18.7354 25.0526C18.9533 25.0931 19.1705 25.1382 19.3877 25.1833C19.7255 25.2535 20.0633 25.3237 20.4041 25.3764C20.4813 25.3883 20.5585 25.4067 20.6365 25.4253Z" fill="url(#paint0_linear_2344_7282)"/>
<defs>
<linearGradient id="paint0_linear_2344_7282" x1="14" y1="4.44104" x2="14" y2="28" gradientUnits="userSpaceOnUse">
<stop stop-color="#7A4235"/>
<stop offset="1" stop-color="#CA8663"/>
</linearGradient>
</defs>
</svg>
