<svg width="66" height="72" viewBox="0 0 66 72" fill="none" xmlns="http://www.w3.org/2000/svg">
<path d="M60.9918 14.8107L37.3497 1.16657C36.026 0.402338 34.5245 0 32.996 0C31.4675 0 29.966 0.402338 28.6423 1.16657L5.00797 14.8107C3.68369 15.5744 2.58402 16.6735 1.81971 17.9974C1.05539 19.3213 0.653439 20.8233 0.654298 22.352V49.648C0.653439 51.1767 1.05539 52.6787 1.81971 54.0026C2.58402 55.3265 3.68369 56.4256 5.00797 57.1893L28.6423 70.8334C29.966 71.5977 31.4675 72 32.996 72C34.5245 72 36.026 71.5977 37.3497 70.8334L44.059 66.9462L60.9918 57.1737C62.315 56.4089 63.4138 55.3094 64.178 53.9858C64.9421 52.6622 65.3448 51.1609 65.3455 49.6325V22.352C65.3448 20.8236 64.9421 19.3223 64.178 17.9986C63.4138 16.675 62.315 15.5756 60.9918 14.8107Z" fill="#EDF0FF"/>
<path fill-rule="evenodd" clip-rule="evenodd" d="M53.6414 13.9138C54.4835 13.4774 59.0222 6.94068 58.3145 6.23864C58.2893 6.21358 58.2226 6.21346 57.9305 6.23804C57.8311 6.24639 57.7339 6.25443 57.6389 6.26228C54.1607 6.54991 53.5295 6.60211 49.4327 13.5374L49.433 14.1924C49.5273 15.1906 49.5273 15.4192 49.5273 15.5553C49.5273 16.5359 48.6619 17.3232 47.943 17.9772C47.8129 18.0957 47.6875 18.2097 47.5729 18.3198C47.4509 18.3608 47.3956 18.3554 47.2812 18.3444C47.2035 18.337 47.0986 18.3269 46.9272 18.3269L46.4654 18.3198C45.858 18.4809 45.3167 18.6632 44.9212 19.4406L44.9208 19.7794C44.9204 20.2222 44.9 20.3441 44.8264 20.3441C44.6082 20.3441 43.9825 21.7382 43.9825 21.9705V22.1358C43.9825 22.1358 43.9604 22.2322 43.8635 22.3287C43.7666 22.4251 41.7321 24.4508 41.1666 24.8318H40.8638C40.5883 24.8318 40.561 24.8267 40.561 24.7755C40.561 24.603 38.3549 24.0788 38.3549 24.0788C38.3549 24.0788 34.77 23.0969 34.3556 22.3844C34.3555 22.3563 34.355 22.3266 34.3541 22.2949C34.3459 22.0097 34.3829 21.8965 34.5074 21.8256C34.558 21.7967 34.5691 21.7842 34.5748 21.7496C34.5836 21.6967 34.5661 21.6435 34.5253 21.5993L34.5111 21.5839C34.5213 21.5664 34.5314 21.5488 34.5414 21.5313L34.5984 21.4921C34.7448 21.3917 34.7525 21.3729 34.7225 21.1878C34.7219 21.1844 34.7214 21.1811 34.7209 21.1779C34.7627 21.0848 34.8003 20.9915 34.8342 20.8976C34.8616 20.8895 34.9001 20.887 34.9771 20.8849C35.1338 20.8808 35.2079 20.8601 35.2686 20.8034C35.3531 20.7246 35.3869 20.59 35.3473 20.4897C35.3368 20.463 35.2828 20.344 35.2273 20.2254C35.1645 20.0911 35.1111 19.9682 35.0673 19.8576C35.0966 19.5919 35.1091 19.3123 35.1107 19.0121C35.1235 18.9949 35.1343 18.9774 35.1436 18.9589C35.4758 18.9634 35.6118 19.0376 35.9127 19.2019C35.946 19.2201 35.9814 19.2394 36.0192 19.2599C35.8223 18.8561 35.7254 18.6632 35.5706 18.409C35.5605 18.3998 35.5544 18.3898 35.5484 18.38C35.5314 18.3522 35.5155 18.3262 35.4117 18.3262H35.2623C35.2623 16.9818 35.1109 15.3835 34.3236 14.6668C34.2968 14.6424 34.2704 14.6183 34.2444 14.5947C33.2633 13.7008 32.8826 13.3539 31.6258 13.2064C29.8476 12.9976 27.1476 14.613 27.1476 16.7751V17.0913H27.0719H26.9962V18.5671V20.043H27.0708C27.1999 20.6888 27.3936 21.1711 27.9348 21.4284V21.82V22.2115C27.6743 22.2115 27.3636 22.2174 27.0754 22.223C26.826 22.2278 26.5935 22.2322 26.4248 22.2322C26.3749 22.4309 26.4075 22.5522 26.4508 22.7134C26.4916 22.8652 26.542 23.0524 26.542 23.3732C23.6296 23.6848 21.2123 27.4877 21.2131 30.0996C21.2135 31.264 21.7667 32.3691 22.3194 33.4735C22.8716 34.5765 23.4233 35.6787 23.4233 36.8383C23.7695 36.8383 23.5184 37.7624 23.2565 37.2389C23.1821 36.7007 22.9186 36.1705 22.666 35.6621C22.4268 35.1808 22.1974 34.7191 22.1475 34.289H21.7746H21.4016C21.386 34.413 21.352 34.4988 21.3195 34.5809C21.2803 34.6798 21.2432 34.7733 21.2432 34.9215C17.2908 34.9215 12.8728 33.541 8.68078 32.2311C6.27618 31.4797 3.94591 30.7516 1.82046 30.3205C0.654362 29.9318 0.654297 30.7092 0.654297 31.5031C0.654297 37.9303 10.1491 41.8821 17.0527 44.7554C19.8991 45.9401 22.3051 46.9415 23.4233 47.8574C23.4233 47.9323 23.4217 47.9327 23.1432 47.933C22.7585 47.9335 22.636 47.9562 22.636 48.027C20.9102 48.3731 15.9616 52.8103 15.2329 54.2877C15.1626 54.2877 14.9928 54.836 15.0815 55.0708C15.3747 55.8471 17.5784 58.3085 19.4416 58.3085C22.1712 58.0544 24.1476 54.8983 25.7365 52.3611C25.9567 52.0094 26.1695 51.6697 26.3758 51.3512C26.3527 50.5584 26.3279 49.82 26.2089 49.0145L26.4436 49.0232L26.5701 49.0637C36.0386 52.0924 37.2599 52.4831 52.077 53.6999C56.4212 54.0566 63.5375 52.8321 65.1684 50.3073C65.3574 48.936 61.2477 47.7884 59.3178 47.2495C59.002 47.1614 58.7446 47.0895 58.574 47.0356C51.5594 44.8205 49.4537 44.0079 42.3396 41.2625C41.9631 41.1172 41.5726 40.9666 41.1666 40.81C35.9341 38.7917 35.1348 39.231 35.1256 39.215C35.1216 39.2081 35.2623 39.118 35.2623 38.7164C35.2623 38.5378 35.7037 38.476 35.83 38.4758C36.2112 38.4751 36.7911 38.0518 36.8943 37.7225C36.906 37.685 36.9153 37.6595 36.9227 37.6335C36.9519 37.5315 36.9532 37.4215 36.9681 36.543C36.9791 35.8942 36.9882 35.1285 36.9882 34.8413C36.9882 34.3392 36.9905 34.3191 37.0487 34.3191C37.6631 33.6146 40.6664 29.4668 41.1666 28.7171C41.9919 28.7171 42.7978 28.4057 43.4469 28.109C44.209 27.8281 44.9764 26.0375 45.5833 24.6214C46.0025 23.6434 46.3451 22.844 46.5565 22.844C46.6016 22.844 46.6165 22.8119 46.6332 22.6783C46.656 22.4973 47.4222 21.9162 47.6356 21.886C47.7125 21.8751 47.8071 21.6814 47.7202 21.5653C47.6639 21.4901 47.5409 21.4367 47.476 21.4086C47.4505 21.3976 47.434 21.3904 47.434 21.3873C47.4338 21.3685 47.4254 21.3034 47.4153 21.2425C47.3979 21.1381 47.4017 21.1313 47.4837 21.122C47.768 21.0896 48.0399 20.4672 48.0399 20.25C48.0399 20.1364 48.0818 20.1132 48.1292 20.0869C48.1498 20.0754 48.1715 20.0633 48.1913 20.043V19.2599C48.2038 19.2528 48.2114 19.2336 48.2219 19.207C48.2382 19.166 48.2613 19.1075 48.32 19.049C49.024 17.8141 50.2577 16.7073 51.4614 15.6306C51.4614 15.5704 51.4765 15.5553 51.5371 15.5553C51.7005 15.5553 53.6414 14.0787 53.6414 13.9138ZM37.1093 28.7924C37.5829 29.1544 38.6 28.7989 38.7491 28.7656C39.1044 28.6864 39.2957 28.6344 39.6224 28.5665V28.7171C39.6224 29.3189 37.4997 31.9699 37.2001 31.9699H37.1093C37.1093 31.4771 37.0303 31.0299 36.9535 30.5951C36.9017 30.3016 36.8509 30.0137 36.8261 29.7215C36.8153 29.5948 36.8065 29.4263 36.8065 29.3471C36.8055 28.3769 36.4168 28.3769 37.1093 28.7924Z" fill="url(#paint0_linear_2501_460)"/>
<defs>
<linearGradient id="paint0_linear_2501_460" x1="8.35108" y1="25.5532" x2="56.1776" y2="68.3674" gradientUnits="userSpaceOnUse">
<stop stop-color="#A1A9D9"/>
<stop offset="1" stop-color="#43588E"/>
</linearGradient>
</defs>
</svg>
