<svg width="23" height="24" viewBox="0 0 23 24" fill="none" xmlns="http://www.w3.org/2000/svg">
<path d="M20.6893 4.93691L12.7953 0.388855C12.3534 0.134111 11.852 0 11.3417 0C10.8313 0 10.33 0.134111 9.888 0.388855L1.99665 4.93691C1.55448 5.19146 1.18731 5.55784 0.932108 5.99914C0.676908 6.44044 0.542682 6.94109 0.542969 7.45065V16.5494C0.542682 17.0589 0.676908 17.5596 0.932108 18.0009C1.18731 18.4422 1.55448 18.8085 1.99665 19.0631L9.888 23.6111C10.33 23.8659 10.8313 24 11.3417 24C11.852 24 12.3534 23.8659 12.7953 23.6111L15.0382 22.3154L20.6893 19.0631C21.1311 18.8081 21.498 18.4417 21.7531 18.0005C22.0083 17.5592 22.1427 17.0588 22.143 16.5494V7.45065C22.1427 6.94119 22.0083 6.44075 21.7531 5.99954C21.498 5.55833 21.1311 5.19187 20.6893 4.93691Z" fill="#F6EFF3"/>
<path d="M15.5508 8.7733C15.6922 9.02195 15.8358 9.27059 15.9794 9.51924C16.033 9.617 16.0716 9.71901 16.1209 9.81676C16.1823 9.93743 16.2764 10.0387 16.3926 10.1093C16.5088 10.1799 16.6426 10.2169 16.7789 10.2163C16.8406 10.2194 16.9019 10.2045 16.9552 10.1736C17.0085 10.1426 17.0515 10.0969 17.079 10.042C17.3253 9.66315 17.4868 9.23631 17.5527 8.7903C17.5847 8.57278 17.6393 8.35913 17.7156 8.15274C17.7963 8.00113 17.8933 7.85862 18.0049 7.72771C18.0823 7.62398 18.1538 7.51614 18.2193 7.40468C18.2857 7.28142 18.2429 7.20704 18.1014 7.17516C18.0757 7.06678 18.155 6.90101 17.9492 6.88189C17.9921 6.78413 18.0499 6.66937 17.9492 6.60986C17.8935 6.56948 17.7949 6.58648 17.677 6.57373C17.5463 6.4356 17.4262 6.48873 17.3191 6.70124C17.2375 6.81363 17.1409 6.91445 17.0318 7.00089C16.989 6.88401 16.9525 6.80538 16.9311 6.7225C16.8797 6.53548 16.7446 6.39522 16.5967 6.39734C16.5578 6.39677 16.5201 6.41125 16.4917 6.43772C16.4789 6.45472 16.4917 6.50998 16.5153 6.53548C16.6448 6.72322 16.7136 6.94559 16.7125 7.17304C16.7264 7.32071 16.7671 7.46469 16.8325 7.59807C16.8856 7.70093 16.9161 7.81376 16.922 7.92915C16.9279 8.04453 16.9091 8.15985 16.8668 8.2675C16.8564 8.31039 16.8405 8.35181 16.8196 8.39077C16.8116 8.36494 16.8008 8.34001 16.7875 8.31639L16.4853 7.89135C16.3219 7.62397 16.2195 7.3244 16.1852 7.01365C16.1226 6.71113 15.9922 6.42642 15.8037 6.18057C15.7492 6.11116 15.6787 6.05566 15.5982 6.0187C15.5176 5.98174 15.4294 5.96437 15.3407 5.96805C15.1821 5.96805 15.0214 5.98081 14.8606 5.98931C14.8199 5.98931 14.7791 5.98931 14.7406 5.98931C14.7344 5.95577 14.7352 5.92135 14.7427 5.88809C14.7502 5.85483 14.7644 5.8234 14.7844 5.79566C14.8043 5.76792 14.8297 5.74444 14.859 5.7266C14.8883 5.70876 14.9209 5.69692 14.9549 5.69178C15.0535 5.68116 15.1521 5.67266 15.2507 5.67053C15.4372 5.67053 15.5186 5.59402 15.4865 5.41551C15.4563 5.26926 15.4839 5.1171 15.5636 4.99047C15.5958 4.93521 15.5636 4.84596 15.5636 4.77795C15.778 4.68444 15.778 4.56543 15.6644 4.42942C15.6233 4.37137 15.5867 4.31027 15.5551 4.24666C15.5925 4.22251 15.6246 4.19109 15.6494 4.15429C15.6742 4.1175 15.6912 4.0761 15.6994 4.03259C15.7076 3.98908 15.7069 3.94438 15.6972 3.90117C15.6874 3.85797 15.669 3.81717 15.6429 3.78124C15.5486 3.6176 15.4672 3.44546 15.3857 3.27545C15.3686 3.24144 15.3857 3.19256 15.3857 3.15218C15.3912 3.07543 15.3699 2.99913 15.3254 2.93607C15.2809 2.87301 15.216 2.82702 15.1414 2.80578C14.7686 2.67414 14.379 2.59544 13.984 2.57201C13.8577 2.56701 13.7322 2.59429 13.6196 2.65123C13.507 2.70817 13.411 2.79286 13.3409 2.89716C13.2247 3.09199 13.1298 3.2986 13.058 3.51347C12.9766 3.73874 13.088 3.94913 13.1438 4.16377C13.2231 4.47192 13.2981 4.78433 13.3581 5.09885C13.386 5.28587 13.2616 5.39851 13.0709 5.44951C12.8801 5.50051 12.6615 5.57702 12.4557 5.63865C12.419 5.65145 12.3789 5.65145 12.3421 5.63865C12.1854 5.56769 12.015 5.53096 11.8427 5.53096C11.6704 5.53096 11.5001 5.56769 11.3433 5.63865C11.1252 5.72074 10.8882 5.7399 10.6596 5.69391C10.4337 5.67308 10.2061 5.68093 9.98226 5.71728C9.59931 5.76829 9.21635 5.83063 8.8334 5.9043C8.59796 5.9501 8.36649 6.01405 8.14109 6.09557C8.10268 6.1186 8.06964 6.14945 8.04414 6.18608C8.01865 6.22272 8.00128 6.2643 7.9932 6.30809C7.93747 6.60349 7.90532 6.90314 7.85817 7.19854C7.78713 7.86123 7.76207 8.52798 7.78315 9.19409C7.76038 9.3219 7.74677 9.45115 7.74243 9.58087C7.7686 9.67989 7.76189 9.78464 7.72328 9.87958C7.68467 9.97452 7.61622 10.0546 7.52809 10.1079C7.4829 10.1492 7.45024 10.2022 7.43378 10.2609C7.3667 10.4583 7.2519 10.6363 7.09941 10.7795C7.08109 10.7934 7.06593 10.811 7.05491 10.8312C7.04389 10.8513 7.03726 10.8735 7.03544 10.8964C7.03362 10.9192 7.03665 10.9422 7.04435 10.9638C7.05205 10.9854 7.06423 11.0051 7.08012 11.0217C7.09377 11.0364 7.11034 11.0481 7.12878 11.0562C7.14723 11.0642 7.16715 11.0683 7.18729 11.0683C7.20743 11.0683 7.22735 11.0642 7.24579 11.0562C7.26424 11.0481 7.28081 11.0364 7.29446 11.0217C7.31167 11.0116 7.33052 11.0044 7.35019 11.0005C7.35019 11.0685 7.33518 11.1493 7.36519 11.1939C7.3952 11.2385 7.47879 11.2513 7.55381 11.2831C7.5881 11.4787 7.64383 11.5169 7.76815 11.4489C7.84317 11.5063 7.89889 11.5807 7.96534 11.5913C8.07036 11.6104 8.13038 11.5275 8.15825 11.4277C8.2322 11.2471 8.34397 11.0841 8.48618 10.9495C8.53119 11.0727 8.56549 11.162 8.60193 11.2725C8.61975 11.3378 8.65679 11.3963 8.70834 11.4406C8.75988 11.4849 8.82358 11.5129 8.89128 11.5212C8.93415 11.5212 8.9813 11.4935 9.02846 11.4765C9.02049 11.4416 9.0075 11.4079 8.98988 11.3767C8.88455 11.2467 8.8244 11.0864 8.81841 10.9197C8.80791 10.677 8.74504 10.4393 8.63407 10.2227C8.60218 10.1624 8.58184 10.0969 8.57406 10.0293C8.57221 9.62483 8.59081 9.22054 8.62979 8.81793C8.68861 8.51359 8.76956 8.21386 8.87199 7.9211C8.94487 7.67245 9.02417 7.42593 9.08633 7.17729C9.11205 7.09228 9.16348 7.0519 9.24922 7.07103C9.5997 7.15741 9.95978 7.19954 10.3209 7.19641H11.2533C11.3047 7.3813 11.3733 7.5917 11.4205 7.80634C11.4438 7.9555 11.4574 8.10599 11.4612 8.25688C11.4951 8.66176 11.6072 9.05641 11.7913 9.41936C11.9161 9.665 11.9966 9.9304 12.0292 10.2035C12.0574 10.4608 11.9879 10.7192 11.8341 10.9282C11.5957 11.25 11.3997 11.6006 11.2511 11.9717C11.0399 12.4721 11.036 13.0348 11.2404 13.538C11.2515 13.5627 11.2573 13.5895 11.2573 13.6166C11.2573 13.6437 11.2515 13.6705 11.2404 13.6952C11.0904 13.9375 10.9275 14.1734 10.7753 14.4135C10.561 14.7599 10.3466 15.1234 10.1173 15.457C9.96718 15.6395 9.79917 15.8068 9.61574 15.9564C9.59645 15.9734 9.54072 15.9671 9.50643 15.9564C9.18439 15.8479 8.84763 15.7884 8.50762 15.78C8.26067 15.7698 8.01512 15.8217 7.79387 15.9309C7.59004 16.0253 7.37343 16.0898 7.15085 16.1222C6.7479 16.2072 6.34422 16.288 5.93984 16.3645C5.80197 16.396 5.6577 16.385 5.52631 16.3329C5.39492 16.2809 5.2827 16.1903 5.20466 16.0733C5.16294 16.0241 5.11052 15.985 5.05134 15.9588C4.99215 15.9326 4.92774 15.92 4.86295 15.9221C4.79817 15.9241 4.7347 15.9407 4.67732 15.9706C4.61993 16.0005 4.57013 16.0428 4.53165 16.0946C4.42496 16.258 4.33382 16.4308 4.25943 16.611C4.13369 16.9005 3.95076 17.162 3.72144 17.3803C3.38988 17.7066 3.18561 18.1388 3.14487 18.6002C3.12823 18.6621 3.13266 18.7277 3.15746 18.7869C3.18226 18.846 3.22605 18.8955 3.28205 18.9274C3.35263 18.9436 3.42641 18.9392 3.49449 18.9146C3.56258 18.8901 3.62204 18.8466 3.66571 18.7893C3.72693 18.7179 3.78146 18.641 3.82861 18.5598C3.91451 18.3968 4.0361 18.255 4.18445 18.1447C4.33279 18.0344 4.50415 17.9584 4.68596 17.9222C4.84676 17.8772 5.00372 17.8196 5.15537 17.7501C5.19395 17.7352 5.24324 17.6991 5.24967 17.6629C5.28826 17.4823 5.44044 17.4696 5.57333 17.4504C5.85609 17.3808 6.14224 17.3254 6.43068 17.2847C6.66033 17.2655 6.89119 17.2655 7.12084 17.2847C7.36304 17.2974 7.60311 17.3378 7.84531 17.3484C8.24826 17.3654 8.65337 17.3484 9.05632 17.3803C9.33439 17.3908 9.60851 17.4491 9.86651 17.5524C9.94464 17.598 10.0313 17.6273 10.1212 17.6386C10.2111 17.65 10.3024 17.643 10.3895 17.6183C10.4811 17.5764 10.568 17.5251 10.6489 17.4653C10.9918 17.2337 11.3304 16.9999 11.6734 16.7704C12.188 16.4302 12.6476 16.0146 13.0366 15.5378C13.1866 15.3507 13.3345 15.1616 13.4803 14.9767C13.7418 15.0872 13.999 15.2105 14.2669 15.304C14.612 15.4273 14.9678 15.5165 15.315 15.6355C15.4715 15.6844 15.6236 15.7439 15.7737 15.8034C15.9237 15.8629 15.988 15.9373 15.9409 16.1264C15.8744 16.4473 15.8165 16.764 15.7501 17.0913C15.7007 17.3898 15.7303 17.6958 15.8358 17.9796C16.0141 18.5062 16.1516 19.0454 16.2474 19.5926C16.2937 19.8401 16.3273 20.0898 16.3481 20.3407C16.3548 20.4841 16.3381 20.6276 16.2988 20.7657C16.2709 20.8677 16.1809 20.9527 16.1509 21.0547C16.1062 21.1973 16.0817 21.3454 16.078 21.4947C16.0708 21.5796 16.0958 21.6641 16.1481 21.7317C16.2005 21.7993 16.2764 21.8451 16.361 21.8602C16.8154 21.9898 17.2676 22.1301 17.7284 22.23C17.9869 22.2779 18.2503 22.295 18.5129 22.281C18.7538 22.2624 18.9934 22.2312 19.2309 22.1875C19.2586 22.1826 19.2859 22.1755 19.3124 22.1662C19.4839 22.1131 19.5589 22.0323 19.5503 21.9112C19.5376 21.8426 19.5027 21.78 19.4509 21.7328C19.399 21.6856 19.3331 21.6565 19.2631 21.6498C18.8374 21.6032 18.4371 21.4256 18.1185 21.1419C18.0071 21.0512 17.9025 20.9524 17.8056 20.8465C17.7656 20.7775 17.7291 20.7066 17.6963 20.634C17.6637 20.5913 17.6177 20.5606 17.5655 20.5468C17.3318 20.1469 17.2187 19.6889 17.2398 19.2271C17.2548 18.7319 17.274 18.2389 17.2976 17.7395C17.3169 17.3144 17.3298 16.9064 17.3769 16.492C17.4133 16.2731 17.4751 16.0591 17.5613 15.8544C17.6189 15.7486 17.6547 15.6324 17.6665 15.5127C17.6782 15.393 17.6658 15.2722 17.6298 15.1574C17.5214 14.8452 17.3322 14.5667 17.0811 14.3498C16.7811 14.1373 16.5131 13.8652 16.2088 13.6527C15.8423 13.3977 15.4543 13.1746 15.0771 12.9387C15.0016 12.8823 14.9196 12.8352 14.8327 12.7984C14.796 12.7892 14.7617 12.7724 14.732 12.749C14.7024 12.7257 14.678 12.6964 14.6606 12.6631C14.6432 12.6297 14.6331 12.5931 14.631 12.5556C14.6289 12.5182 14.6348 12.4807 14.6484 12.4456C14.732 12.0376 14.7984 11.6253 14.9099 11.2236C15.0691 10.6851 15.1901 10.1362 15.2721 9.58087C15.3247 9.30571 15.3964 9.03447 15.4865 8.76905L15.5508 8.7733Z" fill="url(#paint0_linear_2267_6437)"/>
<defs>
<linearGradient id="paint0_linear_2267_6437" x1="5.95695" y1="8.62821" x2="19.4579" y2="21.4942" gradientUnits="userSpaceOnUse">
<stop stop-color="#A57898"/>
<stop offset="1" stop-color="#5E3273"/>
</linearGradient>
</defs>
</svg>
