<svg width="22" height="24" viewBox="0 0 22 24" fill="none" xmlns="http://www.w3.org/2000/svg">
<path d="M19.9013 4.93691L12.3833 0.388855C11.9624 0.134111 11.4849 0 10.9988 0C10.5128 0 10.0353 0.134111 9.61438 0.388855L2.09881 4.93691C1.6777 5.19146 1.32801 5.55784 1.08496 5.99914C0.841916 6.44044 0.714083 6.94109 0.714356 7.45065V16.5494C0.714083 17.0589 0.841916 17.5596 1.08496 18.0009C1.32801 18.4422 1.6777 18.8085 2.09881 19.0631L9.61438 23.6111C10.0353 23.8659 10.5128 24 10.9988 24C11.4849 24 11.9624 23.8659 12.3833 23.6111L14.5193 22.3154L19.9013 19.0631C20.3221 18.8081 20.6715 18.4417 20.9145 18.0005C21.1575 17.5592 21.2856 17.0588 21.2858 16.5494V7.45065C21.2856 6.94119 21.1575 6.44075 20.9145 5.99954C20.6715 5.55833 20.3221 5.19187 19.9013 4.93691Z" fill="#E5FFFD"/>
<path d="M6.95778 18.7219C7.1245 19.2839 7.40143 19.7643 7.8419 20.1724C7.8419 20.1356 7.84022 20.111 7.8419 20.0866C7.85733 19.8912 7.88065 19.6964 7.88669 19.5009C7.89004 19.3924 7.86639 19.2831 7.85314 19.1745C7.82815 18.9804 7.80886 18.7864 7.77313 18.5942C7.73573 18.3927 7.67802 18.1946 7.63609 17.9938C7.57839 17.717 7.52153 17.4399 7.47406 17.1613C7.39019 16.6693 7.42542 16.1738 7.44236 15.6796C7.45209 15.3926 7.47155 15.106 7.48295 14.8192C7.48446 14.7781 7.46702 14.7358 7.45427 14.695C7.32862 14.2906 7.24986 13.874 7.21944 13.4528C7.19093 13.0704 7.20837 12.6899 7.23622 12.3085C7.24779 12.1468 7.22246 11.984 7.21843 11.8215C7.21273 11.5875 7.19948 11.3526 7.21106 11.1196C7.22269 10.9056 7.24908 10.6925 7.29006 10.4819C7.33736 10.2335 7.40378 9.98857 7.46567 9.74313C7.47691 9.6985 7.4811 9.67166 7.43062 9.64612C7.35329 9.60828 7.33501 9.54263 7.33786 9.4584C7.35329 9.02183 7.37308 8.58656 7.36923 8.15081C7.36654 7.84538 7.33048 7.53995 7.30549 7.23484C7.28083 6.93345 7.23034 6.63562 7.13775 6.34652C7.10421 6.24417 7.05791 6.14618 7.01732 6.04626L6.98864 6.04901C6.97422 6.10657 6.96549 6.16623 6.94419 6.22137C6.83348 6.50675 6.73637 6.79779 6.60487 7.07267C6.49768 7.29628 6.44133 7.52944 6.38228 7.7647C6.31033 8.05121 6.28651 8.34403 6.24373 8.63459C6.21355 8.82122 6.16173 9.00399 6.08925 9.17948C6.03726 9.30996 6.01897 9.44255 5.998 9.57643C5.95926 9.82203 5.92202 10.068 5.89217 10.3145C5.87942 10.4204 5.88864 10.5288 5.88478 10.6358C5.87925 10.7928 5.95976 10.9199 6.02518 11.0554C6.13119 11.2747 6.17866 11.5065 6.12716 11.7495C6.12381 11.7649 6.11592 11.7828 6.12079 11.7958C6.17949 11.9489 6.11659 12.097 6.10133 12.2467C6.09918 12.2839 6.08589 12.3197 6.06309 12.3497C6.01176 12.406 6.01545 12.4694 6.01277 12.536C6.00438 12.7451 5.9861 12.954 5.98207 13.163C5.97905 13.327 5.98979 13.4913 5.99767 13.6552C6.00639 13.8407 6.02099 14.0256 6.0287 14.2111C6.03742 14.4182 6.0396 14.6255 6.04782 14.8326C6.06208 15.1956 6.07969 15.5585 6.09428 15.9214C6.1077 16.2544 6.11827 16.5874 6.13135 16.9205C6.15238 17.4474 6.17385 17.9744 6.19576 18.5015C6.20214 18.6574 6.20935 18.8134 6.21455 18.9695C6.22646 19.3354 6.23602 19.7013 6.2491 20.0672C6.26453 20.5028 6.28265 20.9382 6.29942 21.3739C6.30143 21.43 6.32324 21.4559 6.37843 21.4763C6.55287 21.541 6.72094 21.6179 6.84187 21.7631C6.86153 21.7888 6.87808 21.8165 6.89119 21.8458C6.92037 21.9059 6.90511 21.9559 6.83634 21.9709C6.68873 22.0032 6.53962 22.0294 6.3905 22.0553C6.3536 22.0618 6.31804 22.0511 6.29204 22.0964C6.28332 22.1116 6.1914 22.1096 6.18318 22.0931C6.14964 22.0294 6.08925 22.0386 6.03642 22.0233C5.92823 21.9918 5.81669 21.9659 5.71403 21.9217C5.56559 21.8571 5.55318 21.7468 5.67411 21.639C5.77089 21.5526 5.87791 21.482 6.00874 21.4514C6.02159 21.4482 6.0342 21.4442 6.04648 21.4394C6.04648 21.2384 6.05051 21.0449 6.04531 20.8515C6.04078 20.685 6.0235 20.5186 6.01612 20.3519C6.0027 20.0481 5.99465 19.7441 5.98039 19.4405C5.9611 19.032 5.93729 18.6238 5.91699 18.2153C5.90324 17.9405 5.893 17.6669 5.88009 17.3927C5.86482 17.0654 5.84805 16.7381 5.83245 16.4109C5.82004 16.1502 5.8088 15.8894 5.79639 15.6288C5.77509 15.1801 5.75244 14.7314 5.73215 14.2826C5.71856 13.9842 5.71336 13.6854 5.69374 13.3875C5.68267 13.2199 5.65029 13.0539 5.62664 12.8872C5.62346 12.877 5.61859 12.8674 5.61222 12.8587C5.53825 12.7252 5.46411 12.5918 5.38913 12.4564C5.387 12.4569 5.38499 12.4578 5.38325 12.4591C5.38151 12.4604 5.38008 12.462 5.37907 12.4639C5.34334 12.5515 5.30644 12.5599 5.25059 12.482C5.17669 12.3816 5.10984 12.2765 5.05048 12.1675C5.00586 12.0833 4.95839 11.9896 4.95353 11.8988C4.94548 11.7473 4.96745 11.5937 4.98271 11.4417C5.01626 11.1112 5.07413 10.7841 5.0535 10.4483C5.03387 10.1289 5.04125 9.80797 5.04259 9.48766C5.0436 9.22411 5.04427 8.96023 5.06172 8.69748C5.07279 8.53062 5.1169 8.36586 5.14105 8.19948C5.18383 7.90343 5.24589 7.61012 5.24522 7.30808C5.24522 6.98826 5.30459 6.67507 5.40825 6.37029C5.44616 6.25904 5.48977 6.14958 5.52751 6.03818C5.53712 6.00733 5.54109 5.9751 5.53925 5.94294C5.51242 5.32383 5.72259 4.78217 6.11341 4.29856C6.1805 4.21626 6.23367 4.12296 6.30814 4.04859C6.37675 3.98019 6.46313 3.927 6.54549 3.87283C6.97359 3.58948 7.42976 3.3477 7.90732 3.15105C8.02138 3.10432 8.04251 2.98661 8.0405 2.88814C8.03748 2.74262 8.00142 2.5971 7.97928 2.45158C7.88216 2.48715 7.82831 2.46532 7.7743 2.37348C7.6605 2.1807 7.58774 1.96797 7.56028 1.74774C7.52069 1.44215 7.51549 1.13591 7.64028 0.845032C7.832 0.398931 8.17233 0.116297 8.66748 0.0204155C9.0365 -0.0507279 9.34597 0.0697308 9.63095 0.293671C9.88574 0.493842 10.0503 0.741227 10.1204 1.04698C10.1905 1.35274 10.1539 1.64879 10.0471 1.9387C10 2.07232 9.9419 2.20208 9.87332 2.32675C9.80354 2.44964 9.71096 2.47923 9.57258 2.45093C9.55882 2.58174 9.53702 2.7119 9.535 2.84238C9.53417 2.89865 9.57593 2.95557 9.59455 3.01248C9.61652 3.08039 9.66684 3.09882 9.73477 3.11483C10.2239 3.22979 10.6793 3.42996 11.1291 3.6421C11.1701 3.6615 11.1962 3.70936 11.2298 3.74348C11.3821 3.89708 11.5389 4.04713 11.6865 4.20494C12.0156 4.55726 12.2469 4.96569 12.3643 5.42392C12.423 5.65287 12.5383 5.84593 12.6527 6.04658C12.8551 6.4023 12.9848 6.78534 13.072 7.18035C13.1193 7.39394 13.199 7.59331 13.2951 7.78863C13.4202 8.0428 13.4665 8.31622 13.511 8.59045C13.5537 8.85432 13.5977 9.11788 13.6393 9.38175C13.6757 9.61168 13.7064 9.84241 13.7451 10.072C13.7813 10.2904 13.826 10.507 13.9234 10.7105C13.9999 10.8703 14.0744 11.0311 14.139 11.1956C14.1571 11.2417 14.139 11.3026 14.1311 11.356C14.0994 11.5701 14.0697 11.7846 14.0288 11.9972C14.0182 12.0521 13.9784 12.1091 13.9353 12.1489C13.8827 12.1974 13.8713 12.2429 13.8972 12.3048C13.9128 12.3418 13.9226 12.3811 13.9348 12.4194C13.9388 12.432 13.9496 12.4475 13.9456 12.4573C13.8845 12.6005 13.984 12.716 14.0251 12.8363C14.3198 13.7044 14.622 14.57 14.9228 15.4364C15.2471 16.3707 15.5718 17.305 15.8971 18.2391C16.0457 18.666 16.1925 19.0935 16.3457 19.5187C16.372 19.5877 16.4128 19.6507 16.4654 19.7038C16.5976 19.8395 16.7479 19.9554 16.9334 20.0174C16.9518 20.0221 16.9711 20.0229 16.9898 20.0197C17.0086 20.0166 17.0264 20.0095 17.0421 19.9991C17.5143 19.6133 17.9881 19.229 18.4527 18.8349C18.7919 18.547 19.1222 18.249 19.4486 17.9474C19.5985 17.8088 19.7295 17.6512 19.8645 17.5068C20.0267 17.7996 20.0308 18.2412 19.752 18.517C19.4994 18.767 19.2261 18.9981 18.9569 19.232C18.6525 19.4966 18.3425 19.7551 18.0344 20.0157C17.8457 20.1755 17.6542 20.3322 17.4688 20.4955C17.4171 20.5409 17.3915 20.6138 17.3396 20.6586C17.2008 20.7783 17.0545 20.8895 16.9106 21.0037C16.898 21.0124 16.8847 21.0202 16.8708 21.027C16.8697 21.0306 16.869 21.0344 16.8687 21.0383C16.8811 21.2304 17.0196 21.2514 17.1795 21.2685C17.2892 21.2803 17.3963 21.3274 17.5005 21.3684C17.5457 21.3896 17.5847 21.4212 17.6141 21.4604C17.6523 21.5075 17.6578 21.5639 17.5931 21.5972C17.4574 21.6671 17.3192 21.7322 17.1816 21.7989C17.1521 21.8133 17.1171 21.8111 17.1124 21.8622C17.1077 21.9133 17.0441 21.9162 16.9899 21.8854C16.9619 21.8709 16.9307 21.8629 16.8988 21.8621C16.7571 21.8551 16.6137 21.8584 16.474 21.844C16.3638 21.8327 16.3185 21.7418 16.3618 21.6414C16.4154 21.5167 16.5067 21.4197 16.6177 21.3406C16.7108 21.2743 16.7125 21.276 16.6565 21.172C16.3747 21.4048 16.0944 21.6388 15.8114 21.8695C15.4411 22.1716 15.0734 22.477 14.6957 22.77C14.2621 23.1063 13.8191 23.4314 13.3785 23.7592C13.2944 23.8206 13.2064 23.8768 13.1149 23.9273C12.9157 24.0396 12.7983 24.0234 12.6305 23.8675C12.5924 23.8319 12.5579 23.7923 12.5173 23.7597C12.4148 23.677 12.4036 23.6036 12.5032 23.4733C12.6428 23.2906 12.8347 23.1634 13.0202 23.0301C13.493 22.6906 13.9682 22.3541 14.4385 22.0115C14.7495 21.7851 15.0544 21.5513 15.3601 21.3182C15.3991 21.2884 15.4251 21.2423 15.458 21.2027C15.293 21.0055 15.244 20.7767 15.2042 20.5445C15.166 20.3207 15.1477 20.0908 15.0798 19.8754C15.0227 19.6946 14.9072 19.5308 14.8169 19.3598C14.5219 18.8 14.1052 18.3188 13.7367 17.8064C13.4549 17.4148 13.1664 17.0274 12.89 16.6322C12.675 16.325 12.5354 15.9805 12.4036 15.6333C12.367 15.5363 12.307 15.4479 12.2541 15.3573C12.1641 15.2035 12.0775 15.0474 11.9775 14.8996C11.9081 14.7967 11.8123 14.7107 11.7392 14.61C11.4941 14.2722 11.2445 13.937 11.0142 13.59C10.7358 13.1706 10.4758 12.7397 10.2063 12.315C10.16 12.242 10.0971 12.1782 10.0553 12.103C9.97849 11.9628 9.83474 11.9664 9.70525 11.939C9.69167 11.9361 9.66181 11.961 9.65493 11.9785C9.55782 12.2331 9.456 12.4823 9.44476 12.7635C9.43185 13.0869 9.38857 13.4102 9.33372 13.7289C9.24986 14.2179 9.15526 14.7059 9.04405 15.1896C8.98165 15.4608 8.96555 15.7345 8.92764 16.007C8.90499 16.17 8.97293 16.3163 8.98769 16.4717C9.00631 16.6686 9.05092 16.8636 9.0625 17.0607C9.08313 17.4121 9.1041 17.7647 9.09437 18.1161C9.08145 18.585 9.15274 19.0492 9.1581 19.516C9.16213 19.8612 9.25187 20.1951 9.27971 20.5346C9.30386 20.831 9.33691 21.1295 9.26546 21.4239C9.25137 21.4821 9.21882 21.5361 9.18846 21.6071C9.22855 21.6506 9.27954 21.7062 9.33104 21.7613C9.71179 22.1693 10.0966 22.574 10.4716 22.9866C10.6102 23.1391 10.7423 23.3016 10.848 23.4759C10.9537 23.6502 10.9015 23.7669 10.7216 23.8347C10.632 23.8683 10.5432 23.9062 10.4507 23.9299C10.3379 23.959 10.2432 23.9138 10.1674 23.8329C9.6598 23.2971 9.15263 22.7608 8.64585 22.2241C8.44725 22.0139 8.25368 21.7982 8.05559 21.587C7.92459 21.4477 7.78487 21.3157 7.65739 21.1734C7.4541 20.9471 7.23638 20.7273 7.06362 20.4798C6.83013 20.1453 6.6946 19.7684 6.70198 19.3562C6.70752 19.1258 6.79273 18.9188 6.95778 18.7219ZM15.4451 17.8003L15.4557 17.797C15.4539 17.7823 15.4511 17.7676 15.4471 17.7532C15.2307 17.1407 15.0141 16.5284 14.7971 15.9163C14.4805 15.0246 14.1671 14.1319 13.8422 13.2431C13.7565 13.0084 13.723 12.7491 13.5403 12.5536C13.4913 12.5675 13.4471 12.5816 13.4019 12.5927C13.2916 12.6197 13.1767 12.5119 13.1919 12.4052C13.1951 12.3655 13.1866 12.3258 13.1674 12.2905C13.1171 12.1935 13.0421 12.1043 13.0125 12.0024C12.9756 11.8755 12.9735 11.7389 12.9574 11.6063C12.9254 11.3453 12.9455 11.0869 12.9985 10.8302C13.0103 10.7728 13.0289 10.7123 13.021 10.6565C12.9984 10.4981 12.9841 10.3343 12.9298 10.185C12.7798 9.77288 12.6248 9.36122 12.4455 8.96039C12.2925 8.61842 12.1362 8.28243 12.1119 7.90391C12.1064 7.81822 12.0951 7.72347 12.053 7.65135C11.9215 7.42822 11.7753 7.21301 11.632 6.99635C11.446 6.71485 11.2479 6.43981 11.1347 6.11999L11.0545 5.89363L11.0278 5.89573C11.0278 6.07359 11.0314 6.25031 11.0278 6.42752C11.0214 6.80346 11.0507 7.17917 11.1152 7.54997C11.1994 8.05564 11.3385 8.55137 11.5304 9.02895C11.5975 9.19565 11.5953 9.1963 11.4457 9.27617C11.6105 9.56074 11.7823 9.84208 11.9383 10.1309C12.1531 10.5261 12.3266 10.941 12.4561 11.3694C12.4853 11.475 12.527 11.5771 12.5804 11.6735C12.8845 12.1945 13.1364 12.7365 13.3098 13.311C13.3722 13.5178 13.4152 13.7314 13.4875 13.9341C13.5797 14.1928 13.6916 14.4468 13.7973 14.7018C13.833 14.7878 13.8553 14.891 13.9191 14.9521C14.1279 15.1523 14.2881 15.3833 14.4149 15.6344C14.5132 15.8285 14.5826 16.0343 14.6762 16.2306C14.8314 16.5582 14.9949 16.8824 15.1542 17.208C15.2511 17.4053 15.3478 17.603 15.4451 17.8003Z" fill="url(#paint0_linear_2267_6858)"/>
<defs>
<linearGradient id="paint0_linear_2267_6858" x1="12.4639" y1="0" x2="12.4639" y2="24" gradientUnits="userSpaceOnUse">
<stop stop-color="#9DCDCB"/>
<stop offset="1" stop-color="#205C60"/>
</linearGradient>
</defs>
</svg>
