<svg width="172" height="36" viewBox="0 0 172 36" fill="none" xmlns="http://www.w3.org/2000/svg">
<g clip-path="url(#clip0_429_14579)">
<path d="M16.4776 34.5799C13.2096 34.5799 10.148 34.1264 7.3186 33.2282C4.4978 32.3299 2.064 30.9867 0 29.1901L5.7362 22.3888C7.482 23.7234 9.3224 24.6987 11.2402 25.2633C13.1752 25.8622 15.0844 26.1445 16.985 26.1445C17.9654 26.1445 18.662 26.0162 19.092 25.7766C19.522 25.52 19.737 25.1949 19.737 24.7757V24.6901C19.737 24.2196 19.4188 23.8346 18.791 23.5352C18.1718 23.2358 16.985 22.9107 15.2822 22.577C13.4762 22.2177 11.7562 21.7814 10.1222 21.2938C8.4882 20.8147 7.0434 20.1816 5.805 19.4287C4.5666 18.6588 3.569 17.7177 2.8466 16.5542C2.1156 15.3907 1.7544 13.9877 1.7544 12.3023V12.2168C1.7544 10.6768 2.0468 9.27379 2.6488 7.96485C3.2508 6.65592 4.1108 5.50953 5.2632 4.5428C6.4156 3.56751 7.8432 2.80611 9.546 2.25002C11.2402 1.71105 13.1924 1.43729 15.394 1.43729C18.5158 1.43729 21.242 1.7966 23.5898 2.53234C25.9376 3.25953 28.036 4.35459 29.9108 5.81751L24.6648 13.0295C23.193 11.9664 21.5539 11.154 19.8144 10.6255C18.1116 10.1122 16.5206 9.85554 15.0156 9.85554C14.2244 9.85554 13.6396 9.99242 13.2526 10.232C12.8656 10.4886 12.6764 10.7966 12.6764 11.1901V11.2757C12.6764 11.7034 12.9688 12.0799 13.5536 12.3879C14.1298 12.6873 15.2736 13.0038 16.942 13.3289C18.9888 13.7053 20.855 14.1502 22.532 14.6635C24.2176 15.1768 25.671 15.8441 26.875 16.6483C28.079 17.4611 29.025 18.4192 29.6786 19.5571C30.3408 20.6692 30.6762 22.038 30.6762 23.6635V23.7491C30.6762 25.4259 30.3322 26.9401 29.6614 28.2833C28.9906 29.6179 28.0274 30.7472 26.8234 31.6797C25.5936 32.6207 24.1058 33.3223 22.3514 33.8185C20.6314 34.3318 18.6534 34.5884 16.4862 34.5884L16.4776 34.5799Z" fill="#FC4C02"/>
<path d="M39.517 11.0532H30.057V2.01901H59.727V11.0532H50.267V33.981H39.517V11.0532ZM76.626 17.23C77.8988 17.23 78.9136 16.9477 79.636 16.4002C80.3756 15.8527 80.754 15.0913 80.754 14.116V14.0304C80.754 13.0038 80.3756 12.2338 79.636 11.7205C78.9136 11.2243 77.916 10.9677 76.6604 10.9677H71.982V17.23H76.626ZM61.232 2.01901H76.9356C79.8166 2.01901 82.1816 2.36122 84.0306 3.00285C85.8882 3.64449 87.3846 4.54278 88.5026 5.65494C89.4916 6.63878 90.2226 7.73384 90.7214 8.94867C91.203 10.1721 91.4524 11.6008 91.4524 13.2433V13.3289C91.4524 15.6816 90.8848 17.6578 89.7496 19.2662C88.6316 20.8916 87.0836 22.1749 85.1056 23.116L92.5876 33.981H80.3412L74.2868 24.8527H71.982V33.981H61.232V2.01901Z" fill="#FC4C02"/>
<path d="M106.571 20.2329L113.572 33.981H123.866L106.58 0.0171204L89.2938 33.981H99.5708L106.571 20.2329ZM130.634 15.7586L123.642 2.01902H113.348L130.634 35.9829L147.92 2.01902H137.643L130.634 15.7586ZM154.714 20.2329L161.706 33.981H172L154.714 0.0171204L137.411 33.981H147.705L154.705 20.2329H154.714Z" fill="#FC4C02"/>
</g>
<defs>
<clipPath id="clip0_429_14579">
<rect width="172" height="36" fill="white"/>
</clipPath>
</defs>
</svg>
