<svg width="204" height="64" viewBox="0 0 204 64" fill="none" xmlns="http://www.w3.org/2000/svg">
<g clip-path="url(#clip0_429_14578)">
<path d="M32.4776 48.5799C29.2096 48.5799 26.148 48.1264 23.3186 47.2282C20.4978 46.3299 18.064 44.9867 16 43.1901L21.7362 36.3888C23.482 37.7234 25.3224 38.6987 27.2402 39.2633C29.1752 39.8622 31.0844 40.1445 32.985 40.1445C33.9654 40.1445 34.662 40.0162 35.092 39.7766C35.522 39.52 35.737 39.1949 35.737 38.7757V38.6901C35.737 38.2196 35.4188 37.8346 34.791 37.5352C34.1718 37.2358 32.985 36.9107 31.2822 36.577C29.4762 36.2177 27.7562 35.7814 26.1222 35.2938C24.4882 34.8147 23.0434 34.1816 21.805 33.4287C20.5666 32.6588 19.569 31.7177 18.8466 30.5542C18.1156 29.3907 17.7544 27.9877 17.7544 26.3023V26.2168C17.7544 24.6768 18.0468 23.2738 18.6488 21.9649C19.2508 20.6559 20.1108 19.5095 21.2632 18.5428C22.4156 17.5675 23.8432 16.8061 25.546 16.25C27.2402 15.7111 29.1924 15.4373 31.394 15.4373C34.5158 15.4373 37.242 15.7966 39.5898 16.5323C41.9376 17.2595 44.036 18.3546 45.9108 19.8175L40.6648 27.0295C39.193 25.9664 37.5539 25.154 35.8144 24.6255C34.1116 24.1122 32.5206 23.8555 31.0156 23.8555C30.2244 23.8555 29.6396 23.9924 29.2526 24.232C28.8656 24.4886 28.6764 24.7966 28.6764 25.1901V25.2757C28.6764 25.7034 28.9688 26.0799 29.5536 26.3879C30.1298 26.6873 31.2736 27.0038 32.942 27.3289C34.9888 27.7053 36.855 28.1502 38.532 28.6635C40.2176 29.1768 41.671 29.8441 42.875 30.6483C44.079 31.4611 45.025 32.4192 45.6786 33.5571C46.3408 34.6692 46.6762 36.038 46.6762 37.6635V37.7491C46.6762 39.4259 46.3322 40.9401 45.6614 42.2833C44.9906 43.6179 44.0274 44.7472 42.8234 45.6797C41.5936 46.6207 40.1058 47.3223 38.3514 47.8185C36.6314 48.3318 34.6534 48.5884 32.4862 48.5884L32.4776 48.5799Z" fill="#FC4C02"/>
<path d="M55.517 25.0532H46.057V16.019H75.727V25.0532H66.267V47.981H55.517V25.0532ZM92.626 31.23C93.8988 31.23 94.9136 30.9477 95.636 30.4002C96.3756 29.8527 96.754 29.0913 96.754 28.116V28.0304C96.754 27.0038 96.3756 26.2338 95.636 25.7205C94.9136 25.2243 93.916 24.9677 92.6604 24.9677H87.982V31.23H92.626ZM77.232 16.019H92.9356C95.8166 16.019 98.1816 16.3612 100.031 17.0029C101.888 17.6445 103.385 18.5428 104.503 19.6549C105.492 20.6388 106.223 21.7338 106.721 22.9487C107.203 24.1721 107.452 25.6008 107.452 27.2433V27.3289C107.452 29.6816 106.885 31.6578 105.75 33.2662C104.632 34.8916 103.084 36.1749 101.106 37.116L108.588 47.981H96.3412L90.2868 38.8527H87.982V47.981H77.232V16.019Z" fill="#FC4C02"/>
<path d="M122.571 34.2329L129.572 47.981H139.866L122.58 14.0171L105.294 47.981H115.571L122.571 34.2329ZM146.634 29.7586L139.642 16.019H129.348L146.634 49.9829L163.92 16.019H153.643L146.634 29.7586ZM170.714 34.2329L177.706 47.981H188L170.714 14.0171L153.411 47.981H163.705L170.705 34.2329H170.714Z" fill="#FC4C02"/>
</g>
<defs>
<clipPath id="clip0_429_14578">
<rect width="172" height="36" fill="white" transform="translate(16 14)"/>
</clipPath>
</defs>
</svg>
