<svg width="180" height="54" viewBox="0 0 180 54" fill="none" xmlns="http://www.w3.org/2000/svg">
<g id="suunto-2 1" clip-path="url(#clip0_429_14569)">
<path id="Vector" d="M90.5298 0.00543308L80.8618 13.4017H100.298L90.5298 0.00543308Z" fill="#ED1A3A"/>
<path id="Vector_2" d="M13.9098 24.4219C20.2501 24.4219 24.2772 26.6011 25.6692 27.5853L22.1407 31.8158C20.9045 30.8282 18.1794 29.3603 13.7124 29.3603C8.97893 29.3603 7.28568 30.949 7.28568 32.4652C7.28568 34.2229 8.34174 35.0069 15.3226 35.9809C24.3015 37.2379 27.3072 40.4877 27.3072 44.6215C27.3072 50.862 20.8734 53.9943 13.3386 53.9943C7.09878 53.9943 2.51734 51.9707 0 49.3772L4.16211 45.8925C5.46062 47.1565 8.64998 49.0627 13.3523 49.0627C18.0237 49.0627 21.3063 47.4534 21.3063 45.3192C21.3063 43.2195 19.3256 42.6497 12.5419 41.5998C4.70232 40.3772 1.3124 37.2483 1.3124 33.0798C1.3124 28.7008 5.30149 24.4219 13.9098 24.4219ZM138.683 53.2796H132.695L132.689 30.4724H123.166V25.2715H148.209V30.469L138.679 30.4724L138.683 53.2796ZM119.087 53.2796H113.844L99.4844 34.5131L99.4912 53.2796H93.9475L93.9441 25.2715H99.4566L113.533 43.3646V25.2715H119.08L119.087 53.2796ZM75.5535 48.852C80.2281 48.852 82.008 46.1479 82.008 42.5218V25.2679H87.9952V42.7082C87.9952 51.159 81.1701 53.9909 75.5535 53.9909C69.6633 53.9909 62.9595 51.159 62.9595 42.7082V25.2681H68.9467L68.943 42.5221C68.943 46.0862 70.8787 48.852 75.5535 48.852ZM44.4858 48.852C49.1572 48.852 50.9437 46.1479 50.9437 42.5218L50.9403 25.2679H56.9275L56.9207 42.7082C56.9207 51.159 50.1058 53.9909 44.4858 53.9909C38.592 53.9909 31.8952 51.159 31.8952 42.7082L31.8884 25.2679H37.8756V42.5218C37.8756 46.086 39.811 48.852 44.4858 48.852ZM155.082 39.2063C155.082 45.5195 159.154 49.1283 164.442 49.1283C169.73 49.1283 173.798 45.5195 173.798 39.2065C173.798 32.8934 169.73 29.2845 164.442 29.2845C159.154 29.2845 155.082 32.8934 155.082 39.2063ZM148.88 39.2063C148.88 30.3067 155.848 24.4219 164.442 24.4219C173.033 24.4219 180 30.3069 180 39.2065C180 47.8333 173.033 53.9943 164.442 53.9943C155.848 53.9943 148.88 48.1166 148.88 39.2065" fill="#231F20"/>
</g>
<defs>
<clipPath id="clip0_429_14569">
<rect width="180" height="54" fill="white"/>
</clipPath>
</defs>
</svg>
