<svg width="48" height="48" viewBox="0 0 48 48" fill="none" xmlns="http://www.w3.org/2000/svg">
<path d="M42.6613 9.87382L26.8999 0.77771C26.0174 0.268222 25.0164 0 23.9974 0C22.9785 0 21.9774 0.268222 21.095 0.77771L5.33876 9.87382C4.45591 10.3829 3.72279 11.1157 3.21325 11.9983C2.70371 12.8809 2.43571 13.8822 2.43628 14.9013V33.0987C2.43571 34.1178 2.70371 35.1191 3.21325 36.0017C3.72279 36.8843 4.45591 37.6171 5.33876 38.1262L21.095 47.2223C21.9774 47.7318 22.9785 48 23.9974 48C25.0164 48 26.0174 47.7318 26.8999 47.2223L31.378 44.6308L42.6613 38.1262C43.5434 37.6163 44.276 36.8833 44.7854 36.0009C45.2949 35.1185 45.5633 34.1176 45.5638 33.0987V14.9013C45.5633 13.8824 45.2949 12.8815 44.7854 11.9991C44.276 11.1167 43.5434 10.3837 42.6613 9.87382Z" fill="#EEFAFF"/>
<path d="M20.4673 22.0463C19.9188 21.4922 19.1757 21.4957 18.4758 21.3828C18.2801 21.3507 18.1055 21.4042 18.0196 21.6551C17.858 22.1293 17.4935 22.4577 17.0588 22.6715C16.5191 22.9363 16.3204 23.4048 16.1537 23.9242C16.0847 24.141 15.9396 24.3331 15.854 24.5472C15.7247 24.8693 15.5281 25.1988 15.5207 25.5285C15.5055 26.2202 15.1303 26.6215 14.6032 26.9524C14.439 27.0626 14.2679 27.1621 14.091 27.2504C13.8226 27.373 13.6511 27.285 13.6257 26.9176C13.1211 27.4357 12.6532 27.9129 12.1853 28.3953C12.1174 28.4673 12.0437 28.5337 11.965 28.5938C11.6414 28.8293 11.4958 28.774 11.3823 28.3745C11.3657 28.3817 11.3482 28.3875 11.3318 28.3962L10.8986 28.6389C10.8633 28.4484 10.8233 28.2578 10.7948 28.0663C10.7672 27.8906 10.776 27.707 10.7291 27.5405C10.6079 27.1069 10.8458 26.7563 11.0706 26.479C11.6453 25.776 12.2818 25.1185 12.9193 24.4677C13.122 24.2604 13.3988 24.1228 13.6508 23.9698C13.7878 23.8842 13.9049 23.7703 13.994 23.6358C14.0831 23.5013 14.1422 23.3493 14.1673 23.1902C14.3497 22.2609 14.489 21.3223 14.7119 20.4012C14.8611 19.7797 14.8803 19.1096 15.3886 18.5955C15.8113 18.1684 16.315 17.9085 16.8619 17.7337C17.5028 17.5296 18.1604 17.3543 18.847 17.4172C19.0903 17.4432 19.3309 17.4897 19.5663 17.5561C20.887 17.9099 22.2342 17.8261 23.5793 17.8269C24.3357 17.8298 25.0275 18.117 25.6719 18.5082C25.8649 18.6257 26.0585 18.7415 26.309 18.8921C26.3186 18.464 26.2942 18.0933 26.3421 17.7328C26.5092 16.4812 27.2019 15.5843 28.3218 15.0476C29.0486 14.696 29.8298 14.5043 30.6512 14.7007C31.6293 14.9299 32.3535 15.5161 32.9494 16.2932C33.5024 17.0135 33.7119 17.8475 33.7932 18.7269C33.7999 18.85 33.7935 18.9734 33.7742 19.0952C33.7106 19.6305 33.6345 20.164 33.5765 20.7001C33.5261 21.1675 33.2766 21.464 32.8546 21.6559C32.7498 21.703 32.6875 21.8453 32.6054 21.944L32.6803 22.0295C33.0623 21.8469 33.4576 21.686 33.8239 21.4768C34.4893 21.0965 35.1366 20.6839 35.791 20.2923C35.9433 20.2073 36.0758 20.0911 36.1799 19.9515C36.284 19.8118 36.3573 19.6519 36.395 19.4821C36.6131 18.4232 37.1859 17.5267 37.7451 16.637C38.2915 15.7685 38.9257 14.9551 39.5147 14.1128C39.9154 13.5405 39.9087 12.8761 39.9142 12.2212C39.9221 11.2243 39.8933 10.2333 39.9325 9.23996C39.9392 9.07196 40.186 8.81721 40.3668 8.76889C40.9975 8.5932 41.5348 8.37168 41.895 7.75679C42.0809 7.43733 42.4674 7.23031 42.7733 6.98465C43.3028 6.56142 43.9284 6.24562 44.2472 5.59741C44.2828 5.52853 44.3318 5.46735 44.3912 5.41739C44.4507 5.36742 44.5195 5.32968 44.5936 5.30633C44.8959 5.24275 45.1435 5.32636 45.1195 5.71688C45.1052 5.94888 45.0992 6.18418 45.082 6.4174C45.0726 6.5483 45.0462 6.67882 45.0296 6.81314C45.5763 6.8176 45.6189 6.85379 45.5271 7.37061C45.4469 7.88127 45.2251 8.35964 44.8867 8.75172C44.3488 9.3662 44.0505 10.1253 43.8534 10.9213C43.7104 11.4799 43.6433 12.0801 43.2242 12.5304C43.0675 12.6983 42.8453 12.8059 42.6945 12.9767C42.455 13.2441 42.1645 13.5195 42.0494 13.8439C41.4955 15.4626 40.9995 17.0967 40.4705 18.7222C40.1512 19.7044 39.7983 20.6444 39.0165 21.4152C38.3022 22.1202 37.7753 23.0102 37.1131 23.7728C36.1816 24.8436 35.1544 25.8137 33.9189 26.5493C33.1246 27.0104 32.3997 27.5812 31.766 28.2447C31.4197 28.6154 31.1371 29.0435 30.7968 29.4178C30.1211 30.1581 29.3512 30.7937 28.4365 31.217C27.7631 31.5319 27.0472 31.7577 26.3823 32.0874C25.7756 32.3873 25.1947 32.7366 24.6454 33.1315C24.0445 33.5652 23.5178 34.099 22.9231 34.5425C22.5431 34.8258 22.1001 35.0264 21.6823 35.2598C21.198 35.5296 20.7268 35.8296 20.2212 36.0523C19.5737 36.3363 18.9166 36.608 18.2371 36.786C17.5475 36.9563 16.8449 37.0687 16.1367 37.1222C15.1773 37.2078 14.2118 37.2539 13.2484 37.2697C12.6238 37.2783 12.1349 36.3649 12.3709 35.6546C12.4819 35.3186 12.665 35.0057 12.829 34.6544C12.3907 34.6942 11.9677 34.7132 11.6841 35.1254C11.2415 35.7639 10.5294 35.9892 9.86603 36.2795C9.51408 36.4328 9.15627 36.5733 8.80333 36.7253C8.59489 36.8043 8.3928 36.899 8.19882 37.0087C7.90954 37.1889 7.57475 37.3242 7.46255 37.7064C7.31433 38.2313 6.85977 38.4804 6.41279 38.6456C5.71136 38.9044 5.07589 39.162 4.75106 39.9284C4.63545 40.2008 4.25632 40.3622 3.99918 40.5757C3.85903 40.6919 3.68735 40.7886 3.59399 40.9335C3.38908 41.2444 3.0759 41.2921 2.76631 41.2795C2.6657 41.2754 2.48409 41.0397 2.49325 40.9219C2.55994 40.069 2.7437 39.1977 3.38748 38.6209C3.82509 38.2297 4.13267 37.6913 4.60687 37.4008C5.63018 36.7728 6.15998 35.7644 6.80501 34.8482C7.45004 33.932 8.15697 33.121 9.08266 32.4884C9.29124 32.3477 9.44152 32.105 9.56938 31.8812C10.2995 30.6063 11.3363 29.594 12.4278 28.6467C12.9754 28.1719 13.6461 27.8605 14.363 27.7483C15.0654 27.6326 15.7796 27.4652 16.4273 27.1827C17.0033 26.9329 17.5487 26.5424 17.8604 25.9619C18.0193 25.6666 18.0617 25.31 18.1603 24.9828C18.4174 24.1183 18.9724 23.4414 19.5781 22.8086C19.8523 22.5228 20.1815 22.288 20.4673 22.0463Z" fill="url(#paint0_linear_2347_691)"/>
<defs>
<linearGradient id="paint0_linear_2347_691" x1="26.7524" y1="2.94995" x2="21.4748" y2="43.7026" gradientUnits="userSpaceOnUse">
<stop stop-color="#476C89"/>
<stop offset="1" stop-color="#76A6CB"/>
</linearGradient>
</defs>
</svg>
