<svg width="42" height="46" viewBox="0 0 42 46" fill="none" xmlns="http://www.w3.org/2000/svg">
<path d="M38.8452 9.46241L23.7405 0.745306C22.8948 0.257046 21.9355 0 20.959 0C19.9825 0 19.0231 0.257046 18.1774 0.745306L3.07775 9.46241C2.23168 9.95031 1.52911 10.6525 1.0408 11.4984C0.552489 12.3442 0.295656 13.3037 0.296204 14.2804V31.7196C0.295656 32.6963 0.552489 33.6558 1.0408 34.5016C1.52911 35.3475 2.23168 36.0497 3.07775 36.5376L18.1774 45.2547C19.0231 45.743 19.9825 46 20.959 46C21.9355 46 22.8948 45.743 23.7405 45.2547L28.032 42.7712L38.8452 36.5376C39.6906 36.0489 40.3926 35.3465 40.8808 34.5009C41.369 33.6552 41.6263 32.696 41.6267 31.7196V14.2804C41.6263 13.3039 41.369 12.3448 40.8808 11.4991C40.3926 10.6535 39.6906 9.95108 38.8452 9.46241Z" fill="#D9F4FE"/>
<path d="M17.5747 21.1274C17.0491 20.5964 16.337 20.5997 15.6663 20.4915C15.4787 20.4608 15.3113 20.5121 15.229 20.7525C15.0742 21.207 14.7249 21.5217 14.3083 21.7266C13.791 21.9803 13.6007 22.4293 13.4409 22.9271C13.3748 23.1349 13.2357 23.3189 13.1537 23.5241C13.0297 23.8327 12.8413 24.1486 12.8342 24.4646C12.8197 25.1274 12.4601 25.5119 11.955 25.8291C11.7976 25.9347 11.6337 26.0301 11.4641 26.1147C11.2069 26.2322 11.0426 26.1479 11.0182 25.7958C10.5347 26.2923 10.0862 26.7495 9.63785 27.2119C9.57274 27.2809 9.50215 27.3445 9.42675 27.4021C9.11657 27.6278 8.97707 27.5748 8.86826 27.1919C8.85239 27.1988 8.83559 27.2044 8.81994 27.2127L8.40473 27.4453C8.37088 27.2627 8.33261 27.0801 8.30523 26.8966C8.27879 26.7282 8.28724 26.5522 8.24227 26.3927C8.12613 25.9772 8.35411 25.6412 8.56955 25.3754C9.12032 24.7017 9.73027 24.0716 10.3412 23.4479C10.5355 23.2493 10.8007 23.1174 11.0423 22.9708C11.1736 22.8887 11.2858 22.7796 11.3712 22.6507C11.4566 22.5218 11.5132 22.3761 11.5373 22.2236C11.712 21.3331 11.8456 20.4336 12.0591 19.5509C12.2021 18.9552 12.2206 18.3131 12.7077 17.8204C13.1128 17.4111 13.5954 17.162 14.1196 16.9945C14.7337 16.7989 15.364 16.6309 16.022 16.6912C16.2551 16.7161 16.4857 16.7607 16.7113 16.8243C17.9769 17.1634 19.268 17.0831 20.5571 17.0838C21.2819 17.0866 21.945 17.3618 22.5625 17.7367C22.7475 17.8493 22.933 17.9603 23.173 18.1046C23.1823 17.6944 23.1589 17.3392 23.2048 16.9936C23.3649 15.7942 24.0287 14.9346 25.102 14.4203C25.7985 14.0833 26.5472 13.8996 27.3343 14.0879C28.2717 14.3075 28.9657 14.8693 29.5367 15.614C30.0667 16.3043 30.2675 17.1036 30.3454 17.9463C30.3518 18.0643 30.3457 18.1826 30.3272 18.2993C30.2663 18.8123 30.1933 19.3236 30.1377 19.8373C30.0895 20.2852 29.8504 20.5694 29.4459 20.7533C29.3454 20.7984 29.2858 20.9348 29.2071 21.0294L29.2789 21.1113C29.6449 20.9363 30.0238 20.7821 30.3748 20.5816C31.0125 20.2172 31.6328 19.8218 32.2599 19.4465C32.4059 19.365 32.5329 19.2537 32.6327 19.1199C32.7324 18.9861 32.8027 18.8328 32.8388 18.6701C33.0478 17.6552 33.5967 16.7962 34.1326 15.9435C34.6563 15.1112 35.2641 14.3317 35.8285 13.5244C36.2125 12.976 36.2061 12.3393 36.2114 11.7117C36.219 10.7564 36.1913 9.80662 36.2289 8.85468C36.2353 8.69368 36.4718 8.44955 36.6451 8.40323C37.2495 8.23487 37.7644 8.02258 38.1096 7.43331C38.2877 7.12716 38.6582 6.92876 38.9514 6.69334C39.4588 6.28774 40.0583 5.9851 40.3638 5.3639C40.3979 5.29789 40.4449 5.23926 40.5018 5.19138C40.5588 5.1435 40.6247 5.10732 40.6958 5.08494C40.9854 5.02402 41.2228 5.10415 41.1998 5.47839C41.1861 5.70072 41.1803 5.92622 41.1638 6.14972C41.1548 6.27517 41.1295 6.40025 41.1136 6.52898C41.6375 6.53325 41.6783 6.56793 41.5904 7.06322C41.5136 7.5526 41.301 8.01103 40.9766 8.38678C40.4612 8.97565 40.1753 9.70313 39.9864 10.466C39.8494 11.0013 39.785 11.5765 39.3834 12.0081C39.2333 12.1689 39.0203 12.2721 38.8758 12.4357C38.6463 12.6919 38.3679 12.9559 38.2576 13.2668C37.7268 14.818 37.2514 16.3841 36.7445 17.9418C36.4384 18.8831 36.1002 19.784 35.3511 20.5226C34.6665 21.1982 34.1616 22.0511 33.5269 22.782C32.6343 23.8081 31.6499 24.7378 30.4658 25.4428C29.7046 25.8846 29.01 26.4317 28.4027 27.0675C28.0708 27.4228 27.8 27.833 27.4739 28.1918C26.8263 28.9013 26.0885 29.5104 25.2119 29.916C24.5665 30.2178 23.8805 30.4342 23.2433 30.7501C22.6619 31.0376 22.1051 31.3722 21.5788 31.7507C21.0029 32.1664 20.4982 32.678 19.9282 33.1029C19.5641 33.3745 19.1396 33.5667 18.7392 33.7903C18.275 34.0489 17.8234 34.3364 17.3389 34.5498C16.7184 34.822 16.0887 35.0824 15.4375 35.253C14.7766 35.4161 14.1033 35.5239 13.4246 35.5751C12.5052 35.6572 11.5799 35.7014 10.6566 35.7165C10.058 35.7247 9.58958 34.8494 9.81573 34.1687C9.9221 33.8467 10.0975 33.5468 10.2547 33.2102C9.83471 33.2483 9.42929 33.2665 9.15751 33.6615C8.73337 34.2735 8.05096 34.4893 7.4152 34.7676C7.07792 34.9145 6.73501 35.0491 6.39678 35.1948C6.19703 35.2705 6.00335 35.3613 5.81746 35.4664C5.54023 35.6391 5.21939 35.7688 5.11187 36.135C4.96982 36.6381 4.5342 36.8768 4.10585 37.0351C3.43365 37.2831 2.82465 37.53 2.51335 38.2644C2.40256 38.5255 2.03923 38.6802 1.7928 38.8848C1.65849 38.9961 1.49397 39.0888 1.4045 39.2276C1.20813 39.5256 0.907992 39.5713 0.611305 39.5592C0.514882 39.5553 0.340841 39.3294 0.349624 39.2165C0.413532 38.3991 0.589637 37.5642 1.20659 37.0114C1.62597 36.6366 1.92073 36.1205 2.37518 35.8421C3.35584 35.2403 3.86357 34.274 4.48173 33.3959C5.09988 32.5179 5.77735 31.7406 6.66447 31.1345C6.86436 30.9996 7.00838 30.767 7.13092 30.5526C7.83064 29.3307 8.82419 28.3607 9.87026 27.4528C10.395 26.9978 11.0378 26.6994 11.7248 26.5919C12.3979 26.481 13.0824 26.3205 13.7031 26.0498C14.2551 25.8104 14.7777 25.4362 15.0765 24.8799C15.2288 24.5969 15.2694 24.2551 15.3638 23.9415C15.6102 23.1131 16.1421 22.4644 16.7226 21.858C16.9854 21.584 17.3008 21.3591 17.5747 21.1274Z" fill="url(#paint0_linear_457_585)"/>
<defs>
<linearGradient id="paint0_linear_457_585" x1="23.598" y1="2.82675" x2="18.5403" y2="41.8814" gradientUnits="userSpaceOnUse">
<stop stop-color="#476C89"/>
<stop offset="1" stop-color="#76A6CB"/>
</linearGradient>
</defs>
</svg>
