<svg width="11" height="12" viewBox="0 0 11 12" fill="none" xmlns="http://www.w3.org/2000/svg">
<path d="M1.94336 11.1719C0.71875 11.1719 0.103516 10.5684 0.103516 9.35547V2.20117C0.103516 0.988281 0.71875 0.384766 1.94336 0.384766H9.05078C10.2812 0.384766 10.8906 0.994141 10.8906 2.20117V9.35547C10.8906 10.5625 10.2812 11.1719 9.05078 11.1719H1.94336ZM1.95508 10.2285H9.03906C9.61914 10.2285 9.94727 9.91797 9.94727 9.30859V2.24805C9.94727 1.63867 9.61914 1.32812 9.03906 1.32812H1.95508C1.36914 1.32812 1.04688 1.63867 1.04688 2.24805V9.30859C1.04688 9.91797 1.36914 10.2285 1.95508 10.2285Z" fill="#505050" fill-opacity="0.3"/>
</svg>
