<svg width="66" height="72" viewBox="0 0 66 72" fill="none" xmlns="http://www.w3.org/2000/svg">
<path d="M60.9918 14.8107L37.3497 1.16657C36.026 0.402332 34.5245 0 32.996 0C31.4676 0 29.966 0.402332 28.6423 1.16657L5.00802 14.8107C3.68374 15.5744 2.58407 16.6735 1.81975 17.9974C1.05544 19.3213 0.653439 20.8233 0.654298 22.3519V49.6481C0.653439 51.1767 1.05544 52.6787 1.81975 54.0026C2.58407 55.3265 3.68374 56.4256 5.00802 57.1893L28.6423 70.8334C29.966 71.5977 31.4676 72 32.996 72C34.5245 72 36.026 71.5977 37.3497 70.8334L44.0669 66.9462L60.9918 57.1893C62.315 56.4244 63.4139 55.325 64.178 54.0014C64.9422 52.6777 65.3448 51.1764 65.3455 49.6481V22.3519C65.3448 20.8236 64.9422 19.3223 64.178 17.9986C63.4139 16.675 62.315 15.5756 60.9918 14.8107Z" fill="#FFF2F0"/>
<path fill-rule="evenodd" clip-rule="evenodd" d="M29.3092 1.87745C29.7938 1.43375 30.4493 1.10719 31.2295 0.920855C31.3983 0.880559 32.0999 0.789134 32.2977 0.781692C33.2745 0.744882 34.2327 0.943137 34.9261 1.32549C35.513 1.64917 36.2027 2.4382 36.4989 3.12495C36.7102 3.61461 36.7783 4.00534 36.7247 4.41964C36.6859 4.71991 36.689 4.89252 36.7363 5.05611C36.8437 5.42704 37.0963 5.80366 37.359 5.98441C37.4147 6.0228 37.5279 6.08555 37.6104 6.12387C37.693 6.16218 37.7757 6.20587 37.7942 6.22094C37.8339 6.25328 37.8435 6.30891 37.8288 6.4217C37.8028 6.62045 37.6969 6.77347 37.4754 6.9326C37.3315 7.03602 37.2986 7.08502 37.3243 7.15744C37.3516 7.2341 37.3855 7.27315 37.512 7.37347C37.6112 7.4522 37.6286 7.47284 37.6361 7.52125C37.6649 7.70676 37.5747 7.838 37.3249 7.97408L37.2363 8.02235L37.3163 8.08873C37.4106 8.1671 37.4914 8.27486 37.5008 8.33486C37.5118 8.40499 37.4814 8.46689 37.4124 8.51452C37.3263 8.574 37.2743 8.63596 37.2509 8.70689C37.235 8.75528 37.2374 8.80974 37.2649 9.0144C37.2973 9.25681 37.2974 9.26582 37.2663 9.3709C37.1928 9.61909 37.0622 9.77908 36.8664 9.86066C36.7662 9.90242 36.4791 9.94451 36.2846 9.94597C36.1954 9.94663 35.9213 9.92906 35.6755 9.90688C35.1394 9.85855 35.0694 9.86365 34.9231 9.96188C34.5648 10.2025 34.466 10.8852 34.627 12.0077C34.8706 12.0897 34.8194 12.3041 34.7736 12.496C34.7518 12.5872 34.7312 12.6732 34.7441 12.7376C34.9489 12.7884 35.1376 12.8418 35.3244 12.8945C36.0719 13.1057 36.7889 13.3083 38.3845 13.3083C39.1507 13.3083 39.9085 13.769 40.1764 14.0625C40.4608 14.4392 40.9036 15.285 41.3772 16.1896C42.0109 17.4 42.6998 18.7156 43.1379 19.1537C43.1379 19.3163 43.1379 19.4099 43.1085 19.493C43.0687 19.6056 42.9752 19.6991 42.7551 19.9192C42.7743 19.9842 42.834 20.1317 42.8949 20.282C42.9595 20.4416 43.0254 20.6042 43.0454 20.6746C43.1378 20.4757 43.2741 20.2232 43.4305 19.9333C44.1228 18.6504 45.2102 16.6354 44.6399 15.297C44.6399 15.297 44.2059 15.3276 44.1779 15.344C44.1492 15.4723 44.1517 15.6072 44.1544 15.7489C44.1592 16.0026 44.1644 16.2779 43.9907 16.5751C43.477 17.03 42.5537 17.0997 41.885 16.7446C41.1128 16.1149 41.3579 13.4081 41.9089 12.7047C42.4401 12.1698 43.5377 12.2989 44.0583 12.9533C44.1332 13.1084 44.1634 13.3603 44.1886 13.5708C44.2103 13.7519 44.2284 13.9024 44.268 13.9348L44.9609 13.8643C44.9881 13.8444 44.9958 13.7786 45.0057 13.6951C45.0192 13.5802 45.0367 13.4316 45.1142 13.3222C45.2652 13.1369 45.3572 13.068 45.7225 13.3351C46.1094 13.0514 46.2198 13.0415 46.5839 13.3075C46.9448 12.8649 47.2095 13.0466 47.582 13.4274C47.9504 13.1881 48.1257 13.1357 48.6334 13.9507C48.7508 13.9591 49.1109 13.9166 49.3841 13.8844C49.4807 13.873 49.5666 13.8628 49.627 13.8567C49.547 13.4985 49.5211 13.0809 49.7466 12.7919C49.9667 12.522 51.481 12.5112 51.7546 12.6265C52.6562 13.3617 52.3768 16.3607 51.6831 16.8569C51.2753 17.1486 50.4254 17.0724 49.8597 16.791C49.6707 16.6369 49.5967 16.0291 49.5566 15.6997C49.5491 15.6382 49.5428 15.5863 49.5371 15.549C49.3344 15.535 49.0984 15.5438 48.8675 15.5673C48.8166 15.6297 48.8001 15.7292 48.7834 15.83C48.7661 15.9345 48.7485 16.0404 48.6921 16.1078C48.6069 16.2093 48.5761 16.2423 48.5688 16.2395C48.5288 16.2244 47.783 17.0187 47.7043 17.1153C47.6699 17.1575 47.5257 17.1846 47.3773 17.2126C47.1849 17.2488 46.9855 17.2863 47.0095 17.3597C46.8096 17.5597 46.5487 18.3156 46.3139 19.1837C46.1987 19.7925 46.1045 20.4486 46.0165 21.0615C45.9043 21.8426 45.8022 22.5536 45.6796 23.0074C45.4958 23.6879 44.6286 25.1386 43.9033 26.0436C43.8364 26.127 43.7777 26.2213 43.7163 26.32C43.5505 26.5863 43.3648 26.8847 42.9446 27.0887C42.0999 26.9121 41.0862 25.4553 40.3555 24.4052C39.9289 23.7921 39.5988 23.3176 39.4551 23.3176C39.2717 23.3176 39.2665 23.3804 39.2665 25.5684C39.2665 27.9549 39.306 28.4085 39.514 28.4085C42.0208 32.553 43.6048 46.2882 43.6048 49.5265C43.1488 50.853 42.551 52.3072 41.9345 53.8069C40.6382 56.9603 39.2593 60.3144 38.9439 63.1024C38.8984 63.5043 38.8403 63.6681 38.743 63.6681C38.6401 63.6681 38.6063 63.7964 38.6063 64.1866C38.6063 64.6422 38.6291 64.7051 38.7949 64.7051C38.8997 64.7051 38.9835 64.768 38.9835 64.8465C38.9835 65.6288 41.9828 68.6623 42.8739 68.6661C43.6825 68.6695 44.1777 69.3015 44.025 70.1148C43.8843 70.8655 41.7551 70.842 41.0565 70.8343C41 70.8336 40.9529 70.8331 40.9169 70.8331C39.2697 70.8331 38.8892 70.8091 38.8892 70.7048C38.8892 70.622 38.7305 70.558 38.4412 70.5242C37.891 70.4599 37.4746 70.5322 37.4746 70.6922C37.4746 70.7582 37.326 70.84 37.1445 70.874C36.9469 70.9111 36.8144 70.991 36.8144 71.073C36.8144 71.1874 36.5629 71.2102 35.3054 71.2102C34.1005 71.2102 33.7964 71.1846 33.7964 71.0827C33.7964 70.9137 32.7535 70.8344 30.5191 70.8337C29.9283 70.8335 29.4543 70.749 28.9777 70.664C28.6215 70.6005 28.2638 70.5368 27.8548 70.5078C27.1345 70.4567 26.9117 70.4092 26.9117 70.307C26.9117 70.2454 26.9055 70.1174 26.8971 69.942L26.897 69.9411C26.8426 68.8151 26.6941 65.7421 27.4776 65.7421C27.6581 65.7421 27.6662 65.6793 27.6662 64.2809C27.6662 63.1113 27.6405 62.8196 27.5378 62.8196C25.7328 60.6406 24.835 55.976 26.7702 48.678C26.7702 48.1699 26.8073 47.0064 26.8495 45.6794C26.9089 43.8127 26.9785 41.6226 26.9699 40.479C26.8112 40.7548 26.6383 41.0144 26.4739 41.25C26.34 41.4419 26.2057 41.5505 25.984 41.6165C25.4894 41.7207 24.4709 41.3226 24.0145 41.0117C23.8355 40.8898 23.7985 40.7722 23.752 40.6242C23.7487 40.6138 23.7454 40.6032 23.742 40.5925C23.74 40.5864 23.738 40.5802 23.736 40.5739C23.7326 40.3188 23.9816 39.5693 24.0594 39.3739C23.9931 39.3277 23.8871 39.2697 23.7803 39.2112C23.6719 39.1519 23.5625 39.0921 23.4931 39.0437L23.327 39.2819L23.215 39.4301C23.1816 39.4568 23.1492 39.4849 23.1173 39.5126C22.9531 39.6552 22.8027 39.7858 22.5973 39.6426C22.4885 39.5666 22.4703 39.5047 22.4481 39.4289C22.437 39.3912 22.425 39.35 22.4002 39.3018C22.3013 39.4178 22.03 39.3541 21.9079 39.269C21.8092 39.2001 21.7736 39.1349 21.7205 39.038L21.7142 39.0264C21.6659 39.0185 21.6183 39.0202 21.5704 39.022C21.4568 39.026 21.3417 39.0302 21.2125 38.9064C21.1291 38.8264 21.0796 38.7267 21.0337 38.6342L21.0239 38.6145C20.9919 38.6141 20.958 38.6267 20.9223 38.6399C20.8351 38.6724 20.7369 38.7089 20.6275 38.5701C20.5385 38.4872 20.5343 38.1919 20.5313 37.9746C20.5301 37.8889 20.5291 37.8152 20.523 37.7716C20.1823 37.6558 19.8904 37.5624 19.6205 37.4961C19.5666 37.5733 19.5131 37.6509 19.4597 37.7285L19.4592 37.7292C19.2858 37.9807 19.1125 38.2323 18.9243 38.4731C18.2399 38.9319 16.9363 38.3042 16.3961 37.9901C16.2704 37.8151 16.1952 37.6445 16.2036 37.4647C16.275 35.9387 16.9719 34.9399 17.5172 34.1582L17.5223 34.1509C18.3104 33.8622 19.3742 33.9194 20.271 34.9778C20.3106 35.0756 20.234 35.511 20.169 35.8805C20.1264 36.1231 20.0887 36.3373 20.0922 36.4088L20.708 36.6758C20.8762 36.4347 20.9663 36.2552 21.0562 36.0759C21.1459 35.8972 21.2354 35.7186 21.4021 35.4796C21.9065 34.7563 22.0335 33.8276 22.1442 33.0177C22.1943 32.6506 22.2412 32.3078 22.3183 32.0197C22.3465 31.8115 22.4026 31.5746 22.4505 31.3722C22.484 31.2305 22.5135 31.1057 22.5267 31.0196C22.5267 31.0196 21.7028 30.6368 21.7028 29.8713C21.7028 29.1058 22.5189 26.657 22.821 26.2402C23.0477 25.9463 23.2433 22.3646 23.4026 19.4466C23.5091 17.4964 23.5993 15.8428 23.6719 15.6652C24.2617 14.2225 25.4757 13.1197 27.1614 13.1197C28.2444 12.8754 29.2348 12.5924 30.1153 12.3374C30.1181 12.3332 30.1209 12.3291 30.1237 12.3249C30.1242 12.2426 30.1363 11.9473 30.4089 11.8906C30.5619 11.6361 30.6778 11.3748 30.715 11.0354C30.7295 11.0156 30.7034 10.6161 30.6712 10.3631C30.5696 9.56699 30.2954 8.83104 29.8118 8.0561C29.6767 7.83967 29.3716 7.41854 29.1076 7.08397C28.8103 6.70725 28.7686 6.64678 28.6647 6.44115C28.5627 6.23918 28.4601 5.9636 28.3631 5.63093C28.2924 5.38841 28.1922 4.77989 28.1904 4.58249C28.1886 4.37617 28.2137 4.05778 28.2466 3.87207C28.2745 3.71407 28.2745 3.70569 28.2455 3.69533C28.2287 3.68934 28.1633 3.64674 28.1001 3.60064L27.9852 3.51683L27.9074 3.55509C27.652 3.68074 27.5173 3.8975 27.4718 4.25636C27.4446 4.47051 27.46 4.63359 27.6051 5.66507C27.7811 6.91628 27.8278 7.34631 27.8852 8.24503C27.9138 8.69195 27.9187 8.87712 27.9142 9.32543C27.9003 10.6887 27.6476 11.4992 27.1262 11.8524C26.9256 11.9882 26.8245 12.0251 26.5224 12.0727C26.2489 12.1157 26.0805 12.1202 25.7526 12.093C25.342 12.059 25.0189 11.8473 24.7945 11.4654C24.6588 11.2343 24.5492 10.9246 24.5063 10.6511L24.4883 10.5363L24.6194 10.6247C25.0385 10.9075 25.3682 10.9897 25.5718 10.862C25.701 10.781 25.7712 10.6405 25.8139 10.3771C25.8414 10.2072 25.8478 10.0385 25.8373 9.75859C25.8299 9.5596 25.7122 8.80871 25.6155 8.34334C25.054 5.64015 24.9946 4.22842 25.4034 3.30926C25.8246 2.36248 26.7133 1.9864 28.0056 2.20801L28.2139 2.24373L28.2941 2.18978C28.3606 2.14509 28.395 2.13268 28.4951 2.11733C28.6414 2.09492 28.7155 2.11506 28.8423 2.21174L28.9272 2.27649L28.9659 2.23374C29.1526 2.02707 29.2038 1.97394 29.3092 1.87745ZM24.6831 32.2648C24.6325 32.4244 24.582 32.5836 24.532 32.742L24.5347 32.7444C24.5322 32.7502 24.5298 32.7561 24.5273 32.762C24.5248 32.7682 24.5223 32.7743 24.5198 32.7805C24.4717 32.9329 24.424 33.0846 24.377 33.2352C24.2806 33.6243 24.2181 34.0786 24.1517 34.5611C24.0772 35.1025 23.9979 35.6795 23.8602 36.2397C24.0429 36.3671 24.122 37.4541 24.1517 37.8659C24.3058 37.915 24.7549 38.0947 24.7549 38.0947C25.1436 37.706 25.527 37.082 25.7328 37.082C26.081 37.082 26.4156 37.1314 26.5447 37.2258C26.6717 37.2638 26.7965 37.314 26.9129 37.3794C26.9361 34.3978 28.5328 31.7409 29.989 29.204C30.098 29.014 30.1883 28.8567 30.2535 28.7385L30.2955 28.6621C30.3657 28.5339 30.4093 28.4542 30.4526 28.4085C30.5648 28.4085 30.5898 28.2102 30.5898 27.3243C30.5898 26.553 30.5134 26.4368 30.4524 26.3442C30.4327 26.3142 30.4146 26.2867 30.4012 26.2402C30.0649 25.8549 27.6662 21.7858 27.6662 21.7149C27.6662 21.4574 27.4188 21.4757 27.3484 21.7384C27.3017 21.9129 27.2269 22.2947 27.1322 22.7785C26.8708 24.1127 26.4576 26.2225 26.0629 26.9001C26.0346 27.2126 26.02 27.5281 26.0051 27.8527C25.9622 28.7836 25.9158 29.7901 25.5304 31.0196C25.3647 31.5485 25.1477 31.7851 24.835 31.7851C24.7864 31.9391 24.7376 32.093 24.6889 32.2465L24.6849 32.2592L24.6831 32.2648ZM32.1931 49.8094C32.4966 49.5604 33.1769 48.249 33.1769 47.973C33.4037 47.066 34.936 41.1359 35.1168 41.1359C35.3214 42.0066 36.1473 44.7661 36.7312 46.7169C37.0827 47.8911 37.3464 48.7723 37.3342 48.7723C33.6955 54.8098 34.9282 59.518 34.9282 63.6688C34.9282 64.5096 34.9119 64.5931 34.7395 64.6382C34.5956 64.6758 34.5509 64.7668 34.5509 65.022C34.5509 65.3297 34.5244 65.3615 34.2208 65.4184C34.0317 65.4539 33.8572 65.8126 33.8572 65.8875C33.8572 66.1091 32.759 65.0919 32.759 64.8937C32.759 64.79 32.7002 64.7051 32.6286 64.7051C32.5568 64.7051 32.4759 64.79 32.4487 64.8937C32.4113 65.037 32.3201 65.0822 32.0688 65.0822C31.335 65.0418 31.5053 59.2628 31.6318 54.9662C31.694 52.8557 31.7456 51.1029 31.6744 50.5636C31.7007 50.4082 32.0431 49.9324 32.1931 49.8094Z" fill="url(#paint0_linear_2501_1039)"/>
<defs>
<linearGradient id="paint0_linear_2501_1039" x1="66.2459" y1="54.5829" x2="16.203" y2="31.2546" gradientUnits="userSpaceOnUse">
<stop stop-color="#682E51"/>
<stop offset="1" stop-color="#CF7B7B"/>
</linearGradient>
</defs>
</svg>
